{"glyphs":{"0":{"ha":833,"x_min":0,"x_max":694,"o":"m 417 278 l 417 139 l 278 139 l 278 278 l 417 278 m 694 278 l 694 139 l 556 139 l 556 278 l 694 278 m 694 0 l 694 -139 l 556 -139 l 556 0 l 694 0 m 139 278 l 139 139 l 0 139 l 0 278 l 139 278 m 694 417 l 694 278 l 556 278 l 556 417 l 694 417 m 417 139 l 417 0 l 278 0 l 278 139 l 417 139 m 694 139 l 694 0 l 556 0 l 556 139 l 694 139 m 139 139 l 139 0 l 0 0 l 0 139 l 139 139 m 139 0 l 139 -139 l 0 -139 l 0 0 l 139 0 m 139 417 l 139 278 l 0 278 l 0 417 l 139 417 z "},"1":{"ha":694,"x_min":0,"x_max":694,"o":"m 0 278 l 0 417 l 139 417 l 139 278 l 0 278 m 417 0 l 417 139 l 556 139 l 556 0 l 417 0 m 139 139 l 139 278 l 278 278 l 278 139 l 139 139 m 556 -139 l 556 0 l 694 0 l 694 -139 l 556 -139 m 417 278 l 417 417 l 556 417 l 556 278 l 417 278 m 417 139 l 417 278 l 556 278 l 556 139 l 417 139 m 139 0 l 139 139 l 278 139 l 278 0 l 139 0 m 0 -139 l 0 0 l 139 0 l 139 -139 l 0 -139 z "},"2":{"ha":694,"x_min":0,"x_max":556,"o":"m 556 139 l 556 0 l 417 0 l 417 139 l 556 139 m 556 0 l 556 -139 l 417 -139 l 417 0 l 556 0 m 278 278 l 278 139 l 139 139 l 139 278 l 278 278 m 139 0 l 139 -139 l 0 -139 l 0 0 l 139 0 m 139 139 l 139 0 l 0 0 l 0 139 l 139 139 m 556 417 l 556 278 l 417 278 l 417 417 l 556 417 m 556 278 l 556 139 l 417 139 l 417 278 l 556 278 m 139 417 l 139 278 l 0 278 l 0 417 l 139 417 m 417 139 l 417 0 l 278 0 l 278 139 l 417 139 z "},"3":{"ha":833,"x_min":0,"x_max":694,"o":"m 417 0 l 278 0 l 278 139 l 417 139 l 417 0 m 694 -139 l 556 -139 l 556 0 l 694 0 l 694 -139 m 694 278 l 556 278 l 556 417 l 694 417 l 694 278 m 139 -139 l 0 -139 l 0 0 l 139 0 l 139 -139 m 139 278 l 0 278 l 0 417 l 139 417 l 139 278 m 278 0 l 139 0 l 139 139 l 278 139 l 278 0 m 694 0 l 556 0 l 556 139 l 694 139 l 694 0 m 278 139 l 139 139 l 139 278 l 278 278 l 278 139 m 694 139 l 556 139 l 556 278 l 694 278 l 694 139 z "},"4":{"ha":833,"x_min":0,"x_max":694,"o":"m 694 0 l 694 -139 l 556 -139 l 556 0 l 694 0 m 139 417 l 139 278 l 0 278 l 0 417 l 139 417 m 278 0 l 278 -139 l 139 -139 l 139 0 l 278 0 m 694 417 l 694 278 l 556 278 l 556 417 l 694 417 m 417 278 l 417 139 l 278 139 l 278 278 l 417 278 m 694 278 l 694 139 l 556 139 l 556 278 l 694 278 m 417 0 l 417 -139 l 278 -139 l 278 0 l 417 0 m 139 278 l 139 139 l 0 139 l 0 278 l 139 278 m 694 139 l 694 0 l 556 0 l 556 139 l 694 139 m 417 417 l 417 278 l 278 278 l 278 417 l 417 417 m 139 139 l 139 0 l 0 0 l 0 139 l 139 139 z "},"5":{"ha":694,"x_min":0,"x_max":556,"o":"m 556 139 l 417 139 l 417 278 l 556 278 l 556 139 m 556 278 l 417 278 l 417 417 l 556 417 l 556 278 m 278 0 l 139 0 l 139 139 l 278 139 l 278 0 m 139 278 l 0 278 l 0 417 l 139 417 l 139 278 m 139 139 l 0 139 l 0 278 l 139 278 l 139 139 m 556 -139 l 417 -139 l 417 0 l 556 0 l 556 -139 m 556 0 l 417 0 l 417 139 l 556 139 l 556 0 m 139 -139 l 0 -139 l 0 0 l 139 0 l 139 -139 m 417 139 l 278 139 l 278 278 l 417 278 l 417 139 z "},"6":{"ha":833,"x_min":0,"x_max":694,"o":"m 417 278 l 556 278 l 556 139 l 417 139 l 417 278 m 0 0 l 139 0 l 139 -139 l 0 -139 l 0 0 m 556 139 l 694 139 l 694 0 l 556 0 l 556 139 m 278 417 l 417 417 l 417 278 l 278 278 l 278 417 m 278 278 l 417 278 l 417 139 l 278 139 l 278 278 m 0 139 l 139 139 l 139 0 l 0 0 l 0 139 m 556 0 l 694 0 l 694 -139 l 556 -139 l 556 0 m 0 278 l 139 278 l 139 139 l 0 139 l 0 278 m 0 417 l 139 417 l 139 278 l 0 278 l 0 417 z "},"7":{"ha":833,"x_min":0,"x_max":694,"o":"m 278 139 l 139 139 l 139 278 l 278 278 l 278 139 m 694 278 l 556 278 l 556 417 l 694 417 l 694 278 m 139 278 l 0 278 l 0 417 l 139 417 l 139 278 m 278 -139 l 139 -139 l 139 0 l 278 0 l 278 -139 m 417 139 l 278 139 l 278 278 l 417 278 l 417 139 m 694 139 l 556 139 l 556 278 l 694 278 l 694 139 m 139 139 l 0 139 l 0 278 l 139 278 l 139 139 m 278 0 l 139 0 l 139 139 l 278 139 l 278 0 m 556 0 l 417 0 l 417 139 l 556 139 l 556 0 m 556 -139 l 417 -139 l 417 0 l 556 0 l 556 -139 z "},"8":{"ha":833,"x_min":0,"x_max":694,"o":"m 139 -139 l 0 -139 l 0 0 l 139 0 l 139 -139 m 417 0 l 278 0 l 278 139 l 417 139 l 417 0 m 694 -139 l 556 -139 l 556 0 l 694 0 l 694 -139 m 139 278 l 0 278 l 0 417 l 139 417 l 139 278 m 694 278 l 556 278 l 556 417 l 694 417 l 694 278 m 417 278 l 278 278 l 278 417 l 417 417 l 417 278 m 139 139 l 0 139 l 0 278 l 139 278 l 139 139 m 694 139 l 556 139 l 556 278 l 694 278 l 694 139 m 139 0 l 0 0 l 0 139 l 139 139 l 139 0 m 694 0 l 556 0 l 556 139 l 694 139 l 694 0 z "},"9":{"ha":833,"x_min":0,"x_max":694,"o":"m 278 0 l 139 0 l 139 139 l 278 139 l 278 0 m 694 278 l 556 278 l 556 417 l 694 417 l 694 278 m 139 139 l 0 139 l 0 278 l 139 278 l 139 139 m 694 -139 l 556 -139 l 556 0 l 694 0 l 694 -139 m 417 -139 l 278 -139 l 278 0 l 417 0 l 417 -139 m 694 139 l 556 139 l 556 278 l 694 278 l 694 139 m 139 278 l 0 278 l 0 417 l 139 417 l 139 278 m 417 0 l 278 0 l 278 139 l 417 139 l 417 0 m 694 0 l 556 0 l 556 139 l 694 139 l 694 0 z "}," ":{"ha":139,"x_min":0,"x_max":139,"o":"m 139 282 l 138 282 l 138 283 l 139 283 l 139 282 m 1 414 l 0 414 l 0 415 l 1 415 l 1 414 m 1 408 l 0 408 l 0 410 l 1 410 l 1 408 m 7 413 l 6 413 l 6 414 l 7 414 l 7 413 m 8 411 l 7 411 l 7 413 l 8 413 l 8 411 m 14 415 l 13 415 l 13 417 l 14 417 l 14 415 m 1 403 l 0 403 l 0 404 l 1 404 l 1 403 m 7 407 l 6 407 l 6 408 l 7 408 l 7 407 m 15 414 l 14 414 l 14 415 l 15 415 l 15 414 m 8 406 l 7 406 l 7 407 l 8 407 l 8 406 m 14 410 l 13 410 l 13 411 l 14 411 l 14 410 m 1 397 l 0 397 l 0 399 l 1 399 l 1 397 m 7 401 l 6 401 l 6 403 l 7 403 l 7 401 m 15 408 l 14 408 l 14 410 l 15 410 l 15 408 m 21 413 l 19 413 l 19 414 l 21 414 l 21 413 m 8 400 l 7 400 l 7 401 l 8 401 l 8 400 m 14 404 l 13 404 l 13 406 l 14 406 l 14 404 m 1 392 l 0 392 l 0 393 l 1 393 l 1 392 m 22 411 l 21 411 l 21 413 l 22 413 l 22 411 m 7 396 l 6 396 l 6 397 l 7 397 l 7 396 m 28 415 l 26 415 l 26 417 l 28 417 l 28 415 m 15 403 l 14 403 l 14 404 l 15 404 l 15 403 m 21 407 l 19 407 l 19 408 l 21 408 l 21 407 m 8 394 l 7 394 l 7 396 l 8 396 l 8 394 m 29 414 l 28 414 l 28 415 l 29 415 l 29 414 m 14 399 l 13 399 l 13 400 l 14 400 l 14 399 m 1 386 l 0 386 l 0 388 l 1 388 l 1 386 m 22 406 l 21 406 l 21 407 l 22 407 l 22 406 m 7 390 l 6 390 l 6 392 l 7 392 l 7 390 m 28 410 l 26 410 l 26 411 l 28 411 l 28 410 m 15 397 l 14 397 l 14 399 l 15 399 l 15 397 m 21 401 l 19 401 l 19 403 l 21 403 l 21 401 m 8 389 l 7 389 l 7 390 l 8 390 l 8 389 m 29 408 l 28 408 l 28 410 l 29 410 l 29 408 m 14 393 l 13 393 l 13 394 l 14 394 l 14 393 m 1 381 l 0 381 l 0 382 l 1 382 l 1 381 m 35 413 l 33 413 l 33 414 l 35 414 l 35 413 m 22 400 l 21 400 l 21 401 l 22 401 l 22 400 m 7 385 l 6 385 l 6 386 l 7 386 l 7 385 m 28 404 l 26 404 l 26 406 l 28 406 l 28 404 m 15 392 l 14 392 l 14 393 l 15 393 l 15 392 m 36 411 l 35 411 l 35 413 l 36 413 l 36 411 m 21 396 l 19 396 l 19 397 l 21 397 l 21 396 m 8 383 l 7 383 l 7 385 l 8 385 l 8 383 m 42 415 l 40 415 l 40 417 l 42 417 l 42 415 m 29 403 l 28 403 l 28 404 l 29 404 l 29 403 m 14 388 l 13 388 l 13 389 l 14 389 l 14 388 m 1 375 l 0 375 l 0 376 l 1 376 l 1 375 m 35 407 l 33 407 l 33 408 l 35 408 l 35 407 m 22 394 l 21 394 l 21 396 l 22 396 l 22 394 m 7 379 l 6 379 l 6 381 l 7 381 l 7 379 m 43 414 l 42 414 l 42 415 l 43 415 l 43 414 m 28 399 l 26 399 l 26 400 l 28 400 l 28 399 m 15 386 l 14 386 l 14 388 l 15 388 l 15 386 m 36 406 l 35 406 l 35 407 l 36 407 l 36 406 m 21 390 l 19 390 l 19 392 l 21 392 l 21 390 m 8 378 l 7 378 l 7 379 l 8 379 l 8 378 m 42 410 l 40 410 l 40 411 l 42 411 l 42 410 m 29 397 l 28 397 l 28 399 l 29 399 l 29 397 m 14 382 l 13 382 l 13 383 l 14 383 l 14 382 m 1 369 l 0 369 l 0 371 l 1 371 l 1 369 m 35 401 l 33 401 l 33 403 l 35 403 l 35 401 m 22 389 l 21 389 l 21 390 l 22 390 l 22 389 m 7 374 l 6 374 l 6 375 l 7 375 l 7 374 m 43 408 l 42 408 l 42 410 l 43 410 l 43 408 m 28 393 l 26 393 l 26 394 l 28 394 l 28 393 m 15 381 l 14 381 l 14 382 l 15 382 l 15 381 m 49 413 l 47 413 l 47 414 l 49 414 l 49 413 m 36 400 l 35 400 l 35 401 l 36 401 l 36 400 m 21 385 l 19 385 l 19 386 l 21 386 l 21 385 m 8 372 l 7 372 l 7 374 l 8 374 l 8 372 m 42 404 l 40 404 l 40 406 l 42 406 l 42 404 m 29 392 l 28 392 l 28 393 l 29 393 l 29 392 m 14 376 l 13 376 l 13 378 l 14 378 l 14 376 m 1 364 l 0 364 l 0 365 l 1 365 l 1 364 m 50 411 l 49 411 l 49 413 l 50 413 l 50 411 m 35 396 l 33 396 l 33 397 l 35 397 l 35 396 m 22 383 l 21 383 l 21 385 l 22 385 l 22 383 m 7 368 l 6 368 l 6 369 l 7 369 l 7 368 m 56 415 l 54 415 l 54 417 l 56 417 l 56 415 m 43 403 l 42 403 l 42 404 l 43 404 l 43 403 m 28 388 l 26 388 l 26 389 l 28 389 l 28 388 m 15 375 l 14 375 l 14 376 l 15 376 l 15 375 m 49 407 l 47 407 l 47 408 l 49 408 l 49 407 m 36 394 l 35 394 l 35 396 l 36 396 l 36 394 m 21 379 l 19 379 l 19 381 l 21 381 l 21 379 m 8 367 l 7 367 l 7 368 l 8 368 l 8 367 m 57 414 l 56 414 l 56 415 l 57 415 l 57 414 m 42 399 l 40 399 l 40 400 l 42 400 l 42 399 m 29 386 l 28 386 l 28 388 l 29 388 l 29 386 m 14 371 l 13 371 l 13 372 l 14 372 l 14 371 m 1 358 l 0 358 l 0 360 l 1 360 l 1 358 m 50 406 l 49 406 l 49 407 l 50 407 l 50 406 m 35 390 l 33 390 l 33 392 l 35 392 l 35 390 m 22 378 l 21 378 l 21 379 l 22 379 l 22 378 m 7 363 l 6 363 l 6 364 l 7 364 l 7 363 m 56 410 l 54 410 l 54 411 l 56 411 l 56 410 m 43 397 l 42 397 l 42 399 l 43 399 l 43 397 m 28 382 l 26 382 l 26 383 l 28 383 l 28 382 m 15 369 l 14 369 l 14 371 l 15 371 l 15 369 m 49 401 l 47 401 l 47 403 l 49 403 l 49 401 m 36 389 l 35 389 l 35 390 l 36 390 l 36 389 m 21 374 l 19 374 l 19 375 l 21 375 l 21 374 m 8 361 l 7 361 l 7 363 l 8 363 l 8 361 m 57 408 l 56 408 l 56 410 l 57 410 l 57 408 m 42 393 l 40 393 l 40 394 l 42 394 l 42 393 m 29 381 l 28 381 l 28 382 l 29 382 l 29 381 m 14 365 l 13 365 l 13 367 l 14 367 l 14 365 m 1 353 l 0 353 l 0 354 l 1 354 l 1 353 m 63 413 l 61 413 l 61 414 l 63 414 l 63 413 m 50 400 l 49 400 l 49 401 l 50 401 l 50 400 m 35 385 l 33 385 l 33 386 l 35 386 l 35 385 m 22 372 l 21 372 l 21 374 l 22 374 l 22 372 m 7 357 l 6 357 l 6 358 l 7 358 l 7 357 m 56 404 l 54 404 l 54 406 l 56 406 l 56 404 m 43 392 l 42 392 l 42 393 l 43 393 l 43 392 m 28 376 l 26 376 l 26 378 l 28 378 l 28 376 m 15 364 l 14 364 l 14 365 l 15 365 l 15 364 m 64 411 l 63 411 l 63 413 l 64 413 l 64 411 m 49 396 l 47 396 l 47 397 l 49 397 l 49 396 m 36 383 l 35 383 l 35 385 l 36 385 l 36 383 m 21 368 l 19 368 l 19 369 l 21 369 l 21 368 m 8 356 l 7 356 l 7 357 l 8 357 l 8 356 m 69 415 l 68 415 l 68 417 l 69 417 l 69 415 m 57 403 l 56 403 l 56 404 l 57 404 l 57 403 m 42 388 l 40 388 l 40 389 l 42 389 l 42 388 m 29 375 l 28 375 l 28 376 l 29 376 l 29 375 m 14 360 l 13 360 l 13 361 l 14 361 l 14 360 m 1 347 l 0 347 l 0 349 l 1 349 l 1 347 m 63 407 l 61 407 l 61 408 l 63 408 l 63 407 m 50 394 l 49 394 l 49 396 l 50 396 l 50 394 m 35 379 l 33 379 l 33 381 l 35 381 l 35 379 m 22 367 l 21 367 l 21 368 l 22 368 l 22 367 m 7 351 l 6 351 l 6 353 l 7 353 l 7 351 m 71 414 l 69 414 l 69 415 l 71 415 l 71 414 m 56 399 l 54 399 l 54 400 l 56 400 l 56 399 m 43 386 l 42 386 l 42 388 l 43 388 l 43 386 m 28 371 l 26 371 l 26 372 l 28 372 l 28 371 m 15 358 l 14 358 l 14 360 l 15 360 l 15 358 m 64 406 l 63 406 l 63 407 l 64 407 l 64 406 m 49 390 l 47 390 l 47 392 l 49 392 l 49 390 m 36 378 l 35 378 l 35 379 l 36 379 l 36 378 m 21 363 l 19 363 l 19 364 l 21 364 l 21 363 m 8 350 l 7 350 l 7 351 l 8 351 l 8 350 m 69 410 l 68 410 l 68 411 l 69 411 l 69 410 m 57 397 l 56 397 l 56 399 l 57 399 l 57 397 m 42 382 l 40 382 l 40 383 l 42 383 l 42 382 m 29 369 l 28 369 l 28 371 l 29 371 l 29 369 m 14 354 l 13 354 l 13 356 l 14 356 l 14 354 m 1 342 l 0 342 l 0 343 l 1 343 l 1 342 m 63 401 l 61 401 l 61 403 l 63 403 l 63 401 m 50 389 l 49 389 l 49 390 l 50 390 l 50 389 m 35 374 l 33 374 l 33 375 l 35 375 l 35 374 m 22 361 l 21 361 l 21 363 l 22 363 l 22 361 m 7 346 l 6 346 l 6 347 l 7 347 l 7 346 m 71 408 l 69 408 l 69 410 l 71 410 l 71 408 m 56 393 l 54 393 l 54 394 l 56 394 l 56 393 m 43 381 l 42 381 l 42 382 l 43 382 l 43 381 m 28 365 l 26 365 l 26 367 l 28 367 l 28 365 m 15 353 l 14 353 l 14 354 l 15 354 l 15 353 m 76 413 l 75 413 l 75 414 l 76 414 l 76 413 m 64 400 l 63 400 l 63 401 l 64 401 l 64 400 m 49 385 l 47 385 l 47 386 l 49 386 l 49 385 m 36 372 l 35 372 l 35 374 l 36 374 l 36 372 m 21 357 l 19 357 l 19 358 l 21 358 l 21 357 m 8 344 l 7 344 l 7 346 l 8 346 l 8 344 m 69 404 l 68 404 l 68 406 l 69 406 l 69 404 m 57 392 l 56 392 l 56 393 l 57 393 l 57 392 m 42 376 l 40 376 l 40 378 l 42 378 l 42 376 m 29 364 l 28 364 l 28 365 l 29 365 l 29 364 m 14 349 l 13 349 l 13 350 l 14 350 l 14 349 m 1 336 l 0 336 l 0 338 l 1 338 l 1 336 m 78 411 l 76 411 l 76 413 l 78 413 l 78 411 m 63 396 l 61 396 l 61 397 l 63 397 l 63 396 m 50 383 l 49 383 l 49 385 l 50 385 l 50 383 m 35 368 l 33 368 l 33 369 l 35 369 l 35 368 m 22 356 l 21 356 l 21 357 l 22 357 l 22 356 m 7 340 l 6 340 l 6 342 l 7 342 l 7 340 m 83 415 l 82 415 l 82 417 l 83 417 l 83 415 m 71 403 l 69 403 l 69 404 l 71 404 l 71 403 m 56 388 l 54 388 l 54 389 l 56 389 l 56 388 m 43 375 l 42 375 l 42 376 l 43 376 l 43 375 m 28 360 l 26 360 l 26 361 l 28 361 l 28 360 m 15 347 l 14 347 l 14 349 l 15 349 l 15 347 m 76 407 l 75 407 l 75 408 l 76 408 l 76 407 m 64 394 l 63 394 l 63 396 l 64 396 l 64 394 m 49 379 l 47 379 l 47 381 l 49 381 l 49 379 m 36 367 l 35 367 l 35 368 l 36 368 l 36 367 m 21 351 l 19 351 l 19 353 l 21 353 l 21 351 m 8 339 l 7 339 l 7 340 l 8 340 l 8 339 m 85 414 l 83 414 l 83 415 l 85 415 l 85 414 m 69 399 l 68 399 l 68 400 l 69 400 l 69 399 m 57 386 l 56 386 l 56 388 l 57 388 l 57 386 m 42 371 l 40 371 l 40 372 l 42 372 l 42 371 m 29 358 l 28 358 l 28 360 l 29 360 l 29 358 m 14 343 l 13 343 l 13 344 l 14 344 l 14 343 m 1 331 l 0 331 l 0 332 l 1 332 l 1 331 m 78 406 l 76 406 l 76 407 l 78 407 l 78 406 m 63 390 l 61 390 l 61 392 l 63 392 l 63 390 m 50 378 l 49 378 l 49 379 l 50 379 l 50 378 m 35 363 l 33 363 l 33 364 l 35 364 l 35 363 m 22 350 l 21 350 l 21 351 l 22 351 l 22 350 m 7 335 l 6 335 l 6 336 l 7 336 l 7 335 m 83 410 l 82 410 l 82 411 l 83 411 l 83 410 m 71 397 l 69 397 l 69 399 l 71 399 l 71 397 m 56 382 l 54 382 l 54 383 l 56 383 l 56 382 m 43 369 l 42 369 l 42 371 l 43 371 l 43 369 m 28 354 l 26 354 l 26 356 l 28 356 l 28 354 m 15 342 l 14 342 l 14 343 l 15 343 l 15 342 m 76 401 l 75 401 l 75 403 l 76 403 l 76 401 m 64 389 l 63 389 l 63 390 l 64 390 l 64 389 m 49 374 l 47 374 l 47 375 l 49 375 l 49 374 m 36 361 l 35 361 l 35 363 l 36 363 l 36 361 m 21 346 l 19 346 l 19 347 l 21 347 l 21 346 m 8 333 l 7 333 l 7 335 l 8 335 l 8 333 m 85 408 l 83 408 l 83 410 l 85 410 l 85 408 m 69 393 l 68 393 l 68 394 l 69 394 l 69 393 m 57 381 l 56 381 l 56 382 l 57 382 l 57 381 m 42 365 l 40 365 l 40 367 l 42 367 l 42 365 m 29 353 l 28 353 l 28 354 l 29 354 l 29 353 m 14 338 l 13 338 l 13 339 l 14 339 l 14 338 m 1 325 l 0 325 l 0 326 l 1 326 l 1 325 m 90 413 l 89 413 l 89 414 l 90 414 l 90 413 m 78 400 l 76 400 l 76 401 l 78 401 l 78 400 m 63 385 l 61 385 l 61 386 l 63 386 l 63 385 m 50 372 l 49 372 l 49 374 l 50 374 l 50 372 m 35 357 l 33 357 l 33 358 l 35 358 l 35 357 m 22 344 l 21 344 l 21 346 l 22 346 l 22 344 m 7 329 l 6 329 l 6 331 l 7 331 l 7 329 m 83 404 l 82 404 l 82 406 l 83 406 l 83 404 m 71 392 l 69 392 l 69 393 l 71 393 l 71 392 m 56 376 l 54 376 l 54 378 l 56 378 l 56 376 m 43 364 l 42 364 l 42 365 l 43 365 l 43 364 m 28 349 l 26 349 l 26 350 l 28 350 l 28 349 m 15 336 l 14 336 l 14 338 l 15 338 l 15 336 m 92 411 l 90 411 l 90 413 l 92 413 l 92 411 m 76 396 l 75 396 l 75 397 l 76 397 l 76 396 m 64 383 l 63 383 l 63 385 l 64 385 l 64 383 m 49 368 l 47 368 l 47 369 l 49 369 l 49 368 m 36 356 l 35 356 l 35 357 l 36 357 l 36 356 m 21 340 l 19 340 l 19 342 l 21 342 l 21 340 m 8 328 l 7 328 l 7 329 l 8 329 l 8 328 m 97 415 l 96 415 l 96 417 l 97 417 l 97 415 m 85 403 l 83 403 l 83 404 l 85 404 l 85 403 m 69 388 l 68 388 l 68 389 l 69 389 l 69 388 m 57 375 l 56 375 l 56 376 l 57 376 l 57 375 m 42 360 l 40 360 l 40 361 l 42 361 l 42 360 m 29 347 l 28 347 l 28 349 l 29 349 l 29 347 m 14 332 l 13 332 l 13 333 l 14 333 l 14 332 m 1 319 l 0 319 l 0 321 l 1 321 l 1 319 m 90 407 l 89 407 l 89 408 l 90 408 l 90 407 m 78 394 l 76 394 l 76 396 l 78 396 l 78 394 m 63 379 l 61 379 l 61 381 l 63 381 l 63 379 m 50 367 l 49 367 l 49 368 l 50 368 l 50 367 m 35 351 l 33 351 l 33 353 l 35 353 l 35 351 m 22 339 l 21 339 l 21 340 l 22 340 l 22 339 m 7 324 l 6 324 l 6 325 l 7 325 l 7 324 m 99 414 l 97 414 l 97 415 l 99 415 l 99 414 m 83 399 l 82 399 l 82 400 l 83 400 l 83 399 m 71 386 l 69 386 l 69 388 l 71 388 l 71 386 m 56 371 l 54 371 l 54 372 l 56 372 l 56 371 m 43 358 l 42 358 l 42 360 l 43 360 l 43 358 m 28 343 l 26 343 l 26 344 l 28 344 l 28 343 m 15 331 l 14 331 l 14 332 l 15 332 l 15 331 m 92 406 l 90 406 l 90 407 l 92 407 l 92 406 m 76 390 l 75 390 l 75 392 l 76 392 l 76 390 m 64 378 l 63 378 l 63 379 l 64 379 l 64 378 m 49 363 l 47 363 l 47 364 l 49 364 l 49 363 m 36 350 l 35 350 l 35 351 l 36 351 l 36 350 m 21 335 l 19 335 l 19 336 l 21 336 l 21 335 m 8 322 l 7 322 l 7 324 l 8 324 l 8 322 m 97 410 l 96 410 l 96 411 l 97 411 l 97 410 m 85 397 l 83 397 l 83 399 l 85 399 l 85 397 m 69 382 l 68 382 l 68 383 l 69 383 l 69 382 m 57 369 l 56 369 l 56 371 l 57 371 l 57 369 m 42 354 l 40 354 l 40 356 l 42 356 l 42 354 m 29 342 l 28 342 l 28 343 l 29 343 l 29 342 m 14 326 l 13 326 l 13 328 l 14 328 l 14 326 m 1 314 l 0 314 l 0 315 l 1 315 l 1 314 m 90 401 l 89 401 l 89 403 l 90 403 l 90 401 m 78 389 l 76 389 l 76 390 l 78 390 l 78 389 m 63 374 l 61 374 l 61 375 l 63 375 l 63 374 m 50 361 l 49 361 l 49 363 l 50 363 l 50 361 m 35 346 l 33 346 l 33 347 l 35 347 l 35 346 m 22 333 l 21 333 l 21 335 l 22 335 l 22 333 m 7 318 l 6 318 l 6 319 l 7 319 l 7 318 m 99 408 l 97 408 l 97 410 l 99 410 l 99 408 m 83 393 l 82 393 l 82 394 l 83 394 l 83 393 m 71 381 l 69 381 l 69 382 l 71 382 l 71 381 m 56 365 l 54 365 l 54 367 l 56 367 l 56 365 m 43 353 l 42 353 l 42 354 l 43 354 l 43 353 m 28 338 l 26 338 l 26 339 l 28 339 l 28 338 m 15 325 l 14 325 l 14 326 l 15 326 l 15 325 m 104 413 l 103 413 l 103 414 l 104 414 l 104 413 m 92 400 l 90 400 l 90 401 l 92 401 l 92 400 m 76 385 l 75 385 l 75 386 l 76 386 l 76 385 m 64 372 l 63 372 l 63 374 l 64 374 l 64 372 m 49 357 l 47 357 l 47 358 l 49 358 l 49 357 m 36 344 l 35 344 l 35 346 l 36 346 l 36 344 m 21 329 l 19 329 l 19 331 l 21 331 l 21 329 m 8 317 l 7 317 l 7 318 l 8 318 l 8 317 m 97 404 l 96 404 l 96 406 l 97 406 l 97 404 m 85 392 l 83 392 l 83 393 l 85 393 l 85 392 m 69 376 l 68 376 l 68 378 l 69 378 l 69 376 m 57 364 l 56 364 l 56 365 l 57 365 l 57 364 m 42 349 l 40 349 l 40 350 l 42 350 l 42 349 m 29 336 l 28 336 l 28 338 l 29 338 l 29 336 m 14 321 l 13 321 l 13 322 l 14 322 l 14 321 m 1 308 l 0 308 l 0 310 l 1 310 l 1 308 m 106 411 l 104 411 l 104 413 l 106 413 l 106 411 m 90 396 l 89 396 l 89 397 l 90 397 l 90 396 m 78 383 l 76 383 l 76 385 l 78 385 l 78 383 m 63 368 l 61 368 l 61 369 l 63 369 l 63 368 m 50 356 l 49 356 l 49 357 l 50 357 l 50 356 m 35 340 l 33 340 l 33 342 l 35 342 l 35 340 m 22 328 l 21 328 l 21 329 l 22 329 l 22 328 m 7 313 l 6 313 l 6 314 l 7 314 l 7 313 m 111 415 l 110 415 l 110 417 l 111 417 l 111 415 m 99 403 l 97 403 l 97 404 l 99 404 l 99 403 m 83 388 l 82 388 l 82 389 l 83 389 l 83 388 m 71 375 l 69 375 l 69 376 l 71 376 l 71 375 m 56 360 l 54 360 l 54 361 l 56 361 l 56 360 m 43 347 l 42 347 l 42 349 l 43 349 l 43 347 m 28 332 l 26 332 l 26 333 l 28 333 l 28 332 m 15 319 l 14 319 l 14 321 l 15 321 l 15 319 m 104 407 l 103 407 l 103 408 l 104 408 l 104 407 m 92 394 l 90 394 l 90 396 l 92 396 l 92 394 m 76 379 l 75 379 l 75 381 l 76 381 l 76 379 m 64 367 l 63 367 l 63 368 l 64 368 l 64 367 m 49 351 l 47 351 l 47 353 l 49 353 l 49 351 m 36 339 l 35 339 l 35 340 l 36 340 l 36 339 m 21 324 l 19 324 l 19 325 l 21 325 l 21 324 m 8 311 l 7 311 l 7 313 l 8 313 l 8 311 m 113 414 l 111 414 l 111 415 l 113 415 l 113 414 m 97 399 l 96 399 l 96 400 l 97 400 l 97 399 m 85 386 l 83 386 l 83 388 l 85 388 l 85 386 m 69 371 l 68 371 l 68 372 l 69 372 l 69 371 m 57 358 l 56 358 l 56 360 l 57 360 l 57 358 m 42 343 l 40 343 l 40 344 l 42 344 l 42 343 m 29 331 l 28 331 l 28 332 l 29 332 l 29 331 m 14 315 l 13 315 l 13 317 l 14 317 l 14 315 m 1 303 l 0 303 l 0 304 l 1 304 l 1 303 m 106 406 l 104 406 l 104 407 l 106 407 l 106 406 m 90 390 l 89 390 l 89 392 l 90 392 l 90 390 m 78 378 l 76 378 l 76 379 l 78 379 l 78 378 m 63 363 l 61 363 l 61 364 l 63 364 l 63 363 m 50 350 l 49 350 l 49 351 l 50 351 l 50 350 m 35 335 l 33 335 l 33 336 l 35 336 l 35 335 m 22 322 l 21 322 l 21 324 l 22 324 l 22 322 m 7 307 l 6 307 l 6 308 l 7 308 l 7 307 m 111 410 l 110 410 l 110 411 l 111 411 l 111 410 m 99 397 l 97 397 l 97 399 l 99 399 l 99 397 m 83 382 l 82 382 l 82 383 l 83 383 l 83 382 m 71 369 l 69 369 l 69 371 l 71 371 l 71 369 m 56 354 l 54 354 l 54 356 l 56 356 l 56 354 m 43 342 l 42 342 l 42 343 l 43 343 l 43 342 m 28 326 l 26 326 l 26 328 l 28 328 l 28 326 m 15 314 l 14 314 l 14 315 l 15 315 l 15 314 m 104 401 l 103 401 l 103 403 l 104 403 l 104 401 m 92 389 l 90 389 l 90 390 l 92 390 l 92 389 m 76 374 l 75 374 l 75 375 l 76 375 l 76 374 m 64 361 l 63 361 l 63 363 l 64 363 l 64 361 m 49 346 l 47 346 l 47 347 l 49 347 l 49 346 m 36 333 l 35 333 l 35 335 l 36 335 l 36 333 m 21 318 l 19 318 l 19 319 l 21 319 l 21 318 m 8 306 l 7 306 l 7 307 l 8 307 l 8 306 m 113 408 l 111 408 l 111 410 l 113 410 l 113 408 m 97 393 l 96 393 l 96 394 l 97 394 l 97 393 m 85 381 l 83 381 l 83 382 l 85 382 l 85 381 m 69 365 l 68 365 l 68 367 l 69 367 l 69 365 m 57 353 l 56 353 l 56 354 l 57 354 l 57 353 m 42 338 l 40 338 l 40 339 l 42 339 l 42 338 m 29 325 l 28 325 l 28 326 l 29 326 l 29 325 m 14 310 l 13 310 l 13 311 l 14 311 l 14 310 m 1 297 l 0 297 l 0 299 l 1 299 l 1 297 m 118 413 l 117 413 l 117 414 l 118 414 l 118 413 m 106 400 l 104 400 l 104 401 l 106 401 l 106 400 m 90 385 l 89 385 l 89 386 l 90 386 l 90 385 m 78 372 l 76 372 l 76 374 l 78 374 l 78 372 m 63 357 l 61 357 l 61 358 l 63 358 l 63 357 m 50 344 l 49 344 l 49 346 l 50 346 l 50 344 m 35 329 l 33 329 l 33 331 l 35 331 l 35 329 m 22 317 l 21 317 l 21 318 l 22 318 l 22 317 m 7 301 l 6 301 l 6 303 l 7 303 l 7 301 m 111 404 l 110 404 l 110 406 l 111 406 l 111 404 m 99 392 l 97 392 l 97 393 l 99 393 l 99 392 m 83 376 l 82 376 l 82 378 l 83 378 l 83 376 m 71 364 l 69 364 l 69 365 l 71 365 l 71 364 m 56 349 l 54 349 l 54 350 l 56 350 l 56 349 m 43 336 l 42 336 l 42 338 l 43 338 l 43 336 m 28 321 l 26 321 l 26 322 l 28 322 l 28 321 m 15 308 l 14 308 l 14 310 l 15 310 l 15 308 m 119 411 l 118 411 l 118 413 l 119 413 l 119 411 m 104 396 l 103 396 l 103 397 l 104 397 l 104 396 m 92 383 l 90 383 l 90 385 l 92 385 l 92 383 m 76 368 l 75 368 l 75 369 l 76 369 l 76 368 m 64 356 l 63 356 l 63 357 l 64 357 l 64 356 m 49 340 l 47 340 l 47 342 l 49 342 l 49 340 m 36 328 l 35 328 l 35 329 l 36 329 l 36 328 m 21 313 l 19 313 l 19 314 l 21 314 l 21 313 m 8 300 l 7 300 l 7 301 l 8 301 l 8 300 m 125 415 l 124 415 l 124 417 l 125 417 l 125 415 m 113 403 l 111 403 l 111 404 l 113 404 l 113 403 m 97 388 l 96 388 l 96 389 l 97 389 l 97 388 m 85 375 l 83 375 l 83 376 l 85 376 l 85 375 m 69 360 l 68 360 l 68 361 l 69 361 l 69 360 m 57 347 l 56 347 l 56 349 l 57 349 l 57 347 m 42 332 l 40 332 l 40 333 l 42 333 l 42 332 m 29 319 l 28 319 l 28 321 l 29 321 l 29 319 m 14 304 l 13 304 l 13 306 l 14 306 l 14 304 m 1 292 l 0 292 l 0 293 l 1 293 l 1 292 m 118 407 l 117 407 l 117 408 l 118 408 l 118 407 m 106 394 l 104 394 l 104 396 l 106 396 l 106 394 m 90 379 l 89 379 l 89 381 l 90 381 l 90 379 m 78 367 l 76 367 l 76 368 l 78 368 l 78 367 m 63 351 l 61 351 l 61 353 l 63 353 l 63 351 m 50 339 l 49 339 l 49 340 l 50 340 l 50 339 m 35 324 l 33 324 l 33 325 l 35 325 l 35 324 m 22 311 l 21 311 l 21 313 l 22 313 l 22 311 m 7 296 l 6 296 l 6 297 l 7 297 l 7 296 m 126 414 l 125 414 l 125 415 l 126 415 l 126 414 m 111 399 l 110 399 l 110 400 l 111 400 l 111 399 m 99 386 l 97 386 l 97 388 l 99 388 l 99 386 m 83 371 l 82 371 l 82 372 l 83 372 l 83 371 m 71 358 l 69 358 l 69 360 l 71 360 l 71 358 m 56 343 l 54 343 l 54 344 l 56 344 l 56 343 m 43 331 l 42 331 l 42 332 l 43 332 l 43 331 m 28 315 l 26 315 l 26 317 l 28 317 l 28 315 m 15 303 l 14 303 l 14 304 l 15 304 l 15 303 m 119 406 l 118 406 l 118 407 l 119 407 l 119 406 m 104 390 l 103 390 l 103 392 l 104 392 l 104 390 m 92 378 l 90 378 l 90 379 l 92 379 l 92 378 m 76 363 l 75 363 l 75 364 l 76 364 l 76 363 m 64 350 l 63 350 l 63 351 l 64 351 l 64 350 m 49 335 l 47 335 l 47 336 l 49 336 l 49 335 m 36 322 l 35 322 l 35 324 l 36 324 l 36 322 m 21 307 l 19 307 l 19 308 l 21 308 l 21 307 m 8 294 l 7 294 l 7 296 l 8 296 l 8 294 m 125 410 l 124 410 l 124 411 l 125 411 l 125 410 m 113 397 l 111 397 l 111 399 l 113 399 l 113 397 m 97 382 l 96 382 l 96 383 l 97 383 l 97 382 m 85 369 l 83 369 l 83 371 l 85 371 l 85 369 m 69 354 l 68 354 l 68 356 l 69 356 l 69 354 m 57 342 l 56 342 l 56 343 l 57 343 l 57 342 m 42 326 l 40 326 l 40 328 l 42 328 l 42 326 m 29 314 l 28 314 l 28 315 l 29 315 l 29 314 m 14 299 l 13 299 l 13 300 l 14 300 l 14 299 m 1 286 l 0 286 l 0 288 l 1 288 l 1 286 m 118 401 l 117 401 l 117 403 l 118 403 l 118 401 m 106 389 l 104 389 l 104 390 l 106 390 l 106 389 m 90 374 l 89 374 l 89 375 l 90 375 l 90 374 m 78 361 l 76 361 l 76 363 l 78 363 l 78 361 m 63 346 l 61 346 l 61 347 l 63 347 l 63 346 m 50 333 l 49 333 l 49 335 l 50 335 l 50 333 m 35 318 l 33 318 l 33 319 l 35 319 l 35 318 m 22 306 l 21 306 l 21 307 l 22 307 l 22 306 m 7 290 l 6 290 l 6 292 l 7 292 l 7 290 m 126 408 l 125 408 l 125 410 l 126 410 l 126 408 m 111 393 l 110 393 l 110 394 l 111 394 l 111 393 m 99 381 l 97 381 l 97 382 l 99 382 l 99 381 m 83 365 l 82 365 l 82 367 l 83 367 l 83 365 m 71 353 l 69 353 l 69 354 l 71 354 l 71 353 m 56 338 l 54 338 l 54 339 l 56 339 l 56 338 m 43 325 l 42 325 l 42 326 l 43 326 l 43 325 m 28 310 l 26 310 l 26 311 l 28 311 l 28 310 m 15 297 l 14 297 l 14 299 l 15 299 l 15 297 m 132 413 l 131 413 l 131 414 l 132 414 l 132 413 m 119 400 l 118 400 l 118 401 l 119 401 l 119 400 m 104 385 l 103 385 l 103 386 l 104 386 l 104 385 m 92 372 l 90 372 l 90 374 l 92 374 l 92 372 m 76 357 l 75 357 l 75 358 l 76 358 l 76 357 m 64 344 l 63 344 l 63 346 l 64 346 l 64 344 m 49 329 l 47 329 l 47 331 l 49 331 l 49 329 m 36 317 l 35 317 l 35 318 l 36 318 l 36 317 m 21 301 l 19 301 l 19 303 l 21 303 l 21 301 m 8 289 l 7 289 l 7 290 l 8 290 l 8 289 m 125 404 l 124 404 l 124 406 l 125 406 l 125 404 m 113 392 l 111 392 l 111 393 l 113 393 l 113 392 m 97 376 l 96 376 l 96 378 l 97 378 l 97 376 m 85 364 l 83 364 l 83 365 l 85 365 l 85 364 m 69 349 l 68 349 l 68 350 l 69 350 l 69 349 m 57 336 l 56 336 l 56 338 l 57 338 l 57 336 m 42 321 l 40 321 l 40 322 l 42 322 l 42 321 m 29 308 l 28 308 l 28 310 l 29 310 l 29 308 m 14 293 l 13 293 l 13 294 l 14 294 l 14 293 m 1 281 l 0 281 l 0 282 l 1 282 l 1 281 m 133 411 l 132 411 l 132 413 l 133 413 l 133 411 m 118 396 l 117 396 l 117 397 l 118 397 l 118 396 m 106 383 l 104 383 l 104 385 l 106 385 l 106 383 m 90 368 l 89 368 l 89 369 l 90 369 l 90 368 m 78 356 l 76 356 l 76 357 l 78 357 l 78 356 m 63 340 l 61 340 l 61 342 l 63 342 l 63 340 m 50 328 l 49 328 l 49 329 l 50 329 l 50 328 m 35 313 l 33 313 l 33 314 l 35 314 l 35 313 m 22 300 l 21 300 l 21 301 l 22 301 l 22 300 m 7 285 l 6 285 l 6 286 l 7 286 l 7 285 m 139 415 l 138 415 l 138 417 l 139 417 l 139 415 m 126 403 l 125 403 l 125 404 l 126 404 l 126 403 m 111 388 l 110 388 l 110 389 l 111 389 l 111 388 m 99 375 l 97 375 l 97 376 l 99 376 l 99 375 m 83 360 l 82 360 l 82 361 l 83 361 l 83 360 m 71 347 l 69 347 l 69 349 l 71 349 l 71 347 m 56 332 l 54 332 l 54 333 l 56 333 l 56 332 m 43 319 l 42 319 l 42 321 l 43 321 l 43 319 m 28 304 l 26 304 l 26 306 l 28 306 l 28 304 m 15 292 l 14 292 l 14 293 l 15 293 l 15 292 m 132 407 l 131 407 l 131 408 l 132 408 l 132 407 m 119 394 l 118 394 l 118 396 l 119 396 l 119 394 m 104 379 l 103 379 l 103 381 l 104 381 l 104 379 m 92 367 l 90 367 l 90 368 l 92 368 l 92 367 m 76 351 l 75 351 l 75 353 l 76 353 l 76 351 m 64 339 l 63 339 l 63 340 l 64 340 l 64 339 m 49 324 l 47 324 l 47 325 l 49 325 l 49 324 m 36 311 l 35 311 l 35 313 l 36 313 l 36 311 m 21 296 l 19 296 l 19 297 l 21 297 l 21 296 m 8 283 l 7 283 l 7 285 l 8 285 l 8 283 m 125 399 l 124 399 l 124 400 l 125 400 l 125 399 m 113 386 l 111 386 l 111 388 l 113 388 l 113 386 m 97 371 l 96 371 l 96 372 l 97 372 l 97 371 m 85 358 l 83 358 l 83 360 l 85 360 l 85 358 m 69 343 l 68 343 l 68 344 l 69 344 l 69 343 m 57 331 l 56 331 l 56 332 l 57 332 l 57 331 m 42 315 l 40 315 l 40 317 l 42 317 l 42 315 m 29 303 l 28 303 l 28 304 l 29 304 l 29 303 m 14 288 l 13 288 l 13 289 l 14 289 l 14 288 m 133 406 l 132 406 l 132 407 l 133 407 l 133 406 m 118 390 l 117 390 l 117 392 l 118 392 l 118 390 m 106 378 l 104 378 l 104 379 l 106 379 l 106 378 m 90 363 l 89 363 l 89 364 l 90 364 l 90 363 m 78 350 l 76 350 l 76 351 l 78 351 l 78 350 m 63 335 l 61 335 l 61 336 l 63 336 l 63 335 m 50 322 l 49 322 l 49 324 l 50 324 l 50 322 m 35 307 l 33 307 l 33 308 l 35 308 l 35 307 m 22 294 l 21 294 l 21 296 l 22 296 l 22 294 m 7 279 l 6 279 l 6 281 l 7 281 l 7 279 m 139 410 l 138 410 l 138 411 l 139 411 l 139 410 m 126 397 l 125 397 l 125 399 l 126 399 l 126 397 m 111 382 l 110 382 l 110 383 l 111 383 l 111 382 m 99 369 l 97 369 l 97 371 l 99 371 l 99 369 m 83 354 l 82 354 l 82 356 l 83 356 l 83 354 m 71 342 l 69 342 l 69 343 l 71 343 l 71 342 m 56 326 l 54 326 l 54 328 l 56 328 l 56 326 m 43 314 l 42 314 l 42 315 l 43 315 l 43 314 m 28 299 l 26 299 l 26 300 l 28 300 l 28 299 m 15 286 l 14 286 l 14 288 l 15 288 l 15 286 m 132 401 l 131 401 l 131 403 l 132 403 l 132 401 m 119 389 l 118 389 l 118 390 l 119 390 l 119 389 m 104 374 l 103 374 l 103 375 l 104 375 l 104 374 m 92 361 l 90 361 l 90 363 l 92 363 l 92 361 m 76 346 l 75 346 l 75 347 l 76 347 l 76 346 m 64 333 l 63 333 l 63 335 l 64 335 l 64 333 m 49 318 l 47 318 l 47 319 l 49 319 l 49 318 m 36 306 l 35 306 l 35 307 l 36 307 l 36 306 m 21 290 l 19 290 l 19 292 l 21 292 l 21 290 m 8 278 l 7 278 l 7 279 l 8 279 l 8 278 m 125 393 l 124 393 l 124 394 l 125 394 l 125 393 m 113 381 l 111 381 l 111 382 l 113 382 l 113 381 m 97 365 l 96 365 l 96 367 l 97 367 l 97 365 m 85 353 l 83 353 l 83 354 l 85 354 l 85 353 m 69 338 l 68 338 l 68 339 l 69 339 l 69 338 m 57 325 l 56 325 l 56 326 l 57 326 l 57 325 m 42 310 l 40 310 l 40 311 l 42 311 l 42 310 m 29 297 l 28 297 l 28 299 l 29 299 l 29 297 m 14 282 l 13 282 l 13 283 l 14 283 l 14 282 m 133 400 l 132 400 l 132 401 l 133 401 l 133 400 m 118 385 l 117 385 l 117 386 l 118 386 l 118 385 m 106 372 l 104 372 l 104 374 l 106 374 l 106 372 m 90 357 l 89 357 l 89 358 l 90 358 l 90 357 m 78 344 l 76 344 l 76 346 l 78 346 l 78 344 m 63 329 l 61 329 l 61 331 l 63 331 l 63 329 m 50 317 l 49 317 l 49 318 l 50 318 l 50 317 m 35 301 l 33 301 l 33 303 l 35 303 l 35 301 m 22 289 l 21 289 l 21 290 l 22 290 l 22 289 m 139 404 l 138 404 l 138 406 l 139 406 l 139 404 m 126 392 l 125 392 l 125 393 l 126 393 l 126 392 m 111 376 l 110 376 l 110 378 l 111 378 l 111 376 m 99 364 l 97 364 l 97 365 l 99 365 l 99 364 m 83 349 l 82 349 l 82 350 l 83 350 l 83 349 m 71 336 l 69 336 l 69 338 l 71 338 l 71 336 m 56 321 l 54 321 l 54 322 l 56 322 l 56 321 m 43 308 l 42 308 l 42 310 l 43 310 l 43 308 m 28 293 l 26 293 l 26 294 l 28 294 l 28 293 m 15 281 l 14 281 l 14 282 l 15 282 l 15 281 m 132 396 l 131 396 l 131 397 l 132 397 l 132 396 m 119 383 l 118 383 l 118 385 l 119 385 l 119 383 m 104 368 l 103 368 l 103 369 l 104 369 l 104 368 m 92 356 l 90 356 l 90 357 l 92 357 l 92 356 m 76 340 l 75 340 l 75 342 l 76 342 l 76 340 m 64 328 l 63 328 l 63 329 l 64 329 l 64 328 m 49 313 l 47 313 l 47 314 l 49 314 l 49 313 m 36 300 l 35 300 l 35 301 l 36 301 l 36 300 m 21 285 l 19 285 l 19 286 l 21 286 l 21 285 m 125 388 l 124 388 l 124 389 l 125 389 l 125 388 m 113 375 l 111 375 l 111 376 l 113 376 l 113 375 m 97 360 l 96 360 l 96 361 l 97 361 l 97 360 m 85 347 l 83 347 l 83 349 l 85 349 l 85 347 m 69 332 l 68 332 l 68 333 l 69 333 l 69 332 m 57 319 l 56 319 l 56 321 l 57 321 l 57 319 m 42 304 l 40 304 l 40 306 l 42 306 l 42 304 m 29 292 l 28 292 l 28 293 l 29 293 l 29 292 m 133 394 l 132 394 l 132 396 l 133 396 l 133 394 m 118 379 l 117 379 l 117 381 l 118 381 l 118 379 m 106 367 l 104 367 l 104 368 l 106 368 l 106 367 m 90 351 l 89 351 l 89 353 l 90 353 l 90 351 m 78 339 l 76 339 l 76 340 l 78 340 l 78 339 m 63 324 l 61 324 l 61 325 l 63 325 l 63 324 m 50 311 l 49 311 l 49 313 l 50 313 l 50 311 m 35 296 l 33 296 l 33 297 l 35 297 l 35 296 m 22 283 l 21 283 l 21 285 l 22 285 l 22 283 m 139 399 l 138 399 l 138 400 l 139 400 l 139 399 m 126 386 l 125 386 l 125 388 l 126 388 l 126 386 m 111 371 l 110 371 l 110 372 l 111 372 l 111 371 m 99 358 l 97 358 l 97 360 l 99 360 l 99 358 m 83 343 l 82 343 l 82 344 l 83 344 l 83 343 m 71 331 l 69 331 l 69 332 l 71 332 l 71 331 m 56 315 l 54 315 l 54 317 l 56 317 l 56 315 m 43 303 l 42 303 l 42 304 l 43 304 l 43 303 m 28 288 l 26 288 l 26 289 l 28 289 l 28 288 m 132 390 l 131 390 l 131 392 l 132 392 l 132 390 m 119 378 l 118 378 l 118 379 l 119 379 l 119 378 m 104 363 l 103 363 l 103 364 l 104 364 l 104 363 m 92 350 l 90 350 l 90 351 l 92 351 l 92 350 m 76 335 l 75 335 l 75 336 l 76 336 l 76 335 m 64 322 l 63 322 l 63 324 l 64 324 l 64 322 m 49 307 l 47 307 l 47 308 l 49 308 l 49 307 m 36 294 l 35 294 l 35 296 l 36 296 l 36 294 m 21 279 l 19 279 l 19 281 l 21 281 l 21 279 m 125 382 l 124 382 l 124 383 l 125 383 l 125 382 m 113 369 l 111 369 l 111 371 l 113 371 l 113 369 m 97 354 l 96 354 l 96 356 l 97 356 l 97 354 m 85 342 l 83 342 l 83 343 l 85 343 l 85 342 m 69 326 l 68 326 l 68 328 l 69 328 l 69 326 m 57 314 l 56 314 l 56 315 l 57 315 l 57 314 m 42 299 l 40 299 l 40 300 l 42 300 l 42 299 m 29 286 l 28 286 l 28 288 l 29 288 l 29 286 m 133 389 l 132 389 l 132 390 l 133 390 l 133 389 m 118 374 l 117 374 l 117 375 l 118 375 l 118 374 m 106 361 l 104 361 l 104 363 l 106 363 l 106 361 m 90 346 l 89 346 l 89 347 l 90 347 l 90 346 m 78 333 l 76 333 l 76 335 l 78 335 l 78 333 m 63 318 l 61 318 l 61 319 l 63 319 l 63 318 m 50 306 l 49 306 l 49 307 l 50 307 l 50 306 m 35 290 l 33 290 l 33 292 l 35 292 l 35 290 m 22 278 l 21 278 l 21 279 l 22 279 l 22 278 m 139 393 l 138 393 l 138 394 l 139 394 l 139 393 m 126 381 l 125 381 l 125 382 l 126 382 l 126 381 m 111 365 l 110 365 l 110 367 l 111 367 l 111 365 m 99 353 l 97 353 l 97 354 l 99 354 l 99 353 m 83 338 l 82 338 l 82 339 l 83 339 l 83 338 m 71 325 l 69 325 l 69 326 l 71 326 l 71 325 m 56 310 l 54 310 l 54 311 l 56 311 l 56 310 m 43 297 l 42 297 l 42 299 l 43 299 l 43 297 m 28 282 l 26 282 l 26 283 l 28 283 l 28 282 m 132 385 l 131 385 l 131 386 l 132 386 l 132 385 m 119 372 l 118 372 l 118 374 l 119 374 l 119 372 m 104 357 l 103 357 l 103 358 l 104 358 l 104 357 m 92 344 l 90 344 l 90 346 l 92 346 l 92 344 m 76 329 l 75 329 l 75 331 l 76 331 l 76 329 m 64 317 l 63 317 l 63 318 l 64 318 l 64 317 m 49 301 l 47 301 l 47 303 l 49 303 l 49 301 m 36 289 l 35 289 l 35 290 l 36 290 l 36 289 m 125 376 l 124 376 l 124 378 l 125 378 l 125 376 m 113 364 l 111 364 l 111 365 l 113 365 l 113 364 m 97 349 l 96 349 l 96 350 l 97 350 l 97 349 m 85 336 l 83 336 l 83 338 l 85 338 l 85 336 m 69 321 l 68 321 l 68 322 l 69 322 l 69 321 m 57 308 l 56 308 l 56 310 l 57 310 l 57 308 m 42 293 l 40 293 l 40 294 l 42 294 l 42 293 m 29 281 l 28 281 l 28 282 l 29 282 l 29 281 m 133 383 l 132 383 l 132 385 l 133 385 l 133 383 m 118 368 l 117 368 l 117 369 l 118 369 l 118 368 m 106 356 l 104 356 l 104 357 l 106 357 l 106 356 m 90 340 l 89 340 l 89 342 l 90 342 l 90 340 m 78 328 l 76 328 l 76 329 l 78 329 l 78 328 m 63 313 l 61 313 l 61 314 l 63 314 l 63 313 m 50 300 l 49 300 l 49 301 l 50 301 l 50 300 m 35 285 l 33 285 l 33 286 l 35 286 l 35 285 m 139 388 l 138 388 l 138 389 l 139 389 l 139 388 m 126 375 l 125 375 l 125 376 l 126 376 l 126 375 m 111 360 l 110 360 l 110 361 l 111 361 l 111 360 m 99 347 l 97 347 l 97 349 l 99 349 l 99 347 m 83 332 l 82 332 l 82 333 l 83 333 l 83 332 m 71 319 l 69 319 l 69 321 l 71 321 l 71 319 m 56 304 l 54 304 l 54 306 l 56 306 l 56 304 m 43 292 l 42 292 l 42 293 l 43 293 l 43 292 m 132 379 l 131 379 l 131 381 l 132 381 l 132 379 m 119 367 l 118 367 l 118 368 l 119 368 l 119 367 m 104 351 l 103 351 l 103 353 l 104 353 l 104 351 m 92 339 l 90 339 l 90 340 l 92 340 l 92 339 m 76 324 l 75 324 l 75 325 l 76 325 l 76 324 m 64 311 l 63 311 l 63 313 l 64 313 l 64 311 m 49 296 l 47 296 l 47 297 l 49 297 l 49 296 m 36 283 l 35 283 l 35 285 l 36 285 l 36 283 m 125 371 l 124 371 l 124 372 l 125 372 l 125 371 m 113 358 l 111 358 l 111 360 l 113 360 l 113 358 m 97 343 l 96 343 l 96 344 l 97 344 l 97 343 m 85 331 l 83 331 l 83 332 l 85 332 l 85 331 m 69 315 l 68 315 l 68 317 l 69 317 l 69 315 m 57 303 l 56 303 l 56 304 l 57 304 l 57 303 m 42 288 l 40 288 l 40 289 l 42 289 l 42 288 m 133 378 l 132 378 l 132 379 l 133 379 l 133 378 m 118 363 l 117 363 l 117 364 l 118 364 l 118 363 m 106 350 l 104 350 l 104 351 l 106 351 l 106 350 m 90 335 l 89 335 l 89 336 l 90 336 l 90 335 m 78 322 l 76 322 l 76 324 l 78 324 l 78 322 m 63 307 l 61 307 l 61 308 l 63 308 l 63 307 m 50 294 l 49 294 l 49 296 l 50 296 l 50 294 m 35 279 l 33 279 l 33 281 l 35 281 l 35 279 m 139 382 l 138 382 l 138 383 l 139 383 l 139 382 m 126 369 l 125 369 l 125 371 l 126 371 l 126 369 m 111 354 l 110 354 l 110 356 l 111 356 l 111 354 m 99 342 l 97 342 l 97 343 l 99 343 l 99 342 m 83 326 l 82 326 l 82 328 l 83 328 l 83 326 m 71 314 l 69 314 l 69 315 l 71 315 l 71 314 m 56 299 l 54 299 l 54 300 l 56 300 l 56 299 m 43 286 l 42 286 l 42 288 l 43 288 l 43 286 m 132 374 l 131 374 l 131 375 l 132 375 l 132 374 m 119 361 l 118 361 l 118 363 l 119 363 l 119 361 m 104 346 l 103 346 l 103 347 l 104 347 l 104 346 m 92 333 l 90 333 l 90 335 l 92 335 l 92 333 m 76 318 l 75 318 l 75 319 l 76 319 l 76 318 m 64 306 l 63 306 l 63 307 l 64 307 l 64 306 m 49 290 l 47 290 l 47 292 l 49 292 l 49 290 m 36 278 l 35 278 l 35 279 l 36 279 l 36 278 m 125 365 l 124 365 l 124 367 l 125 367 l 125 365 m 113 353 l 111 353 l 111 354 l 113 354 l 113 353 m 97 338 l 96 338 l 96 339 l 97 339 l 97 338 m 85 325 l 83 325 l 83 326 l 85 326 l 85 325 m 69 310 l 68 310 l 68 311 l 69 311 l 69 310 m 57 297 l 56 297 l 56 299 l 57 299 l 57 297 m 42 282 l 40 282 l 40 283 l 42 283 l 42 282 m 133 372 l 132 372 l 132 374 l 133 374 l 133 372 m 118 357 l 117 357 l 117 358 l 118 358 l 118 357 m 106 344 l 104 344 l 104 346 l 106 346 l 106 344 m 90 329 l 89 329 l 89 331 l 90 331 l 90 329 m 78 317 l 76 317 l 76 318 l 78 318 l 78 317 m 63 301 l 61 301 l 61 303 l 63 303 l 63 301 m 50 289 l 49 289 l 49 290 l 50 290 l 50 289 m 139 376 l 138 376 l 138 378 l 139 378 l 139 376 m 126 364 l 125 364 l 125 365 l 126 365 l 126 364 m 111 349 l 110 349 l 110 350 l 111 350 l 111 349 m 99 336 l 97 336 l 97 338 l 99 338 l 99 336 m 83 321 l 82 321 l 82 322 l 83 322 l 83 321 m 71 308 l 69 308 l 69 310 l 71 310 l 71 308 m 56 293 l 54 293 l 54 294 l 56 294 l 56 293 m 43 281 l 42 281 l 42 282 l 43 282 l 43 281 m 132 368 l 131 368 l 131 369 l 132 369 l 132 368 m 119 356 l 118 356 l 118 357 l 119 357 l 119 356 m 104 340 l 103 340 l 103 342 l 104 342 l 104 340 m 92 328 l 90 328 l 90 329 l 92 329 l 92 328 m 76 313 l 75 313 l 75 314 l 76 314 l 76 313 m 64 300 l 63 300 l 63 301 l 64 301 l 64 300 m 49 285 l 47 285 l 47 286 l 49 286 l 49 285 m 125 360 l 124 360 l 124 361 l 125 361 l 125 360 m 113 347 l 111 347 l 111 349 l 113 349 l 113 347 m 97 332 l 96 332 l 96 333 l 97 333 l 97 332 m 85 319 l 83 319 l 83 321 l 85 321 l 85 319 m 69 304 l 68 304 l 68 306 l 69 306 l 69 304 m 57 292 l 56 292 l 56 293 l 57 293 l 57 292 m 133 367 l 132 367 l 132 368 l 133 368 l 133 367 m 118 351 l 117 351 l 117 353 l 118 353 l 118 351 m 106 339 l 104 339 l 104 340 l 106 340 l 106 339 m 90 324 l 89 324 l 89 325 l 90 325 l 90 324 m 78 311 l 76 311 l 76 313 l 78 313 l 78 311 m 63 296 l 61 296 l 61 297 l 63 297 l 63 296 m 50 283 l 49 283 l 49 285 l 50 285 l 50 283 m 139 371 l 138 371 l 138 372 l 139 372 l 139 371 m 126 358 l 125 358 l 125 360 l 126 360 l 126 358 m 111 343 l 110 343 l 110 344 l 111 344 l 111 343 m 99 331 l 97 331 l 97 332 l 99 332 l 99 331 m 83 315 l 82 315 l 82 317 l 83 317 l 83 315 m 71 303 l 69 303 l 69 304 l 71 304 l 71 303 m 56 288 l 54 288 l 54 289 l 56 289 l 56 288 m 132 363 l 131 363 l 131 364 l 132 364 l 132 363 m 119 350 l 118 350 l 118 351 l 119 351 l 119 350 m 104 335 l 103 335 l 103 336 l 104 336 l 104 335 m 92 322 l 90 322 l 90 324 l 92 324 l 92 322 m 76 307 l 75 307 l 75 308 l 76 308 l 76 307 m 64 294 l 63 294 l 63 296 l 64 296 l 64 294 m 49 279 l 47 279 l 47 281 l 49 281 l 49 279 m 125 354 l 124 354 l 124 356 l 125 356 l 125 354 m 113 342 l 111 342 l 111 343 l 113 343 l 113 342 m 97 326 l 96 326 l 96 328 l 97 328 l 97 326 m 85 314 l 83 314 l 83 315 l 85 315 l 85 314 m 69 299 l 68 299 l 68 300 l 69 300 l 69 299 m 57 286 l 56 286 l 56 288 l 57 288 l 57 286 m 133 361 l 132 361 l 132 363 l 133 363 l 133 361 m 118 346 l 117 346 l 117 347 l 118 347 l 118 346 m 106 333 l 104 333 l 104 335 l 106 335 l 106 333 m 90 318 l 89 318 l 89 319 l 90 319 l 90 318 m 78 306 l 76 306 l 76 307 l 78 307 l 78 306 m 63 290 l 61 290 l 61 292 l 63 292 l 63 290 m 50 278 l 49 278 l 49 279 l 50 279 l 50 278 m 139 365 l 138 365 l 138 367 l 139 367 l 139 365 m 126 353 l 125 353 l 125 354 l 126 354 l 126 353 m 111 338 l 110 338 l 110 339 l 111 339 l 111 338 m 99 325 l 97 325 l 97 326 l 99 326 l 99 325 m 83 310 l 82 310 l 82 311 l 83 311 l 83 310 m 71 297 l 69 297 l 69 299 l 71 299 l 71 297 m 56 282 l 54 282 l 54 283 l 56 283 l 56 282 m 132 357 l 131 357 l 131 358 l 132 358 l 132 357 m 119 344 l 118 344 l 118 346 l 119 346 l 119 344 m 104 329 l 103 329 l 103 331 l 104 331 l 104 329 m 92 317 l 90 317 l 90 318 l 92 318 l 92 317 m 76 301 l 75 301 l 75 303 l 76 303 l 76 301 m 64 289 l 63 289 l 63 290 l 64 290 l 64 289 m 125 349 l 124 349 l 124 350 l 125 350 l 125 349 m 113 336 l 111 336 l 111 338 l 113 338 l 113 336 m 97 321 l 96 321 l 96 322 l 97 322 l 97 321 m 85 308 l 83 308 l 83 310 l 85 310 l 85 308 m 69 293 l 68 293 l 68 294 l 69 294 l 69 293 m 57 281 l 56 281 l 56 282 l 57 282 l 57 281 m 133 356 l 132 356 l 132 357 l 133 357 l 133 356 m 118 340 l 117 340 l 117 342 l 118 342 l 118 340 m 106 328 l 104 328 l 104 329 l 106 329 l 106 328 m 90 313 l 89 313 l 89 314 l 90 314 l 90 313 m 78 300 l 76 300 l 76 301 l 78 301 l 78 300 m 63 285 l 61 285 l 61 286 l 63 286 l 63 285 m 139 360 l 138 360 l 138 361 l 139 361 l 139 360 m 126 347 l 125 347 l 125 349 l 126 349 l 126 347 m 111 332 l 110 332 l 110 333 l 111 333 l 111 332 m 99 319 l 97 319 l 97 321 l 99 321 l 99 319 m 83 304 l 82 304 l 82 306 l 83 306 l 83 304 m 71 292 l 69 292 l 69 293 l 71 293 l 71 292 m 132 351 l 131 351 l 131 353 l 132 353 l 132 351 m 119 339 l 118 339 l 118 340 l 119 340 l 119 339 m 104 324 l 103 324 l 103 325 l 104 325 l 104 324 m 92 311 l 90 311 l 90 313 l 92 313 l 92 311 m 76 296 l 75 296 l 75 297 l 76 297 l 76 296 m 64 283 l 63 283 l 63 285 l 64 285 l 64 283 m 125 343 l 124 343 l 124 344 l 125 344 l 125 343 m 113 331 l 111 331 l 111 332 l 113 332 l 113 331 m 97 315 l 96 315 l 96 317 l 97 317 l 97 315 m 85 303 l 83 303 l 83 304 l 85 304 l 85 303 m 69 288 l 68 288 l 68 289 l 69 289 l 69 288 m 133 350 l 132 350 l 132 351 l 133 351 l 133 350 m 118 335 l 117 335 l 117 336 l 118 336 l 118 335 m 106 322 l 104 322 l 104 324 l 106 324 l 106 322 m 90 307 l 89 307 l 89 308 l 90 308 l 90 307 m 78 294 l 76 294 l 76 296 l 78 296 l 78 294 m 63 279 l 61 279 l 61 281 l 63 281 l 63 279 m 139 354 l 138 354 l 138 356 l 139 356 l 139 354 m 126 342 l 125 342 l 125 343 l 126 343 l 126 342 m 111 326 l 110 326 l 110 328 l 111 328 l 111 326 m 99 314 l 97 314 l 97 315 l 99 315 l 99 314 m 83 299 l 82 299 l 82 300 l 83 300 l 83 299 m 71 286 l 69 286 l 69 288 l 71 288 l 71 286 m 132 346 l 131 346 l 131 347 l 132 347 l 132 346 m 119 333 l 118 333 l 118 335 l 119 335 l 119 333 m 104 318 l 103 318 l 103 319 l 104 319 l 104 318 m 92 306 l 90 306 l 90 307 l 92 307 l 92 306 m 76 290 l 75 290 l 75 292 l 76 292 l 76 290 m 64 278 l 63 278 l 63 279 l 64 279 l 64 278 m 125 338 l 124 338 l 124 339 l 125 339 l 125 338 m 113 325 l 111 325 l 111 326 l 113 326 l 113 325 m 97 310 l 96 310 l 96 311 l 97 311 l 97 310 m 85 297 l 83 297 l 83 299 l 85 299 l 85 297 m 69 282 l 68 282 l 68 283 l 69 283 l 69 282 m 133 344 l 132 344 l 132 346 l 133 346 l 133 344 m 118 329 l 117 329 l 117 331 l 118 331 l 118 329 m 106 317 l 104 317 l 104 318 l 106 318 l 106 317 m 90 301 l 89 301 l 89 303 l 90 303 l 90 301 m 78 289 l 76 289 l 76 290 l 78 290 l 78 289 m 139 349 l 138 349 l 138 350 l 139 350 l 139 349 m 126 336 l 125 336 l 125 338 l 126 338 l 126 336 m 111 321 l 110 321 l 110 322 l 111 322 l 111 321 m 99 308 l 97 308 l 97 310 l 99 310 l 99 308 m 83 293 l 82 293 l 82 294 l 83 294 l 83 293 m 71 281 l 69 281 l 69 282 l 71 282 l 71 281 m 132 340 l 131 340 l 131 342 l 132 342 l 132 340 m 119 328 l 118 328 l 118 329 l 119 329 l 119 328 m 104 313 l 103 313 l 103 314 l 104 314 l 104 313 m 92 300 l 90 300 l 90 301 l 92 301 l 92 300 m 76 285 l 75 285 l 75 286 l 76 286 l 76 285 m 125 332 l 124 332 l 124 333 l 125 333 l 125 332 m 113 319 l 111 319 l 111 321 l 113 321 l 113 319 m 97 304 l 96 304 l 96 306 l 97 306 l 97 304 m 85 292 l 83 292 l 83 293 l 85 293 l 85 292 m 133 339 l 132 339 l 132 340 l 133 340 l 133 339 m 118 324 l 117 324 l 117 325 l 118 325 l 118 324 m 106 311 l 104 311 l 104 313 l 106 313 l 106 311 m 90 296 l 89 296 l 89 297 l 90 297 l 90 296 m 78 283 l 76 283 l 76 285 l 78 285 l 78 283 m 139 343 l 138 343 l 138 344 l 139 344 l 139 343 m 126 331 l 125 331 l 125 332 l 126 332 l 126 331 m 111 315 l 110 315 l 110 317 l 111 317 l 111 315 m 99 303 l 97 303 l 97 304 l 99 304 l 99 303 m 83 288 l 82 288 l 82 289 l 83 289 l 83 288 m 132 335 l 131 335 l 131 336 l 132 336 l 132 335 m 119 322 l 118 322 l 118 324 l 119 324 l 119 322 m 104 307 l 103 307 l 103 308 l 104 308 l 104 307 m 92 294 l 90 294 l 90 296 l 92 296 l 92 294 m 76 279 l 75 279 l 75 281 l 76 281 l 76 279 m 125 326 l 124 326 l 124 328 l 125 328 l 125 326 m 113 314 l 111 314 l 111 315 l 113 315 l 113 314 m 97 299 l 96 299 l 96 300 l 97 300 l 97 299 m 85 286 l 83 286 l 83 288 l 85 288 l 85 286 m 133 333 l 132 333 l 132 335 l 133 335 l 133 333 m 118 318 l 117 318 l 117 319 l 118 319 l 118 318 m 106 306 l 104 306 l 104 307 l 106 307 l 106 306 m 90 290 l 89 290 l 89 292 l 90 292 l 90 290 m 78 278 l 76 278 l 76 279 l 78 279 l 78 278 m 139 338 l 138 338 l 138 339 l 139 339 l 139 338 m 126 325 l 125 325 l 125 326 l 126 326 l 126 325 m 111 310 l 110 310 l 110 311 l 111 311 l 111 310 m 99 297 l 97 297 l 97 299 l 99 299 l 99 297 m 83 282 l 82 282 l 82 283 l 83 283 l 83 282 m 132 329 l 131 329 l 131 331 l 132 331 l 132 329 m 119 317 l 118 317 l 118 318 l 119 318 l 119 317 m 104 301 l 103 301 l 103 303 l 104 303 l 104 301 m 92 289 l 90 289 l 90 290 l 92 290 l 92 289 m 125 321 l 124 321 l 124 322 l 125 322 l 125 321 m 113 308 l 111 308 l 111 310 l 113 310 l 113 308 m 97 293 l 96 293 l 96 294 l 97 294 l 97 293 m 85 281 l 83 281 l 83 282 l 85 282 l 85 281 m 133 328 l 132 328 l 132 329 l 133 329 l 133 328 m 118 313 l 117 313 l 117 314 l 118 314 l 118 313 m 106 300 l 104 300 l 104 301 l 106 301 l 106 300 m 90 285 l 89 285 l 89 286 l 90 286 l 90 285 m 139 332 l 138 332 l 138 333 l 139 333 l 139 332 m 126 319 l 125 319 l 125 321 l 126 321 l 126 319 m 111 304 l 110 304 l 110 306 l 111 306 l 111 304 m 99 292 l 97 292 l 97 293 l 99 293 l 99 292 m 132 324 l 131 324 l 131 325 l 132 325 l 132 324 m 119 311 l 118 311 l 118 313 l 119 313 l 119 311 m 104 296 l 103 296 l 103 297 l 104 297 l 104 296 m 92 283 l 90 283 l 90 285 l 92 285 l 92 283 m 125 315 l 124 315 l 124 317 l 125 317 l 125 315 m 113 303 l 111 303 l 111 304 l 113 304 l 113 303 m 97 288 l 96 288 l 96 289 l 97 289 l 97 288 m 133 322 l 132 322 l 132 324 l 133 324 l 133 322 m 118 307 l 117 307 l 117 308 l 118 308 l 118 307 m 106 294 l 104 294 l 104 296 l 106 296 l 106 294 m 90 279 l 89 279 l 89 281 l 90 281 l 90 279 m 139 326 l 138 326 l 138 328 l 139 328 l 139 326 m 126 314 l 125 314 l 125 315 l 126 315 l 126 314 m 111 299 l 110 299 l 110 300 l 111 300 l 111 299 m 99 286 l 97 286 l 97 288 l 99 288 l 99 286 m 132 318 l 131 318 l 131 319 l 132 319 l 132 318 m 119 306 l 118 306 l 118 307 l 119 307 l 119 306 m 104 290 l 103 290 l 103 292 l 104 292 l 104 290 m 92 278 l 90 278 l 90 279 l 92 279 l 92 278 m 125 310 l 124 310 l 124 311 l 125 311 l 125 310 m 113 297 l 111 297 l 111 299 l 113 299 l 113 297 m 97 282 l 96 282 l 96 283 l 97 283 l 97 282 m 133 317 l 132 317 l 132 318 l 133 318 l 133 317 m 118 301 l 117 301 l 117 303 l 118 303 l 118 301 m 106 289 l 104 289 l 104 290 l 106 290 l 106 289 m 139 321 l 138 321 l 138 322 l 139 322 l 139 321 m 126 308 l 125 308 l 125 310 l 126 310 l 126 308 m 111 293 l 110 293 l 110 294 l 111 294 l 111 293 m 99 281 l 97 281 l 97 282 l 99 282 l 99 281 m 132 313 l 131 313 l 131 314 l 132 314 l 132 313 m 119 300 l 118 300 l 118 301 l 119 301 l 119 300 m 104 285 l 103 285 l 103 286 l 104 286 l 104 285 m 125 304 l 124 304 l 124 306 l 125 306 l 125 304 m 113 292 l 111 292 l 111 293 l 113 293 l 113 292 m 133 311 l 132 311 l 132 313 l 133 313 l 133 311 m 118 296 l 117 296 l 117 297 l 118 297 l 118 296 m 106 283 l 104 283 l 104 285 l 106 285 l 106 283 m 139 315 l 138 315 l 138 317 l 139 317 l 139 315 m 126 303 l 125 303 l 125 304 l 126 304 l 126 303 m 111 288 l 110 288 l 110 289 l 111 289 l 111 288 m 132 307 l 131 307 l 131 308 l 132 308 l 132 307 m 119 294 l 118 294 l 118 296 l 119 296 l 119 294 m 104 279 l 103 279 l 103 281 l 104 281 l 104 279 m 125 299 l 124 299 l 124 300 l 125 300 l 125 299 m 113 286 l 111 286 l 111 288 l 113 288 l 113 286 m 133 306 l 132 306 l 132 307 l 133 307 l 133 306 m 118 290 l 117 290 l 117 292 l 118 292 l 118 290 m 106 278 l 104 278 l 104 279 l 106 279 l 106 278 m 139 310 l 138 310 l 138 311 l 139 311 l 139 310 m 126 297 l 125 297 l 125 299 l 126 299 l 126 297 m 111 282 l 110 282 l 110 283 l 111 283 l 111 282 m 132 301 l 131 301 l 131 303 l 132 303 l 132 301 m 119 289 l 118 289 l 118 290 l 119 290 l 119 289 m 125 293 l 124 293 l 124 294 l 125 294 l 125 293 m 113 281 l 111 281 l 111 282 l 113 282 l 113 281 m 133 300 l 132 300 l 132 301 l 133 301 l 133 300 m 118 285 l 117 285 l 117 286 l 118 286 l 118 285 m 139 304 l 138 304 l 138 306 l 139 306 l 139 304 m 126 292 l 125 292 l 125 293 l 126 293 l 126 292 m 132 296 l 131 296 l 131 297 l 132 297 l 132 296 m 119 283 l 118 283 l 118 285 l 119 285 l 119 283 m 125 288 l 124 288 l 124 289 l 125 289 l 125 288 m 133 294 l 132 294 l 132 296 l 133 296 l 133 294 m 118 279 l 117 279 l 117 281 l 118 281 l 118 279 m 139 299 l 138 299 l 138 300 l 139 300 l 139 299 m 126 286 l 125 286 l 125 288 l 126 288 l 126 286 m 132 290 l 131 290 l 131 292 l 132 292 l 132 290 m 119 278 l 118 278 l 118 279 l 119 279 l 119 278 m 125 282 l 124 282 l 124 283 l 125 283 l 125 282 m 133 289 l 132 289 l 132 290 l 133 290 l 133 289 m 139 293 l 138 293 l 138 294 l 139 294 l 139 293 m 126 281 l 125 281 l 125 282 l 126 282 l 126 281 m 132 285 l 131 285 l 131 286 l 132 286 l 132 285 m 133 283 l 132 283 l 132 285 l 133 285 l 133 283 m 139 288 l 138 288 l 138 289 l 139 289 l 139 288 m 132 279 l 131 279 l 131 281 l 132 281 l 132 279 m 133 278 l 132 278 l 132 279 l 133 279 l 133 278 m 139 143 l 138 143 l 138 144 l 139 144 l 139 143 m 1 275 l 0 275 l 0 276 l 1 276 l 1 275 m 1 269 l 0 269 l 0 271 l 1 271 l 1 269 m 7 274 l 6 274 l 6 275 l 7 275 l 7 274 m 8 272 l 7 272 l 7 274 l 8 274 l 8 272 m 14 276 l 13 276 l 13 278 l 14 278 l 14 276 m 1 264 l 0 264 l 0 265 l 1 265 l 1 264 m 7 268 l 6 268 l 6 269 l 7 269 l 7 268 m 15 275 l 14 275 l 14 276 l 15 276 l 15 275 m 8 267 l 7 267 l 7 268 l 8 268 l 8 267 m 14 271 l 13 271 l 13 272 l 14 272 l 14 271 m 1 258 l 0 258 l 0 260 l 1 260 l 1 258 m 7 263 l 6 263 l 6 264 l 7 264 l 7 263 m 15 269 l 14 269 l 14 271 l 15 271 l 15 269 m 21 274 l 19 274 l 19 275 l 21 275 l 21 274 m 8 261 l 7 261 l 7 263 l 8 263 l 8 261 m 14 265 l 13 265 l 13 267 l 14 267 l 14 265 m 1 253 l 0 253 l 0 254 l 1 254 l 1 253 m 22 272 l 21 272 l 21 274 l 22 274 l 22 272 m 7 257 l 6 257 l 6 258 l 7 258 l 7 257 m 28 276 l 26 276 l 26 278 l 28 278 l 28 276 m 15 264 l 14 264 l 14 265 l 15 265 l 15 264 m 21 268 l 19 268 l 19 269 l 21 269 l 21 268 m 8 256 l 7 256 l 7 257 l 8 257 l 8 256 m 29 275 l 28 275 l 28 276 l 29 276 l 29 275 m 14 260 l 13 260 l 13 261 l 14 261 l 14 260 m 1 247 l 0 247 l 0 249 l 1 249 l 1 247 m 22 267 l 21 267 l 21 268 l 22 268 l 22 267 m 7 251 l 6 251 l 6 253 l 7 253 l 7 251 m 28 271 l 26 271 l 26 272 l 28 272 l 28 271 m 15 258 l 14 258 l 14 260 l 15 260 l 15 258 m 21 263 l 19 263 l 19 264 l 21 264 l 21 263 m 8 250 l 7 250 l 7 251 l 8 251 l 8 250 m 29 269 l 28 269 l 28 271 l 29 271 l 29 269 m 14 254 l 13 254 l 13 256 l 14 256 l 14 254 m 1 242 l 0 242 l 0 243 l 1 243 l 1 242 m 35 274 l 33 274 l 33 275 l 35 275 l 35 274 m 22 261 l 21 261 l 21 263 l 22 263 l 22 261 m 7 246 l 6 246 l 6 247 l 7 247 l 7 246 m 28 265 l 26 265 l 26 267 l 28 267 l 28 265 m 15 253 l 14 253 l 14 254 l 15 254 l 15 253 m 36 272 l 35 272 l 35 274 l 36 274 l 36 272 m 21 257 l 19 257 l 19 258 l 21 258 l 21 257 m 8 244 l 7 244 l 7 246 l 8 246 l 8 244 m 42 276 l 40 276 l 40 278 l 42 278 l 42 276 m 29 264 l 28 264 l 28 265 l 29 265 l 29 264 m 14 249 l 13 249 l 13 250 l 14 250 l 14 249 m 1 236 l 0 236 l 0 238 l 1 238 l 1 236 m 35 268 l 33 268 l 33 269 l 35 269 l 35 268 m 22 256 l 21 256 l 21 257 l 22 257 l 22 256 m 7 240 l 6 240 l 6 242 l 7 242 l 7 240 m 43 275 l 42 275 l 42 276 l 43 276 l 43 275 m 28 260 l 26 260 l 26 261 l 28 261 l 28 260 m 15 247 l 14 247 l 14 249 l 15 249 l 15 247 m 36 267 l 35 267 l 35 268 l 36 268 l 36 267 m 21 251 l 19 251 l 19 253 l 21 253 l 21 251 m 8 239 l 7 239 l 7 240 l 8 240 l 8 239 m 42 271 l 40 271 l 40 272 l 42 272 l 42 271 m 29 258 l 28 258 l 28 260 l 29 260 l 29 258 m 14 243 l 13 243 l 13 244 l 14 244 l 14 243 m 1 231 l 0 231 l 0 232 l 1 232 l 1 231 m 35 263 l 33 263 l 33 264 l 35 264 l 35 263 m 22 250 l 21 250 l 21 251 l 22 251 l 22 250 m 7 235 l 6 235 l 6 236 l 7 236 l 7 235 m 43 269 l 42 269 l 42 271 l 43 271 l 43 269 m 28 254 l 26 254 l 26 256 l 28 256 l 28 254 m 15 242 l 14 242 l 14 243 l 15 243 l 15 242 m 49 274 l 47 274 l 47 275 l 49 275 l 49 274 m 36 261 l 35 261 l 35 263 l 36 263 l 36 261 m 21 246 l 19 246 l 19 247 l 21 247 l 21 246 m 8 233 l 7 233 l 7 235 l 8 235 l 8 233 m 42 265 l 40 265 l 40 267 l 42 267 l 42 265 m 29 253 l 28 253 l 28 254 l 29 254 l 29 253 m 14 238 l 13 238 l 13 239 l 14 239 l 14 238 m 1 225 l 0 225 l 0 226 l 1 226 l 1 225 m 50 272 l 49 272 l 49 274 l 50 274 l 50 272 m 35 257 l 33 257 l 33 258 l 35 258 l 35 257 m 22 244 l 21 244 l 21 246 l 22 246 l 22 244 m 7 229 l 6 229 l 6 231 l 7 231 l 7 229 m 56 276 l 54 276 l 54 278 l 56 278 l 56 276 m 43 264 l 42 264 l 42 265 l 43 265 l 43 264 m 28 249 l 26 249 l 26 250 l 28 250 l 28 249 m 15 236 l 14 236 l 14 238 l 15 238 l 15 236 m 49 268 l 47 268 l 47 269 l 49 269 l 49 268 m 36 256 l 35 256 l 35 257 l 36 257 l 36 256 m 21 240 l 19 240 l 19 242 l 21 242 l 21 240 m 8 228 l 7 228 l 7 229 l 8 229 l 8 228 m 57 275 l 56 275 l 56 276 l 57 276 l 57 275 m 42 260 l 40 260 l 40 261 l 42 261 l 42 260 m 29 247 l 28 247 l 28 249 l 29 249 l 29 247 m 14 232 l 13 232 l 13 233 l 14 233 l 14 232 m 1 219 l 0 219 l 0 221 l 1 221 l 1 219 m 50 267 l 49 267 l 49 268 l 50 268 l 50 267 m 35 251 l 33 251 l 33 253 l 35 253 l 35 251 m 22 239 l 21 239 l 21 240 l 22 240 l 22 239 m 7 224 l 6 224 l 6 225 l 7 225 l 7 224 m 56 271 l 54 271 l 54 272 l 56 272 l 56 271 m 43 258 l 42 258 l 42 260 l 43 260 l 43 258 m 28 243 l 26 243 l 26 244 l 28 244 l 28 243 m 15 231 l 14 231 l 14 232 l 15 232 l 15 231 m 49 263 l 47 263 l 47 264 l 49 264 l 49 263 m 36 250 l 35 250 l 35 251 l 36 251 l 36 250 m 21 235 l 19 235 l 19 236 l 21 236 l 21 235 m 8 222 l 7 222 l 7 224 l 8 224 l 8 222 m 57 269 l 56 269 l 56 271 l 57 271 l 57 269 m 42 254 l 40 254 l 40 256 l 42 256 l 42 254 m 29 242 l 28 242 l 28 243 l 29 243 l 29 242 m 14 226 l 13 226 l 13 228 l 14 228 l 14 226 m 1 214 l 0 214 l 0 215 l 1 215 l 1 214 m 63 274 l 61 274 l 61 275 l 63 275 l 63 274 m 50 261 l 49 261 l 49 263 l 50 263 l 50 261 m 35 246 l 33 246 l 33 247 l 35 247 l 35 246 m 22 233 l 21 233 l 21 235 l 22 235 l 22 233 m 7 218 l 6 218 l 6 219 l 7 219 l 7 218 m 56 265 l 54 265 l 54 267 l 56 267 l 56 265 m 43 253 l 42 253 l 42 254 l 43 254 l 43 253 m 28 238 l 26 238 l 26 239 l 28 239 l 28 238 m 15 225 l 14 225 l 14 226 l 15 226 l 15 225 m 64 272 l 63 272 l 63 274 l 64 274 l 64 272 m 49 257 l 47 257 l 47 258 l 49 258 l 49 257 m 36 244 l 35 244 l 35 246 l 36 246 l 36 244 m 21 229 l 19 229 l 19 231 l 21 231 l 21 229 m 8 217 l 7 217 l 7 218 l 8 218 l 8 217 m 69 276 l 68 276 l 68 278 l 69 278 l 69 276 m 57 264 l 56 264 l 56 265 l 57 265 l 57 264 m 42 249 l 40 249 l 40 250 l 42 250 l 42 249 m 29 236 l 28 236 l 28 238 l 29 238 l 29 236 m 14 221 l 13 221 l 13 222 l 14 222 l 14 221 m 1 208 l 0 208 l 0 210 l 1 210 l 1 208 m 63 268 l 61 268 l 61 269 l 63 269 l 63 268 m 50 256 l 49 256 l 49 257 l 50 257 l 50 256 m 35 240 l 33 240 l 33 242 l 35 242 l 35 240 m 22 228 l 21 228 l 21 229 l 22 229 l 22 228 m 7 213 l 6 213 l 6 214 l 7 214 l 7 213 m 71 275 l 69 275 l 69 276 l 71 276 l 71 275 m 56 260 l 54 260 l 54 261 l 56 261 l 56 260 m 43 247 l 42 247 l 42 249 l 43 249 l 43 247 m 28 232 l 26 232 l 26 233 l 28 233 l 28 232 m 15 219 l 14 219 l 14 221 l 15 221 l 15 219 m 64 267 l 63 267 l 63 268 l 64 268 l 64 267 m 49 251 l 47 251 l 47 253 l 49 253 l 49 251 m 36 239 l 35 239 l 35 240 l 36 240 l 36 239 m 21 224 l 19 224 l 19 225 l 21 225 l 21 224 m 8 211 l 7 211 l 7 213 l 8 213 l 8 211 m 69 271 l 68 271 l 68 272 l 69 272 l 69 271 m 57 258 l 56 258 l 56 260 l 57 260 l 57 258 m 42 243 l 40 243 l 40 244 l 42 244 l 42 243 m 29 231 l 28 231 l 28 232 l 29 232 l 29 231 m 14 215 l 13 215 l 13 217 l 14 217 l 14 215 m 1 203 l 0 203 l 0 204 l 1 204 l 1 203 m 63 263 l 61 263 l 61 264 l 63 264 l 63 263 m 50 250 l 49 250 l 49 251 l 50 251 l 50 250 m 35 235 l 33 235 l 33 236 l 35 236 l 35 235 m 22 222 l 21 222 l 21 224 l 22 224 l 22 222 m 7 207 l 6 207 l 6 208 l 7 208 l 7 207 m 71 269 l 69 269 l 69 271 l 71 271 l 71 269 m 56 254 l 54 254 l 54 256 l 56 256 l 56 254 m 43 242 l 42 242 l 42 243 l 43 243 l 43 242 m 28 226 l 26 226 l 26 228 l 28 228 l 28 226 m 15 214 l 14 214 l 14 215 l 15 215 l 15 214 m 76 274 l 75 274 l 75 275 l 76 275 l 76 274 m 64 261 l 63 261 l 63 263 l 64 263 l 64 261 m 49 246 l 47 246 l 47 247 l 49 247 l 49 246 m 36 233 l 35 233 l 35 235 l 36 235 l 36 233 m 21 218 l 19 218 l 19 219 l 21 219 l 21 218 m 8 206 l 7 206 l 7 207 l 8 207 l 8 206 m 69 265 l 68 265 l 68 267 l 69 267 l 69 265 m 57 253 l 56 253 l 56 254 l 57 254 l 57 253 m 42 238 l 40 238 l 40 239 l 42 239 l 42 238 m 29 225 l 28 225 l 28 226 l 29 226 l 29 225 m 14 210 l 13 210 l 13 211 l 14 211 l 14 210 m 1 197 l 0 197 l 0 199 l 1 199 l 1 197 m 78 272 l 76 272 l 76 274 l 78 274 l 78 272 m 63 257 l 61 257 l 61 258 l 63 258 l 63 257 m 50 244 l 49 244 l 49 246 l 50 246 l 50 244 m 35 229 l 33 229 l 33 231 l 35 231 l 35 229 m 22 217 l 21 217 l 21 218 l 22 218 l 22 217 m 7 201 l 6 201 l 6 203 l 7 203 l 7 201 m 83 276 l 82 276 l 82 278 l 83 278 l 83 276 m 71 264 l 69 264 l 69 265 l 71 265 l 71 264 m 56 249 l 54 249 l 54 250 l 56 250 l 56 249 m 43 236 l 42 236 l 42 238 l 43 238 l 43 236 m 28 221 l 26 221 l 26 222 l 28 222 l 28 221 m 15 208 l 14 208 l 14 210 l 15 210 l 15 208 m 76 268 l 75 268 l 75 269 l 76 269 l 76 268 m 64 256 l 63 256 l 63 257 l 64 257 l 64 256 m 49 240 l 47 240 l 47 242 l 49 242 l 49 240 m 36 228 l 35 228 l 35 229 l 36 229 l 36 228 m 21 213 l 19 213 l 19 214 l 21 214 l 21 213 m 8 200 l 7 200 l 7 201 l 8 201 l 8 200 m 85 275 l 83 275 l 83 276 l 85 276 l 85 275 m 69 260 l 68 260 l 68 261 l 69 261 l 69 260 m 57 247 l 56 247 l 56 249 l 57 249 l 57 247 m 42 232 l 40 232 l 40 233 l 42 233 l 42 232 m 29 219 l 28 219 l 28 221 l 29 221 l 29 219 m 14 204 l 13 204 l 13 206 l 14 206 l 14 204 m 1 192 l 0 192 l 0 193 l 1 193 l 1 192 m 78 267 l 76 267 l 76 268 l 78 268 l 78 267 m 63 251 l 61 251 l 61 253 l 63 253 l 63 251 m 50 239 l 49 239 l 49 240 l 50 240 l 50 239 m 35 224 l 33 224 l 33 225 l 35 225 l 35 224 m 22 211 l 21 211 l 21 213 l 22 213 l 22 211 m 7 196 l 6 196 l 6 197 l 7 197 l 7 196 m 83 271 l 82 271 l 82 272 l 83 272 l 83 271 m 71 258 l 69 258 l 69 260 l 71 260 l 71 258 m 56 243 l 54 243 l 54 244 l 56 244 l 56 243 m 43 231 l 42 231 l 42 232 l 43 232 l 43 231 m 28 215 l 26 215 l 26 217 l 28 217 l 28 215 m 15 203 l 14 203 l 14 204 l 15 204 l 15 203 m 76 263 l 75 263 l 75 264 l 76 264 l 76 263 m 64 250 l 63 250 l 63 251 l 64 251 l 64 250 m 49 235 l 47 235 l 47 236 l 49 236 l 49 235 m 36 222 l 35 222 l 35 224 l 36 224 l 36 222 m 21 207 l 19 207 l 19 208 l 21 208 l 21 207 m 8 194 l 7 194 l 7 196 l 8 196 l 8 194 m 85 269 l 83 269 l 83 271 l 85 271 l 85 269 m 69 254 l 68 254 l 68 256 l 69 256 l 69 254 m 57 242 l 56 242 l 56 243 l 57 243 l 57 242 m 42 226 l 40 226 l 40 228 l 42 228 l 42 226 m 29 214 l 28 214 l 28 215 l 29 215 l 29 214 m 14 199 l 13 199 l 13 200 l 14 200 l 14 199 m 1 186 l 0 186 l 0 188 l 1 188 l 1 186 m 90 274 l 89 274 l 89 275 l 90 275 l 90 274 m 78 261 l 76 261 l 76 263 l 78 263 l 78 261 m 63 246 l 61 246 l 61 247 l 63 247 l 63 246 m 50 233 l 49 233 l 49 235 l 50 235 l 50 233 m 35 218 l 33 218 l 33 219 l 35 219 l 35 218 m 22 206 l 21 206 l 21 207 l 22 207 l 22 206 m 7 190 l 6 190 l 6 192 l 7 192 l 7 190 m 83 265 l 82 265 l 82 267 l 83 267 l 83 265 m 71 253 l 69 253 l 69 254 l 71 254 l 71 253 m 56 238 l 54 238 l 54 239 l 56 239 l 56 238 m 43 225 l 42 225 l 42 226 l 43 226 l 43 225 m 28 210 l 26 210 l 26 211 l 28 211 l 28 210 m 15 197 l 14 197 l 14 199 l 15 199 l 15 197 m 92 272 l 90 272 l 90 274 l 92 274 l 92 272 m 76 257 l 75 257 l 75 258 l 76 258 l 76 257 m 64 244 l 63 244 l 63 246 l 64 246 l 64 244 m 49 229 l 47 229 l 47 231 l 49 231 l 49 229 m 36 217 l 35 217 l 35 218 l 36 218 l 36 217 m 21 201 l 19 201 l 19 203 l 21 203 l 21 201 m 8 189 l 7 189 l 7 190 l 8 190 l 8 189 m 97 276 l 96 276 l 96 278 l 97 278 l 97 276 m 85 264 l 83 264 l 83 265 l 85 265 l 85 264 m 69 249 l 68 249 l 68 250 l 69 250 l 69 249 m 57 236 l 56 236 l 56 238 l 57 238 l 57 236 m 42 221 l 40 221 l 40 222 l 42 222 l 42 221 m 29 208 l 28 208 l 28 210 l 29 210 l 29 208 m 14 193 l 13 193 l 13 194 l 14 194 l 14 193 m 1 181 l 0 181 l 0 182 l 1 182 l 1 181 m 90 268 l 89 268 l 89 269 l 90 269 l 90 268 m 78 256 l 76 256 l 76 257 l 78 257 l 78 256 m 63 240 l 61 240 l 61 242 l 63 242 l 63 240 m 50 228 l 49 228 l 49 229 l 50 229 l 50 228 m 35 213 l 33 213 l 33 214 l 35 214 l 35 213 m 22 200 l 21 200 l 21 201 l 22 201 l 22 200 m 7 185 l 6 185 l 6 186 l 7 186 l 7 185 m 99 275 l 97 275 l 97 276 l 99 276 l 99 275 m 83 260 l 82 260 l 82 261 l 83 261 l 83 260 m 71 247 l 69 247 l 69 249 l 71 249 l 71 247 m 56 232 l 54 232 l 54 233 l 56 233 l 56 232 m 43 219 l 42 219 l 42 221 l 43 221 l 43 219 m 28 204 l 26 204 l 26 206 l 28 206 l 28 204 m 15 192 l 14 192 l 14 193 l 15 193 l 15 192 m 92 267 l 90 267 l 90 268 l 92 268 l 92 267 m 76 251 l 75 251 l 75 253 l 76 253 l 76 251 m 64 239 l 63 239 l 63 240 l 64 240 l 64 239 m 49 224 l 47 224 l 47 225 l 49 225 l 49 224 m 36 211 l 35 211 l 35 213 l 36 213 l 36 211 m 21 196 l 19 196 l 19 197 l 21 197 l 21 196 m 8 183 l 7 183 l 7 185 l 8 185 l 8 183 m 97 271 l 96 271 l 96 272 l 97 272 l 97 271 m 85 258 l 83 258 l 83 260 l 85 260 l 85 258 m 69 243 l 68 243 l 68 244 l 69 244 l 69 243 m 57 231 l 56 231 l 56 232 l 57 232 l 57 231 m 42 215 l 40 215 l 40 217 l 42 217 l 42 215 m 29 203 l 28 203 l 28 204 l 29 204 l 29 203 m 14 188 l 13 188 l 13 189 l 14 189 l 14 188 m 1 175 l 0 175 l 0 176 l 1 176 l 1 175 m 90 263 l 89 263 l 89 264 l 90 264 l 90 263 m 78 250 l 76 250 l 76 251 l 78 251 l 78 250 m 63 235 l 61 235 l 61 236 l 63 236 l 63 235 m 50 222 l 49 222 l 49 224 l 50 224 l 50 222 m 35 207 l 33 207 l 33 208 l 35 208 l 35 207 m 22 194 l 21 194 l 21 196 l 22 196 l 22 194 m 7 179 l 6 179 l 6 181 l 7 181 l 7 179 m 99 269 l 97 269 l 97 271 l 99 271 l 99 269 m 83 254 l 82 254 l 82 256 l 83 256 l 83 254 m 71 242 l 69 242 l 69 243 l 71 243 l 71 242 m 56 226 l 54 226 l 54 228 l 56 228 l 56 226 m 43 214 l 42 214 l 42 215 l 43 215 l 43 214 m 28 199 l 26 199 l 26 200 l 28 200 l 28 199 m 15 186 l 14 186 l 14 188 l 15 188 l 15 186 m 104 274 l 103 274 l 103 275 l 104 275 l 104 274 m 92 261 l 90 261 l 90 263 l 92 263 l 92 261 m 76 246 l 75 246 l 75 247 l 76 247 l 76 246 m 64 233 l 63 233 l 63 235 l 64 235 l 64 233 m 49 218 l 47 218 l 47 219 l 49 219 l 49 218 m 36 206 l 35 206 l 35 207 l 36 207 l 36 206 m 21 190 l 19 190 l 19 192 l 21 192 l 21 190 m 8 178 l 7 178 l 7 179 l 8 179 l 8 178 m 97 265 l 96 265 l 96 267 l 97 267 l 97 265 m 85 253 l 83 253 l 83 254 l 85 254 l 85 253 m 69 238 l 68 238 l 68 239 l 69 239 l 69 238 m 57 225 l 56 225 l 56 226 l 57 226 l 57 225 m 42 210 l 40 210 l 40 211 l 42 211 l 42 210 m 29 197 l 28 197 l 28 199 l 29 199 l 29 197 m 14 182 l 13 182 l 13 183 l 14 183 l 14 182 m 1 169 l 0 169 l 0 171 l 1 171 l 1 169 m 106 272 l 104 272 l 104 274 l 106 274 l 106 272 m 90 257 l 89 257 l 89 258 l 90 258 l 90 257 m 78 244 l 76 244 l 76 246 l 78 246 l 78 244 m 63 229 l 61 229 l 61 231 l 63 231 l 63 229 m 50 217 l 49 217 l 49 218 l 50 218 l 50 217 m 35 201 l 33 201 l 33 203 l 35 203 l 35 201 m 22 189 l 21 189 l 21 190 l 22 190 l 22 189 m 7 174 l 6 174 l 6 175 l 7 175 l 7 174 m 111 276 l 110 276 l 110 278 l 111 278 l 111 276 m 99 264 l 97 264 l 97 265 l 99 265 l 99 264 m 83 249 l 82 249 l 82 250 l 83 250 l 83 249 m 71 236 l 69 236 l 69 238 l 71 238 l 71 236 m 56 221 l 54 221 l 54 222 l 56 222 l 56 221 m 43 208 l 42 208 l 42 210 l 43 210 l 43 208 m 28 193 l 26 193 l 26 194 l 28 194 l 28 193 m 15 181 l 14 181 l 14 182 l 15 182 l 15 181 m 104 268 l 103 268 l 103 269 l 104 269 l 104 268 m 92 256 l 90 256 l 90 257 l 92 257 l 92 256 m 76 240 l 75 240 l 75 242 l 76 242 l 76 240 m 64 228 l 63 228 l 63 229 l 64 229 l 64 228 m 49 213 l 47 213 l 47 214 l 49 214 l 49 213 m 36 200 l 35 200 l 35 201 l 36 201 l 36 200 m 21 185 l 19 185 l 19 186 l 21 186 l 21 185 m 8 172 l 7 172 l 7 174 l 8 174 l 8 172 m 113 275 l 111 275 l 111 276 l 113 276 l 113 275 m 97 260 l 96 260 l 96 261 l 97 261 l 97 260 m 85 247 l 83 247 l 83 249 l 85 249 l 85 247 m 69 232 l 68 232 l 68 233 l 69 233 l 69 232 m 57 219 l 56 219 l 56 221 l 57 221 l 57 219 m 42 204 l 40 204 l 40 206 l 42 206 l 42 204 m 29 192 l 28 192 l 28 193 l 29 193 l 29 192 m 14 176 l 13 176 l 13 178 l 14 178 l 14 176 m 1 164 l 0 164 l 0 165 l 1 165 l 1 164 m 106 267 l 104 267 l 104 268 l 106 268 l 106 267 m 90 251 l 89 251 l 89 253 l 90 253 l 90 251 m 78 239 l 76 239 l 76 240 l 78 240 l 78 239 m 63 224 l 61 224 l 61 225 l 63 225 l 63 224 m 50 211 l 49 211 l 49 213 l 50 213 l 50 211 m 35 196 l 33 196 l 33 197 l 35 197 l 35 196 m 22 183 l 21 183 l 21 185 l 22 185 l 22 183 m 7 168 l 6 168 l 6 169 l 7 169 l 7 168 m 111 271 l 110 271 l 110 272 l 111 272 l 111 271 m 99 258 l 97 258 l 97 260 l 99 260 l 99 258 m 83 243 l 82 243 l 82 244 l 83 244 l 83 243 m 71 231 l 69 231 l 69 232 l 71 232 l 71 231 m 56 215 l 54 215 l 54 217 l 56 217 l 56 215 m 43 203 l 42 203 l 42 204 l 43 204 l 43 203 m 28 188 l 26 188 l 26 189 l 28 189 l 28 188 m 15 175 l 14 175 l 14 176 l 15 176 l 15 175 m 104 263 l 103 263 l 103 264 l 104 264 l 104 263 m 92 250 l 90 250 l 90 251 l 92 251 l 92 250 m 76 235 l 75 235 l 75 236 l 76 236 l 76 235 m 64 222 l 63 222 l 63 224 l 64 224 l 64 222 m 49 207 l 47 207 l 47 208 l 49 208 l 49 207 m 36 194 l 35 194 l 35 196 l 36 196 l 36 194 m 21 179 l 19 179 l 19 181 l 21 181 l 21 179 m 8 167 l 7 167 l 7 168 l 8 168 l 8 167 m 113 269 l 111 269 l 111 271 l 113 271 l 113 269 m 97 254 l 96 254 l 96 256 l 97 256 l 97 254 m 85 242 l 83 242 l 83 243 l 85 243 l 85 242 m 69 226 l 68 226 l 68 228 l 69 228 l 69 226 m 57 214 l 56 214 l 56 215 l 57 215 l 57 214 m 42 199 l 40 199 l 40 200 l 42 200 l 42 199 m 29 186 l 28 186 l 28 188 l 29 188 l 29 186 m 14 171 l 13 171 l 13 172 l 14 172 l 14 171 m 1 158 l 0 158 l 0 160 l 1 160 l 1 158 m 118 274 l 117 274 l 117 275 l 118 275 l 118 274 m 106 261 l 104 261 l 104 263 l 106 263 l 106 261 m 90 246 l 89 246 l 89 247 l 90 247 l 90 246 m 78 233 l 76 233 l 76 235 l 78 235 l 78 233 m 63 218 l 61 218 l 61 219 l 63 219 l 63 218 m 50 206 l 49 206 l 49 207 l 50 207 l 50 206 m 35 190 l 33 190 l 33 192 l 35 192 l 35 190 m 22 178 l 21 178 l 21 179 l 22 179 l 22 178 m 7 163 l 6 163 l 6 164 l 7 164 l 7 163 m 111 265 l 110 265 l 110 267 l 111 267 l 111 265 m 99 253 l 97 253 l 97 254 l 99 254 l 99 253 m 83 238 l 82 238 l 82 239 l 83 239 l 83 238 m 71 225 l 69 225 l 69 226 l 71 226 l 71 225 m 56 210 l 54 210 l 54 211 l 56 211 l 56 210 m 43 197 l 42 197 l 42 199 l 43 199 l 43 197 m 28 182 l 26 182 l 26 183 l 28 183 l 28 182 m 15 169 l 14 169 l 14 171 l 15 171 l 15 169 m 119 272 l 118 272 l 118 274 l 119 274 l 119 272 m 104 257 l 103 257 l 103 258 l 104 258 l 104 257 m 92 244 l 90 244 l 90 246 l 92 246 l 92 244 m 76 229 l 75 229 l 75 231 l 76 231 l 76 229 m 64 217 l 63 217 l 63 218 l 64 218 l 64 217 m 49 201 l 47 201 l 47 203 l 49 203 l 49 201 m 36 189 l 35 189 l 35 190 l 36 190 l 36 189 m 21 174 l 19 174 l 19 175 l 21 175 l 21 174 m 8 161 l 7 161 l 7 163 l 8 163 l 8 161 m 125 276 l 124 276 l 124 278 l 125 278 l 125 276 m 113 264 l 111 264 l 111 265 l 113 265 l 113 264 m 97 249 l 96 249 l 96 250 l 97 250 l 97 249 m 85 236 l 83 236 l 83 238 l 85 238 l 85 236 m 69 221 l 68 221 l 68 222 l 69 222 l 69 221 m 57 208 l 56 208 l 56 210 l 57 210 l 57 208 m 42 193 l 40 193 l 40 194 l 42 194 l 42 193 m 29 181 l 28 181 l 28 182 l 29 182 l 29 181 m 14 165 l 13 165 l 13 167 l 14 167 l 14 165 m 1 153 l 0 153 l 0 154 l 1 154 l 1 153 m 118 268 l 117 268 l 117 269 l 118 269 l 118 268 m 106 256 l 104 256 l 104 257 l 106 257 l 106 256 m 90 240 l 89 240 l 89 242 l 90 242 l 90 240 m 78 228 l 76 228 l 76 229 l 78 229 l 78 228 m 63 213 l 61 213 l 61 214 l 63 214 l 63 213 m 50 200 l 49 200 l 49 201 l 50 201 l 50 200 m 35 185 l 33 185 l 33 186 l 35 186 l 35 185 m 22 172 l 21 172 l 21 174 l 22 174 l 22 172 m 7 157 l 6 157 l 6 158 l 7 158 l 7 157 m 126 275 l 125 275 l 125 276 l 126 276 l 126 275 m 111 260 l 110 260 l 110 261 l 111 261 l 111 260 m 99 247 l 97 247 l 97 249 l 99 249 l 99 247 m 83 232 l 82 232 l 82 233 l 83 233 l 83 232 m 71 219 l 69 219 l 69 221 l 71 221 l 71 219 m 56 204 l 54 204 l 54 206 l 56 206 l 56 204 m 43 192 l 42 192 l 42 193 l 43 193 l 43 192 m 28 176 l 26 176 l 26 178 l 28 178 l 28 176 m 15 164 l 14 164 l 14 165 l 15 165 l 15 164 m 119 267 l 118 267 l 118 268 l 119 268 l 119 267 m 104 251 l 103 251 l 103 253 l 104 253 l 104 251 m 92 239 l 90 239 l 90 240 l 92 240 l 92 239 m 76 224 l 75 224 l 75 225 l 76 225 l 76 224 m 64 211 l 63 211 l 63 213 l 64 213 l 64 211 m 49 196 l 47 196 l 47 197 l 49 197 l 49 196 m 36 183 l 35 183 l 35 185 l 36 185 l 36 183 m 21 168 l 19 168 l 19 169 l 21 169 l 21 168 m 8 156 l 7 156 l 7 157 l 8 157 l 8 156 m 125 271 l 124 271 l 124 272 l 125 272 l 125 271 m 113 258 l 111 258 l 111 260 l 113 260 l 113 258 m 97 243 l 96 243 l 96 244 l 97 244 l 97 243 m 85 231 l 83 231 l 83 232 l 85 232 l 85 231 m 69 215 l 68 215 l 68 217 l 69 217 l 69 215 m 57 203 l 56 203 l 56 204 l 57 204 l 57 203 m 42 188 l 40 188 l 40 189 l 42 189 l 42 188 m 29 175 l 28 175 l 28 176 l 29 176 l 29 175 m 14 160 l 13 160 l 13 161 l 14 161 l 14 160 m 1 147 l 0 147 l 0 149 l 1 149 l 1 147 m 118 263 l 117 263 l 117 264 l 118 264 l 118 263 m 106 250 l 104 250 l 104 251 l 106 251 l 106 250 m 90 235 l 89 235 l 89 236 l 90 236 l 90 235 m 78 222 l 76 222 l 76 224 l 78 224 l 78 222 m 63 207 l 61 207 l 61 208 l 63 208 l 63 207 m 50 194 l 49 194 l 49 196 l 50 196 l 50 194 m 35 179 l 33 179 l 33 181 l 35 181 l 35 179 m 22 167 l 21 167 l 21 168 l 22 168 l 22 167 m 7 151 l 6 151 l 6 153 l 7 153 l 7 151 m 126 269 l 125 269 l 125 271 l 126 271 l 126 269 m 111 254 l 110 254 l 110 256 l 111 256 l 111 254 m 99 242 l 97 242 l 97 243 l 99 243 l 99 242 m 83 226 l 82 226 l 82 228 l 83 228 l 83 226 m 71 214 l 69 214 l 69 215 l 71 215 l 71 214 m 56 199 l 54 199 l 54 200 l 56 200 l 56 199 m 43 186 l 42 186 l 42 188 l 43 188 l 43 186 m 28 171 l 26 171 l 26 172 l 28 172 l 28 171 m 15 158 l 14 158 l 14 160 l 15 160 l 15 158 m 132 274 l 131 274 l 131 275 l 132 275 l 132 274 m 119 261 l 118 261 l 118 263 l 119 263 l 119 261 m 104 246 l 103 246 l 103 247 l 104 247 l 104 246 m 92 233 l 90 233 l 90 235 l 92 235 l 92 233 m 76 218 l 75 218 l 75 219 l 76 219 l 76 218 m 64 206 l 63 206 l 63 207 l 64 207 l 64 206 m 49 190 l 47 190 l 47 192 l 49 192 l 49 190 m 36 178 l 35 178 l 35 179 l 36 179 l 36 178 m 21 163 l 19 163 l 19 164 l 21 164 l 21 163 m 8 150 l 7 150 l 7 151 l 8 151 l 8 150 m 125 265 l 124 265 l 124 267 l 125 267 l 125 265 m 113 253 l 111 253 l 111 254 l 113 254 l 113 253 m 97 238 l 96 238 l 96 239 l 97 239 l 97 238 m 85 225 l 83 225 l 83 226 l 85 226 l 85 225 m 69 210 l 68 210 l 68 211 l 69 211 l 69 210 m 57 197 l 56 197 l 56 199 l 57 199 l 57 197 m 42 182 l 40 182 l 40 183 l 42 183 l 42 182 m 29 169 l 28 169 l 28 171 l 29 171 l 29 169 m 14 154 l 13 154 l 13 156 l 14 156 l 14 154 m 1 142 l 0 142 l 0 143 l 1 143 l 1 142 m 133 272 l 132 272 l 132 274 l 133 274 l 133 272 m 118 257 l 117 257 l 117 258 l 118 258 l 118 257 m 106 244 l 104 244 l 104 246 l 106 246 l 106 244 m 90 229 l 89 229 l 89 231 l 90 231 l 90 229 m 78 217 l 76 217 l 76 218 l 78 218 l 78 217 m 63 201 l 61 201 l 61 203 l 63 203 l 63 201 m 50 189 l 49 189 l 49 190 l 50 190 l 50 189 m 35 174 l 33 174 l 33 175 l 35 175 l 35 174 m 22 161 l 21 161 l 21 163 l 22 163 l 22 161 m 7 146 l 6 146 l 6 147 l 7 147 l 7 146 m 139 276 l 138 276 l 138 278 l 139 278 l 139 276 m 126 264 l 125 264 l 125 265 l 126 265 l 126 264 m 111 249 l 110 249 l 110 250 l 111 250 l 111 249 m 99 236 l 97 236 l 97 238 l 99 238 l 99 236 m 83 221 l 82 221 l 82 222 l 83 222 l 83 221 m 71 208 l 69 208 l 69 210 l 71 210 l 71 208 m 56 193 l 54 193 l 54 194 l 56 194 l 56 193 m 43 181 l 42 181 l 42 182 l 43 182 l 43 181 m 28 165 l 26 165 l 26 167 l 28 167 l 28 165 m 15 153 l 14 153 l 14 154 l 15 154 l 15 153 m 132 268 l 131 268 l 131 269 l 132 269 l 132 268 m 119 256 l 118 256 l 118 257 l 119 257 l 119 256 m 104 240 l 103 240 l 103 242 l 104 242 l 104 240 m 92 228 l 90 228 l 90 229 l 92 229 l 92 228 m 76 213 l 75 213 l 75 214 l 76 214 l 76 213 m 64 200 l 63 200 l 63 201 l 64 201 l 64 200 m 49 185 l 47 185 l 47 186 l 49 186 l 49 185 m 36 172 l 35 172 l 35 174 l 36 174 l 36 172 m 21 157 l 19 157 l 19 158 l 21 158 l 21 157 m 8 144 l 7 144 l 7 146 l 8 146 l 8 144 m 125 260 l 124 260 l 124 261 l 125 261 l 125 260 m 113 247 l 111 247 l 111 249 l 113 249 l 113 247 m 97 232 l 96 232 l 96 233 l 97 233 l 97 232 m 85 219 l 83 219 l 83 221 l 85 221 l 85 219 m 69 204 l 68 204 l 68 206 l 69 206 l 69 204 m 57 192 l 56 192 l 56 193 l 57 193 l 57 192 m 42 176 l 40 176 l 40 178 l 42 178 l 42 176 m 29 164 l 28 164 l 28 165 l 29 165 l 29 164 m 14 149 l 13 149 l 13 150 l 14 150 l 14 149 m 133 267 l 132 267 l 132 268 l 133 268 l 133 267 m 118 251 l 117 251 l 117 253 l 118 253 l 118 251 m 106 239 l 104 239 l 104 240 l 106 240 l 106 239 m 90 224 l 89 224 l 89 225 l 90 225 l 90 224 m 78 211 l 76 211 l 76 213 l 78 213 l 78 211 m 63 196 l 61 196 l 61 197 l 63 197 l 63 196 m 50 183 l 49 183 l 49 185 l 50 185 l 50 183 m 35 168 l 33 168 l 33 169 l 35 169 l 35 168 m 22 156 l 21 156 l 21 157 l 22 157 l 22 156 m 7 140 l 6 140 l 6 142 l 7 142 l 7 140 m 139 271 l 138 271 l 138 272 l 139 272 l 139 271 m 126 258 l 125 258 l 125 260 l 126 260 l 126 258 m 111 243 l 110 243 l 110 244 l 111 244 l 111 243 m 99 231 l 97 231 l 97 232 l 99 232 l 99 231 m 83 215 l 82 215 l 82 217 l 83 217 l 83 215 m 71 203 l 69 203 l 69 204 l 71 204 l 71 203 m 56 188 l 54 188 l 54 189 l 56 189 l 56 188 m 43 175 l 42 175 l 42 176 l 43 176 l 43 175 m 28 160 l 26 160 l 26 161 l 28 161 l 28 160 m 15 147 l 14 147 l 14 149 l 15 149 l 15 147 m 132 263 l 131 263 l 131 264 l 132 264 l 132 263 m 119 250 l 118 250 l 118 251 l 119 251 l 119 250 m 104 235 l 103 235 l 103 236 l 104 236 l 104 235 m 92 222 l 90 222 l 90 224 l 92 224 l 92 222 m 76 207 l 75 207 l 75 208 l 76 208 l 76 207 m 64 194 l 63 194 l 63 196 l 64 196 l 64 194 m 49 179 l 47 179 l 47 181 l 49 181 l 49 179 m 36 167 l 35 167 l 35 168 l 36 168 l 36 167 m 21 151 l 19 151 l 19 153 l 21 153 l 21 151 m 8 139 l 7 139 l 7 140 l 8 140 l 8 139 m 125 254 l 124 254 l 124 256 l 125 256 l 125 254 m 113 242 l 111 242 l 111 243 l 113 243 l 113 242 m 97 226 l 96 226 l 96 228 l 97 228 l 97 226 m 85 214 l 83 214 l 83 215 l 85 215 l 85 214 m 69 199 l 68 199 l 68 200 l 69 200 l 69 199 m 57 186 l 56 186 l 56 188 l 57 188 l 57 186 m 42 171 l 40 171 l 40 172 l 42 172 l 42 171 m 29 158 l 28 158 l 28 160 l 29 160 l 29 158 m 14 143 l 13 143 l 13 144 l 14 144 l 14 143 m 133 261 l 132 261 l 132 263 l 133 263 l 133 261 m 118 246 l 117 246 l 117 247 l 118 247 l 118 246 m 106 233 l 104 233 l 104 235 l 106 235 l 106 233 m 90 218 l 89 218 l 89 219 l 90 219 l 90 218 m 78 206 l 76 206 l 76 207 l 78 207 l 78 206 m 63 190 l 61 190 l 61 192 l 63 192 l 63 190 m 50 178 l 49 178 l 49 179 l 50 179 l 50 178 m 35 163 l 33 163 l 33 164 l 35 164 l 35 163 m 22 150 l 21 150 l 21 151 l 22 151 l 22 150 m 139 265 l 138 265 l 138 267 l 139 267 l 139 265 m 126 253 l 125 253 l 125 254 l 126 254 l 126 253 m 111 238 l 110 238 l 110 239 l 111 239 l 111 238 m 99 225 l 97 225 l 97 226 l 99 226 l 99 225 m 83 210 l 82 210 l 82 211 l 83 211 l 83 210 m 71 197 l 69 197 l 69 199 l 71 199 l 71 197 m 56 182 l 54 182 l 54 183 l 56 183 l 56 182 m 43 169 l 42 169 l 42 171 l 43 171 l 43 169 m 28 154 l 26 154 l 26 156 l 28 156 l 28 154 m 15 142 l 14 142 l 14 143 l 15 143 l 15 142 m 132 257 l 131 257 l 131 258 l 132 258 l 132 257 m 119 244 l 118 244 l 118 246 l 119 246 l 119 244 m 104 229 l 103 229 l 103 231 l 104 231 l 104 229 m 92 217 l 90 217 l 90 218 l 92 218 l 92 217 m 76 201 l 75 201 l 75 203 l 76 203 l 76 201 m 64 189 l 63 189 l 63 190 l 64 190 l 64 189 m 49 174 l 47 174 l 47 175 l 49 175 l 49 174 m 36 161 l 35 161 l 35 163 l 36 163 l 36 161 m 21 146 l 19 146 l 19 147 l 21 147 l 21 146 m 125 249 l 124 249 l 124 250 l 125 250 l 125 249 m 113 236 l 111 236 l 111 238 l 113 238 l 113 236 m 97 221 l 96 221 l 96 222 l 97 222 l 97 221 m 85 208 l 83 208 l 83 210 l 85 210 l 85 208 m 69 193 l 68 193 l 68 194 l 69 194 l 69 193 m 57 181 l 56 181 l 56 182 l 57 182 l 57 181 m 42 165 l 40 165 l 40 167 l 42 167 l 42 165 m 29 153 l 28 153 l 28 154 l 29 154 l 29 153 m 133 256 l 132 256 l 132 257 l 133 257 l 133 256 m 118 240 l 117 240 l 117 242 l 118 242 l 118 240 m 106 228 l 104 228 l 104 229 l 106 229 l 106 228 m 90 213 l 89 213 l 89 214 l 90 214 l 90 213 m 78 200 l 76 200 l 76 201 l 78 201 l 78 200 m 63 185 l 61 185 l 61 186 l 63 186 l 63 185 m 50 172 l 49 172 l 49 174 l 50 174 l 50 172 m 35 157 l 33 157 l 33 158 l 35 158 l 35 157 m 22 144 l 21 144 l 21 146 l 22 146 l 22 144 m 139 260 l 138 260 l 138 261 l 139 261 l 139 260 m 126 247 l 125 247 l 125 249 l 126 249 l 126 247 m 111 232 l 110 232 l 110 233 l 111 233 l 111 232 m 99 219 l 97 219 l 97 221 l 99 221 l 99 219 m 83 204 l 82 204 l 82 206 l 83 206 l 83 204 m 71 192 l 69 192 l 69 193 l 71 193 l 71 192 m 56 176 l 54 176 l 54 178 l 56 178 l 56 176 m 43 164 l 42 164 l 42 165 l 43 165 l 43 164 m 28 149 l 26 149 l 26 150 l 28 150 l 28 149 m 132 251 l 131 251 l 131 253 l 132 253 l 132 251 m 119 239 l 118 239 l 118 240 l 119 240 l 119 239 m 104 224 l 103 224 l 103 225 l 104 225 l 104 224 m 92 211 l 90 211 l 90 213 l 92 213 l 92 211 m 76 196 l 75 196 l 75 197 l 76 197 l 76 196 m 64 183 l 63 183 l 63 185 l 64 185 l 64 183 m 49 168 l 47 168 l 47 169 l 49 169 l 49 168 m 36 156 l 35 156 l 35 157 l 36 157 l 36 156 m 21 140 l 19 140 l 19 142 l 21 142 l 21 140 m 125 243 l 124 243 l 124 244 l 125 244 l 125 243 m 113 231 l 111 231 l 111 232 l 113 232 l 113 231 m 97 215 l 96 215 l 96 217 l 97 217 l 97 215 m 85 203 l 83 203 l 83 204 l 85 204 l 85 203 m 69 188 l 68 188 l 68 189 l 69 189 l 69 188 m 57 175 l 56 175 l 56 176 l 57 176 l 57 175 m 42 160 l 40 160 l 40 161 l 42 161 l 42 160 m 29 147 l 28 147 l 28 149 l 29 149 l 29 147 m 133 250 l 132 250 l 132 251 l 133 251 l 133 250 m 118 235 l 117 235 l 117 236 l 118 236 l 118 235 m 106 222 l 104 222 l 104 224 l 106 224 l 106 222 m 90 207 l 89 207 l 89 208 l 90 208 l 90 207 m 78 194 l 76 194 l 76 196 l 78 196 l 78 194 m 63 179 l 61 179 l 61 181 l 63 181 l 63 179 m 50 167 l 49 167 l 49 168 l 50 168 l 50 167 m 35 151 l 33 151 l 33 153 l 35 153 l 35 151 m 22 139 l 21 139 l 21 140 l 22 140 l 22 139 m 139 254 l 138 254 l 138 256 l 139 256 l 139 254 m 126 242 l 125 242 l 125 243 l 126 243 l 126 242 m 111 226 l 110 226 l 110 228 l 111 228 l 111 226 m 99 214 l 97 214 l 97 215 l 99 215 l 99 214 m 83 199 l 82 199 l 82 200 l 83 200 l 83 199 m 71 186 l 69 186 l 69 188 l 71 188 l 71 186 m 56 171 l 54 171 l 54 172 l 56 172 l 56 171 m 43 158 l 42 158 l 42 160 l 43 160 l 43 158 m 28 143 l 26 143 l 26 144 l 28 144 l 28 143 m 132 246 l 131 246 l 131 247 l 132 247 l 132 246 m 119 233 l 118 233 l 118 235 l 119 235 l 119 233 m 104 218 l 103 218 l 103 219 l 104 219 l 104 218 m 92 206 l 90 206 l 90 207 l 92 207 l 92 206 m 76 190 l 75 190 l 75 192 l 76 192 l 76 190 m 64 178 l 63 178 l 63 179 l 64 179 l 64 178 m 49 163 l 47 163 l 47 164 l 49 164 l 49 163 m 36 150 l 35 150 l 35 151 l 36 151 l 36 150 m 125 238 l 124 238 l 124 239 l 125 239 l 125 238 m 113 225 l 111 225 l 111 226 l 113 226 l 113 225 m 97 210 l 96 210 l 96 211 l 97 211 l 97 210 m 85 197 l 83 197 l 83 199 l 85 199 l 85 197 m 69 182 l 68 182 l 68 183 l 69 183 l 69 182 m 57 169 l 56 169 l 56 171 l 57 171 l 57 169 m 42 154 l 40 154 l 40 156 l 42 156 l 42 154 m 29 142 l 28 142 l 28 143 l 29 143 l 29 142 m 133 244 l 132 244 l 132 246 l 133 246 l 133 244 m 118 229 l 117 229 l 117 231 l 118 231 l 118 229 m 106 217 l 104 217 l 104 218 l 106 218 l 106 217 m 90 201 l 89 201 l 89 203 l 90 203 l 90 201 m 78 189 l 76 189 l 76 190 l 78 190 l 78 189 m 63 174 l 61 174 l 61 175 l 63 175 l 63 174 m 50 161 l 49 161 l 49 163 l 50 163 l 50 161 m 35 146 l 33 146 l 33 147 l 35 147 l 35 146 m 139 249 l 138 249 l 138 250 l 139 250 l 139 249 m 126 236 l 125 236 l 125 238 l 126 238 l 126 236 m 111 221 l 110 221 l 110 222 l 111 222 l 111 221 m 99 208 l 97 208 l 97 210 l 99 210 l 99 208 m 83 193 l 82 193 l 82 194 l 83 194 l 83 193 m 71 181 l 69 181 l 69 182 l 71 182 l 71 181 m 56 165 l 54 165 l 54 167 l 56 167 l 56 165 m 43 153 l 42 153 l 42 154 l 43 154 l 43 153 m 132 240 l 131 240 l 131 242 l 132 242 l 132 240 m 119 228 l 118 228 l 118 229 l 119 229 l 119 228 m 104 213 l 103 213 l 103 214 l 104 214 l 104 213 m 92 200 l 90 200 l 90 201 l 92 201 l 92 200 m 76 185 l 75 185 l 75 186 l 76 186 l 76 185 m 64 172 l 63 172 l 63 174 l 64 174 l 64 172 m 49 157 l 47 157 l 47 158 l 49 158 l 49 157 m 36 144 l 35 144 l 35 146 l 36 146 l 36 144 m 125 232 l 124 232 l 124 233 l 125 233 l 125 232 m 113 219 l 111 219 l 111 221 l 113 221 l 113 219 m 97 204 l 96 204 l 96 206 l 97 206 l 97 204 m 85 192 l 83 192 l 83 193 l 85 193 l 85 192 m 69 176 l 68 176 l 68 178 l 69 178 l 69 176 m 57 164 l 56 164 l 56 165 l 57 165 l 57 164 m 42 149 l 40 149 l 40 150 l 42 150 l 42 149 m 133 239 l 132 239 l 132 240 l 133 240 l 133 239 m 118 224 l 117 224 l 117 225 l 118 225 l 118 224 m 106 211 l 104 211 l 104 213 l 106 213 l 106 211 m 90 196 l 89 196 l 89 197 l 90 197 l 90 196 m 78 183 l 76 183 l 76 185 l 78 185 l 78 183 m 63 168 l 61 168 l 61 169 l 63 169 l 63 168 m 50 156 l 49 156 l 49 157 l 50 157 l 50 156 m 35 140 l 33 140 l 33 142 l 35 142 l 35 140 m 139 243 l 138 243 l 138 244 l 139 244 l 139 243 m 126 231 l 125 231 l 125 232 l 126 232 l 126 231 m 111 215 l 110 215 l 110 217 l 111 217 l 111 215 m 99 203 l 97 203 l 97 204 l 99 204 l 99 203 m 83 188 l 82 188 l 82 189 l 83 189 l 83 188 m 71 175 l 69 175 l 69 176 l 71 176 l 71 175 m 56 160 l 54 160 l 54 161 l 56 161 l 56 160 m 43 147 l 42 147 l 42 149 l 43 149 l 43 147 m 132 235 l 131 235 l 131 236 l 132 236 l 132 235 m 119 222 l 118 222 l 118 224 l 119 224 l 119 222 m 104 207 l 103 207 l 103 208 l 104 208 l 104 207 m 92 194 l 90 194 l 90 196 l 92 196 l 92 194 m 76 179 l 75 179 l 75 181 l 76 181 l 76 179 m 64 167 l 63 167 l 63 168 l 64 168 l 64 167 m 49 151 l 47 151 l 47 153 l 49 153 l 49 151 m 36 139 l 35 139 l 35 140 l 36 140 l 36 139 m 125 226 l 124 226 l 124 228 l 125 228 l 125 226 m 113 214 l 111 214 l 111 215 l 113 215 l 113 214 m 97 199 l 96 199 l 96 200 l 97 200 l 97 199 m 85 186 l 83 186 l 83 188 l 85 188 l 85 186 m 69 171 l 68 171 l 68 172 l 69 172 l 69 171 m 57 158 l 56 158 l 56 160 l 57 160 l 57 158 m 42 143 l 40 143 l 40 144 l 42 144 l 42 143 m 133 233 l 132 233 l 132 235 l 133 235 l 133 233 m 118 218 l 117 218 l 117 219 l 118 219 l 118 218 m 106 206 l 104 206 l 104 207 l 106 207 l 106 206 m 90 190 l 89 190 l 89 192 l 90 192 l 90 190 m 78 178 l 76 178 l 76 179 l 78 179 l 78 178 m 63 163 l 61 163 l 61 164 l 63 164 l 63 163 m 50 150 l 49 150 l 49 151 l 50 151 l 50 150 m 139 238 l 138 238 l 138 239 l 139 239 l 139 238 m 126 225 l 125 225 l 125 226 l 126 226 l 126 225 m 111 210 l 110 210 l 110 211 l 111 211 l 111 210 m 99 197 l 97 197 l 97 199 l 99 199 l 99 197 m 83 182 l 82 182 l 82 183 l 83 183 l 83 182 m 71 169 l 69 169 l 69 171 l 71 171 l 71 169 m 56 154 l 54 154 l 54 156 l 56 156 l 56 154 m 43 142 l 42 142 l 42 143 l 43 143 l 43 142 m 132 229 l 131 229 l 131 231 l 132 231 l 132 229 m 119 217 l 118 217 l 118 218 l 119 218 l 119 217 m 104 201 l 103 201 l 103 203 l 104 203 l 104 201 m 92 189 l 90 189 l 90 190 l 92 190 l 92 189 m 76 174 l 75 174 l 75 175 l 76 175 l 76 174 m 64 161 l 63 161 l 63 163 l 64 163 l 64 161 m 49 146 l 47 146 l 47 147 l 49 147 l 49 146 m 125 221 l 124 221 l 124 222 l 125 222 l 125 221 m 113 208 l 111 208 l 111 210 l 113 210 l 113 208 m 97 193 l 96 193 l 96 194 l 97 194 l 97 193 m 85 181 l 83 181 l 83 182 l 85 182 l 85 181 m 69 165 l 68 165 l 68 167 l 69 167 l 69 165 m 57 153 l 56 153 l 56 154 l 57 154 l 57 153 m 133 228 l 132 228 l 132 229 l 133 229 l 133 228 m 118 213 l 117 213 l 117 214 l 118 214 l 118 213 m 106 200 l 104 200 l 104 201 l 106 201 l 106 200 m 90 185 l 89 185 l 89 186 l 90 186 l 90 185 m 78 172 l 76 172 l 76 174 l 78 174 l 78 172 m 63 157 l 61 157 l 61 158 l 63 158 l 63 157 m 50 144 l 49 144 l 49 146 l 50 146 l 50 144 m 139 232 l 138 232 l 138 233 l 139 233 l 139 232 m 126 219 l 125 219 l 125 221 l 126 221 l 126 219 m 111 204 l 110 204 l 110 206 l 111 206 l 111 204 m 99 192 l 97 192 l 97 193 l 99 193 l 99 192 m 83 176 l 82 176 l 82 178 l 83 178 l 83 176 m 71 164 l 69 164 l 69 165 l 71 165 l 71 164 m 56 149 l 54 149 l 54 150 l 56 150 l 56 149 m 132 224 l 131 224 l 131 225 l 132 225 l 132 224 m 119 211 l 118 211 l 118 213 l 119 213 l 119 211 m 104 196 l 103 196 l 103 197 l 104 197 l 104 196 m 92 183 l 90 183 l 90 185 l 92 185 l 92 183 m 76 168 l 75 168 l 75 169 l 76 169 l 76 168 m 64 156 l 63 156 l 63 157 l 64 157 l 64 156 m 49 140 l 47 140 l 47 142 l 49 142 l 49 140 m 125 215 l 124 215 l 124 217 l 125 217 l 125 215 m 113 203 l 111 203 l 111 204 l 113 204 l 113 203 m 97 188 l 96 188 l 96 189 l 97 189 l 97 188 m 85 175 l 83 175 l 83 176 l 85 176 l 85 175 m 69 160 l 68 160 l 68 161 l 69 161 l 69 160 m 57 147 l 56 147 l 56 149 l 57 149 l 57 147 m 133 222 l 132 222 l 132 224 l 133 224 l 133 222 m 118 207 l 117 207 l 117 208 l 118 208 l 118 207 m 106 194 l 104 194 l 104 196 l 106 196 l 106 194 m 90 179 l 89 179 l 89 181 l 90 181 l 90 179 m 78 167 l 76 167 l 76 168 l 78 168 l 78 167 m 63 151 l 61 151 l 61 153 l 63 153 l 63 151 m 50 139 l 49 139 l 49 140 l 50 140 l 50 139 m 139 226 l 138 226 l 138 228 l 139 228 l 139 226 m 126 214 l 125 214 l 125 215 l 126 215 l 126 214 m 111 199 l 110 199 l 110 200 l 111 200 l 111 199 m 99 186 l 97 186 l 97 188 l 99 188 l 99 186 m 83 171 l 82 171 l 82 172 l 83 172 l 83 171 m 71 158 l 69 158 l 69 160 l 71 160 l 71 158 m 56 143 l 54 143 l 54 144 l 56 144 l 56 143 m 132 218 l 131 218 l 131 219 l 132 219 l 132 218 m 119 206 l 118 206 l 118 207 l 119 207 l 119 206 m 104 190 l 103 190 l 103 192 l 104 192 l 104 190 m 92 178 l 90 178 l 90 179 l 92 179 l 92 178 m 76 163 l 75 163 l 75 164 l 76 164 l 76 163 m 64 150 l 63 150 l 63 151 l 64 151 l 64 150 m 125 210 l 124 210 l 124 211 l 125 211 l 125 210 m 113 197 l 111 197 l 111 199 l 113 199 l 113 197 m 97 182 l 96 182 l 96 183 l 97 183 l 97 182 m 85 169 l 83 169 l 83 171 l 85 171 l 85 169 m 69 154 l 68 154 l 68 156 l 69 156 l 69 154 m 57 142 l 56 142 l 56 143 l 57 143 l 57 142 m 133 217 l 132 217 l 132 218 l 133 218 l 133 217 m 118 201 l 117 201 l 117 203 l 118 203 l 118 201 m 106 189 l 104 189 l 104 190 l 106 190 l 106 189 m 90 174 l 89 174 l 89 175 l 90 175 l 90 174 m 78 161 l 76 161 l 76 163 l 78 163 l 78 161 m 63 146 l 61 146 l 61 147 l 63 147 l 63 146 m 139 221 l 138 221 l 138 222 l 139 222 l 139 221 m 126 208 l 125 208 l 125 210 l 126 210 l 126 208 m 111 193 l 110 193 l 110 194 l 111 194 l 111 193 m 99 181 l 97 181 l 97 182 l 99 182 l 99 181 m 83 165 l 82 165 l 82 167 l 83 167 l 83 165 m 71 153 l 69 153 l 69 154 l 71 154 l 71 153 m 132 213 l 131 213 l 131 214 l 132 214 l 132 213 m 119 200 l 118 200 l 118 201 l 119 201 l 119 200 m 104 185 l 103 185 l 103 186 l 104 186 l 104 185 m 92 172 l 90 172 l 90 174 l 92 174 l 92 172 m 76 157 l 75 157 l 75 158 l 76 158 l 76 157 m 64 144 l 63 144 l 63 146 l 64 146 l 64 144 m 125 204 l 124 204 l 124 206 l 125 206 l 125 204 m 113 192 l 111 192 l 111 193 l 113 193 l 113 192 m 97 176 l 96 176 l 96 178 l 97 178 l 97 176 m 85 164 l 83 164 l 83 165 l 85 165 l 85 164 m 69 149 l 68 149 l 68 150 l 69 150 l 69 149 m 133 211 l 132 211 l 132 213 l 133 213 l 133 211 m 118 196 l 117 196 l 117 197 l 118 197 l 118 196 m 106 183 l 104 183 l 104 185 l 106 185 l 106 183 m 90 168 l 89 168 l 89 169 l 90 169 l 90 168 m 78 156 l 76 156 l 76 157 l 78 157 l 78 156 m 63 140 l 61 140 l 61 142 l 63 142 l 63 140 m 139 215 l 138 215 l 138 217 l 139 217 l 139 215 m 126 203 l 125 203 l 125 204 l 126 204 l 126 203 m 111 188 l 110 188 l 110 189 l 111 189 l 111 188 m 99 175 l 97 175 l 97 176 l 99 176 l 99 175 m 83 160 l 82 160 l 82 161 l 83 161 l 83 160 m 71 147 l 69 147 l 69 149 l 71 149 l 71 147 m 132 207 l 131 207 l 131 208 l 132 208 l 132 207 m 119 194 l 118 194 l 118 196 l 119 196 l 119 194 m 104 179 l 103 179 l 103 181 l 104 181 l 104 179 m 92 167 l 90 167 l 90 168 l 92 168 l 92 167 m 76 151 l 75 151 l 75 153 l 76 153 l 76 151 m 64 139 l 63 139 l 63 140 l 64 140 l 64 139 m 125 199 l 124 199 l 124 200 l 125 200 l 125 199 m 113 186 l 111 186 l 111 188 l 113 188 l 113 186 m 97 171 l 96 171 l 96 172 l 97 172 l 97 171 m 85 158 l 83 158 l 83 160 l 85 160 l 85 158 m 69 143 l 68 143 l 68 144 l 69 144 l 69 143 m 133 206 l 132 206 l 132 207 l 133 207 l 133 206 m 118 190 l 117 190 l 117 192 l 118 192 l 118 190 m 106 178 l 104 178 l 104 179 l 106 179 l 106 178 m 90 163 l 89 163 l 89 164 l 90 164 l 90 163 m 78 150 l 76 150 l 76 151 l 78 151 l 78 150 m 139 210 l 138 210 l 138 211 l 139 211 l 139 210 m 126 197 l 125 197 l 125 199 l 126 199 l 126 197 m 111 182 l 110 182 l 110 183 l 111 183 l 111 182 m 99 169 l 97 169 l 97 171 l 99 171 l 99 169 m 83 154 l 82 154 l 82 156 l 83 156 l 83 154 m 71 142 l 69 142 l 69 143 l 71 143 l 71 142 m 132 201 l 131 201 l 131 203 l 132 203 l 132 201 m 119 189 l 118 189 l 118 190 l 119 190 l 119 189 m 104 174 l 103 174 l 103 175 l 104 175 l 104 174 m 92 161 l 90 161 l 90 163 l 92 163 l 92 161 m 76 146 l 75 146 l 75 147 l 76 147 l 76 146 m 125 193 l 124 193 l 124 194 l 125 194 l 125 193 m 113 181 l 111 181 l 111 182 l 113 182 l 113 181 m 97 165 l 96 165 l 96 167 l 97 167 l 97 165 m 85 153 l 83 153 l 83 154 l 85 154 l 85 153 m 133 200 l 132 200 l 132 201 l 133 201 l 133 200 m 118 185 l 117 185 l 117 186 l 118 186 l 118 185 m 106 172 l 104 172 l 104 174 l 106 174 l 106 172 m 90 157 l 89 157 l 89 158 l 90 158 l 90 157 m 78 144 l 76 144 l 76 146 l 78 146 l 78 144 m 139 204 l 138 204 l 138 206 l 139 206 l 139 204 m 126 192 l 125 192 l 125 193 l 126 193 l 126 192 m 111 176 l 110 176 l 110 178 l 111 178 l 111 176 m 99 164 l 97 164 l 97 165 l 99 165 l 99 164 m 83 149 l 82 149 l 82 150 l 83 150 l 83 149 m 132 196 l 131 196 l 131 197 l 132 197 l 132 196 m 119 183 l 118 183 l 118 185 l 119 185 l 119 183 m 104 168 l 103 168 l 103 169 l 104 169 l 104 168 m 92 156 l 90 156 l 90 157 l 92 157 l 92 156 m 76 140 l 75 140 l 75 142 l 76 142 l 76 140 m 125 188 l 124 188 l 124 189 l 125 189 l 125 188 m 113 175 l 111 175 l 111 176 l 113 176 l 113 175 m 97 160 l 96 160 l 96 161 l 97 161 l 97 160 m 85 147 l 83 147 l 83 149 l 85 149 l 85 147 m 133 194 l 132 194 l 132 196 l 133 196 l 133 194 m 118 179 l 117 179 l 117 181 l 118 181 l 118 179 m 106 167 l 104 167 l 104 168 l 106 168 l 106 167 m 90 151 l 89 151 l 89 153 l 90 153 l 90 151 m 78 139 l 76 139 l 76 140 l 78 140 l 78 139 m 139 199 l 138 199 l 138 200 l 139 200 l 139 199 m 126 186 l 125 186 l 125 188 l 126 188 l 126 186 m 111 171 l 110 171 l 110 172 l 111 172 l 111 171 m 99 158 l 97 158 l 97 160 l 99 160 l 99 158 m 83 143 l 82 143 l 82 144 l 83 144 l 83 143 m 132 190 l 131 190 l 131 192 l 132 192 l 132 190 m 119 178 l 118 178 l 118 179 l 119 179 l 119 178 m 104 163 l 103 163 l 103 164 l 104 164 l 104 163 m 92 150 l 90 150 l 90 151 l 92 151 l 92 150 m 125 182 l 124 182 l 124 183 l 125 183 l 125 182 m 113 169 l 111 169 l 111 171 l 113 171 l 113 169 m 97 154 l 96 154 l 96 156 l 97 156 l 97 154 m 85 142 l 83 142 l 83 143 l 85 143 l 85 142 m 133 189 l 132 189 l 132 190 l 133 190 l 133 189 m 118 174 l 117 174 l 117 175 l 118 175 l 118 174 m 106 161 l 104 161 l 104 163 l 106 163 l 106 161 m 90 146 l 89 146 l 89 147 l 90 147 l 90 146 m 139 193 l 138 193 l 138 194 l 139 194 l 139 193 m 126 181 l 125 181 l 125 182 l 126 182 l 126 181 m 111 165 l 110 165 l 110 167 l 111 167 l 111 165 m 99 153 l 97 153 l 97 154 l 99 154 l 99 153 m 132 185 l 131 185 l 131 186 l 132 186 l 132 185 m 119 172 l 118 172 l 118 174 l 119 174 l 119 172 m 104 157 l 103 157 l 103 158 l 104 158 l 104 157 m 92 144 l 90 144 l 90 146 l 92 146 l 92 144 m 125 176 l 124 176 l 124 178 l 125 178 l 125 176 m 113 164 l 111 164 l 111 165 l 113 165 l 113 164 m 97 149 l 96 149 l 96 150 l 97 150 l 97 149 m 133 183 l 132 183 l 132 185 l 133 185 l 133 183 m 118 168 l 117 168 l 117 169 l 118 169 l 118 168 m 106 156 l 104 156 l 104 157 l 106 157 l 106 156 m 90 140 l 89 140 l 89 142 l 90 142 l 90 140 m 139 188 l 138 188 l 138 189 l 139 189 l 139 188 m 126 175 l 125 175 l 125 176 l 126 176 l 126 175 m 111 160 l 110 160 l 110 161 l 111 161 l 111 160 m 99 147 l 97 147 l 97 149 l 99 149 l 99 147 m 132 179 l 131 179 l 131 181 l 132 181 l 132 179 m 119 167 l 118 167 l 118 168 l 119 168 l 119 167 m 104 151 l 103 151 l 103 153 l 104 153 l 104 151 m 92 139 l 90 139 l 90 140 l 92 140 l 92 139 m 125 171 l 124 171 l 124 172 l 125 172 l 125 171 m 113 158 l 111 158 l 111 160 l 113 160 l 113 158 m 97 143 l 96 143 l 96 144 l 97 144 l 97 143 m 133 178 l 132 178 l 132 179 l 133 179 l 133 178 m 118 163 l 117 163 l 117 164 l 118 164 l 118 163 m 106 150 l 104 150 l 104 151 l 106 151 l 106 150 m 139 182 l 138 182 l 138 183 l 139 183 l 139 182 m 126 169 l 125 169 l 125 171 l 126 171 l 126 169 m 111 154 l 110 154 l 110 156 l 111 156 l 111 154 m 99 142 l 97 142 l 97 143 l 99 143 l 99 142 m 132 174 l 131 174 l 131 175 l 132 175 l 132 174 m 119 161 l 118 161 l 118 163 l 119 163 l 119 161 m 104 146 l 103 146 l 103 147 l 104 147 l 104 146 m 125 165 l 124 165 l 124 167 l 125 167 l 125 165 m 113 153 l 111 153 l 111 154 l 113 154 l 113 153 m 133 172 l 132 172 l 132 174 l 133 174 l 133 172 m 118 157 l 117 157 l 117 158 l 118 158 l 118 157 m 106 144 l 104 144 l 104 146 l 106 146 l 106 144 m 139 176 l 138 176 l 138 178 l 139 178 l 139 176 m 126 164 l 125 164 l 125 165 l 126 165 l 126 164 m 111 149 l 110 149 l 110 150 l 111 150 l 111 149 m 132 168 l 131 168 l 131 169 l 132 169 l 132 168 m 119 156 l 118 156 l 118 157 l 119 157 l 119 156 m 104 140 l 103 140 l 103 142 l 104 142 l 104 140 m 125 160 l 124 160 l 124 161 l 125 161 l 125 160 m 113 147 l 111 147 l 111 149 l 113 149 l 113 147 m 133 167 l 132 167 l 132 168 l 133 168 l 133 167 m 118 151 l 117 151 l 117 153 l 118 153 l 118 151 m 106 139 l 104 139 l 104 140 l 106 140 l 106 139 m 139 171 l 138 171 l 138 172 l 139 172 l 139 171 m 126 158 l 125 158 l 125 160 l 126 160 l 126 158 m 111 143 l 110 143 l 110 144 l 111 144 l 111 143 m 132 163 l 131 163 l 131 164 l 132 164 l 132 163 m 119 150 l 118 150 l 118 151 l 119 151 l 119 150 m 125 154 l 124 154 l 124 156 l 125 156 l 125 154 m 113 142 l 111 142 l 111 143 l 113 143 l 113 142 m 133 161 l 132 161 l 132 163 l 133 163 l 133 161 m 118 146 l 117 146 l 117 147 l 118 147 l 118 146 m 139 165 l 138 165 l 138 167 l 139 167 l 139 165 m 126 153 l 125 153 l 125 154 l 126 154 l 126 153 m 132 157 l 131 157 l 131 158 l 132 158 l 132 157 m 119 144 l 118 144 l 118 146 l 119 146 l 119 144 m 125 149 l 124 149 l 124 150 l 125 150 l 125 149 m 133 156 l 132 156 l 132 157 l 133 157 l 133 156 m 118 140 l 117 140 l 117 142 l 118 142 l 118 140 m 139 160 l 138 160 l 138 161 l 139 161 l 139 160 m 126 147 l 125 147 l 125 149 l 126 149 l 126 147 m 132 151 l 131 151 l 131 153 l 132 153 l 132 151 m 119 139 l 118 139 l 118 140 l 119 140 l 119 139 m 125 143 l 124 143 l 124 144 l 125 144 l 125 143 m 133 150 l 132 150 l 132 151 l 133 151 l 133 150 m 139 154 l 138 154 l 138 156 l 139 156 l 139 154 m 126 142 l 125 142 l 125 143 l 126 143 l 126 142 m 132 146 l 131 146 l 131 147 l 132 147 l 132 146 m 133 144 l 132 144 l 132 146 l 133 146 l 133 144 m 139 149 l 138 149 l 138 150 l 139 150 l 139 149 m 132 140 l 131 140 l 131 142 l 132 142 l 132 140 m 133 139 l 132 139 l 132 140 l 133 140 l 133 139 m 139 4 l 138 4 l 138 6 l 139 6 l 139 4 m 1 136 l 0 136 l 0 138 l 1 138 l 1 136 m 1 131 l 0 131 l 0 132 l 1 132 l 1 131 m 7 135 l 6 135 l 6 136 l 7 136 l 7 135 m 8 133 l 7 133 l 7 135 l 8 135 l 8 133 m 14 138 l 13 138 l 13 139 l 14 139 l 14 138 m 1 125 l 0 125 l 0 126 l 1 126 l 1 125 m 7 129 l 6 129 l 6 131 l 7 131 l 7 129 m 15 136 l 14 136 l 14 138 l 15 138 l 15 136 m 8 128 l 7 128 l 7 129 l 8 129 l 8 128 m 14 132 l 13 132 l 13 133 l 14 133 l 14 132 m 1 119 l 0 119 l 0 121 l 1 121 l 1 119 m 7 124 l 6 124 l 6 125 l 7 125 l 7 124 m 15 131 l 14 131 l 14 132 l 15 132 l 15 131 m 21 135 l 19 135 l 19 136 l 21 136 l 21 135 m 8 122 l 7 122 l 7 124 l 8 124 l 8 122 m 14 126 l 13 126 l 13 128 l 14 128 l 14 126 m 1 114 l 0 114 l 0 115 l 1 115 l 1 114 m 22 133 l 21 133 l 21 135 l 22 135 l 22 133 m 7 118 l 6 118 l 6 119 l 7 119 l 7 118 m 28 138 l 26 138 l 26 139 l 28 139 l 28 138 m 15 125 l 14 125 l 14 126 l 15 126 l 15 125 m 21 129 l 19 129 l 19 131 l 21 131 l 21 129 m 8 117 l 7 117 l 7 118 l 8 118 l 8 117 m 29 136 l 28 136 l 28 138 l 29 138 l 29 136 m 14 121 l 13 121 l 13 122 l 14 122 l 14 121 m 1 108 l 0 108 l 0 110 l 1 110 l 1 108 m 22 128 l 21 128 l 21 129 l 22 129 l 22 128 m 7 113 l 6 113 l 6 114 l 7 114 l 7 113 m 28 132 l 26 132 l 26 133 l 28 133 l 28 132 m 15 119 l 14 119 l 14 121 l 15 121 l 15 119 m 21 124 l 19 124 l 19 125 l 21 125 l 21 124 m 8 111 l 7 111 l 7 113 l 8 113 l 8 111 m 29 131 l 28 131 l 28 132 l 29 132 l 29 131 m 14 115 l 13 115 l 13 117 l 14 117 l 14 115 m 1 103 l 0 103 l 0 104 l 1 104 l 1 103 m 35 135 l 33 135 l 33 136 l 35 136 l 35 135 m 22 122 l 21 122 l 21 124 l 22 124 l 22 122 m 7 107 l 6 107 l 6 108 l 7 108 l 7 107 m 28 126 l 26 126 l 26 128 l 28 128 l 28 126 m 15 114 l 14 114 l 14 115 l 15 115 l 15 114 m 36 133 l 35 133 l 35 135 l 36 135 l 36 133 m 21 118 l 19 118 l 19 119 l 21 119 l 21 118 m 8 106 l 7 106 l 7 107 l 8 107 l 8 106 m 42 138 l 40 138 l 40 139 l 42 139 l 42 138 m 29 125 l 28 125 l 28 126 l 29 126 l 29 125 m 14 110 l 13 110 l 13 111 l 14 111 l 14 110 m 1 97 l 0 97 l 0 99 l 1 99 l 1 97 m 35 129 l 33 129 l 33 131 l 35 131 l 35 129 m 22 117 l 21 117 l 21 118 l 22 118 l 22 117 m 7 101 l 6 101 l 6 103 l 7 103 l 7 101 m 43 136 l 42 136 l 42 138 l 43 138 l 43 136 m 28 121 l 26 121 l 26 122 l 28 122 l 28 121 m 15 108 l 14 108 l 14 110 l 15 110 l 15 108 m 36 128 l 35 128 l 35 129 l 36 129 l 36 128 m 21 113 l 19 113 l 19 114 l 21 114 l 21 113 m 8 100 l 7 100 l 7 101 l 8 101 l 8 100 m 42 132 l 40 132 l 40 133 l 42 133 l 42 132 m 29 119 l 28 119 l 28 121 l 29 121 l 29 119 m 14 104 l 13 104 l 13 106 l 14 106 l 14 104 m 1 92 l 0 92 l 0 93 l 1 93 l 1 92 m 35 124 l 33 124 l 33 125 l 35 125 l 35 124 m 22 111 l 21 111 l 21 113 l 22 113 l 22 111 m 7 96 l 6 96 l 6 97 l 7 97 l 7 96 m 43 131 l 42 131 l 42 132 l 43 132 l 43 131 m 28 115 l 26 115 l 26 117 l 28 117 l 28 115 m 15 103 l 14 103 l 14 104 l 15 104 l 15 103 m 49 135 l 47 135 l 47 136 l 49 136 l 49 135 m 36 122 l 35 122 l 35 124 l 36 124 l 36 122 m 21 107 l 19 107 l 19 108 l 21 108 l 21 107 m 8 94 l 7 94 l 7 96 l 8 96 l 8 94 m 42 126 l 40 126 l 40 128 l 42 128 l 42 126 m 29 114 l 28 114 l 28 115 l 29 115 l 29 114 m 14 99 l 13 99 l 13 100 l 14 100 l 14 99 m 1 86 l 0 86 l 0 88 l 1 88 l 1 86 m 50 133 l 49 133 l 49 135 l 50 135 l 50 133 m 35 118 l 33 118 l 33 119 l 35 119 l 35 118 m 22 106 l 21 106 l 21 107 l 22 107 l 22 106 m 7 90 l 6 90 l 6 92 l 7 92 l 7 90 m 56 138 l 54 138 l 54 139 l 56 139 l 56 138 m 43 125 l 42 125 l 42 126 l 43 126 l 43 125 m 28 110 l 26 110 l 26 111 l 28 111 l 28 110 m 15 97 l 14 97 l 14 99 l 15 99 l 15 97 m 49 129 l 47 129 l 47 131 l 49 131 l 49 129 m 36 117 l 35 117 l 35 118 l 36 118 l 36 117 m 21 101 l 19 101 l 19 103 l 21 103 l 21 101 m 8 89 l 7 89 l 7 90 l 8 90 l 8 89 m 57 136 l 56 136 l 56 138 l 57 138 l 57 136 m 42 121 l 40 121 l 40 122 l 42 122 l 42 121 m 29 108 l 28 108 l 28 110 l 29 110 l 29 108 m 14 93 l 13 93 l 13 94 l 14 94 l 14 93 m 1 81 l 0 81 l 0 82 l 1 82 l 1 81 m 50 128 l 49 128 l 49 129 l 50 129 l 50 128 m 35 113 l 33 113 l 33 114 l 35 114 l 35 113 m 22 100 l 21 100 l 21 101 l 22 101 l 22 100 m 7 85 l 6 85 l 6 86 l 7 86 l 7 85 m 56 132 l 54 132 l 54 133 l 56 133 l 56 132 m 43 119 l 42 119 l 42 121 l 43 121 l 43 119 m 28 104 l 26 104 l 26 106 l 28 106 l 28 104 m 15 92 l 14 92 l 14 93 l 15 93 l 15 92 m 49 124 l 47 124 l 47 125 l 49 125 l 49 124 m 36 111 l 35 111 l 35 113 l 36 113 l 36 111 m 21 96 l 19 96 l 19 97 l 21 97 l 21 96 m 8 83 l 7 83 l 7 85 l 8 85 l 8 83 m 57 131 l 56 131 l 56 132 l 57 132 l 57 131 m 42 115 l 40 115 l 40 117 l 42 117 l 42 115 m 29 103 l 28 103 l 28 104 l 29 104 l 29 103 m 14 88 l 13 88 l 13 89 l 14 89 l 14 88 m 1 75 l 0 75 l 0 76 l 1 76 l 1 75 m 63 135 l 61 135 l 61 136 l 63 136 l 63 135 m 50 122 l 49 122 l 49 124 l 50 124 l 50 122 m 35 107 l 33 107 l 33 108 l 35 108 l 35 107 m 22 94 l 21 94 l 21 96 l 22 96 l 22 94 m 7 79 l 6 79 l 6 81 l 7 81 l 7 79 m 56 126 l 54 126 l 54 128 l 56 128 l 56 126 m 43 114 l 42 114 l 42 115 l 43 115 l 43 114 m 28 99 l 26 99 l 26 100 l 28 100 l 28 99 m 15 86 l 14 86 l 14 88 l 15 88 l 15 86 m 64 133 l 63 133 l 63 135 l 64 135 l 64 133 m 49 118 l 47 118 l 47 119 l 49 119 l 49 118 m 36 106 l 35 106 l 35 107 l 36 107 l 36 106 m 21 90 l 19 90 l 19 92 l 21 92 l 21 90 m 8 78 l 7 78 l 7 79 l 8 79 l 8 78 m 69 138 l 68 138 l 68 139 l 69 139 l 69 138 m 57 125 l 56 125 l 56 126 l 57 126 l 57 125 m 42 110 l 40 110 l 40 111 l 42 111 l 42 110 m 29 97 l 28 97 l 28 99 l 29 99 l 29 97 m 14 82 l 13 82 l 13 83 l 14 83 l 14 82 m 1 69 l 0 69 l 0 71 l 1 71 l 1 69 m 63 129 l 61 129 l 61 131 l 63 131 l 63 129 m 50 117 l 49 117 l 49 118 l 50 118 l 50 117 m 35 101 l 33 101 l 33 103 l 35 103 l 35 101 m 22 89 l 21 89 l 21 90 l 22 90 l 22 89 m 7 74 l 6 74 l 6 75 l 7 75 l 7 74 m 71 136 l 69 136 l 69 138 l 71 138 l 71 136 m 56 121 l 54 121 l 54 122 l 56 122 l 56 121 m 43 108 l 42 108 l 42 110 l 43 110 l 43 108 m 28 93 l 26 93 l 26 94 l 28 94 l 28 93 m 15 81 l 14 81 l 14 82 l 15 82 l 15 81 m 64 128 l 63 128 l 63 129 l 64 129 l 64 128 m 49 113 l 47 113 l 47 114 l 49 114 l 49 113 m 36 100 l 35 100 l 35 101 l 36 101 l 36 100 m 21 85 l 19 85 l 19 86 l 21 86 l 21 85 m 8 72 l 7 72 l 7 74 l 8 74 l 8 72 m 69 132 l 68 132 l 68 133 l 69 133 l 69 132 m 57 119 l 56 119 l 56 121 l 57 121 l 57 119 m 42 104 l 40 104 l 40 106 l 42 106 l 42 104 m 29 92 l 28 92 l 28 93 l 29 93 l 29 92 m 14 76 l 13 76 l 13 78 l 14 78 l 14 76 m 1 64 l 0 64 l 0 65 l 1 65 l 1 64 m 63 124 l 61 124 l 61 125 l 63 125 l 63 124 m 50 111 l 49 111 l 49 113 l 50 113 l 50 111 m 35 96 l 33 96 l 33 97 l 35 97 l 35 96 m 22 83 l 21 83 l 21 85 l 22 85 l 22 83 m 7 68 l 6 68 l 6 69 l 7 69 l 7 68 m 71 131 l 69 131 l 69 132 l 71 132 l 71 131 m 56 115 l 54 115 l 54 117 l 56 117 l 56 115 m 43 103 l 42 103 l 42 104 l 43 104 l 43 103 m 28 88 l 26 88 l 26 89 l 28 89 l 28 88 m 15 75 l 14 75 l 14 76 l 15 76 l 15 75 m 76 135 l 75 135 l 75 136 l 76 136 l 76 135 m 64 122 l 63 122 l 63 124 l 64 124 l 64 122 m 49 107 l 47 107 l 47 108 l 49 108 l 49 107 m 36 94 l 35 94 l 35 96 l 36 96 l 36 94 m 21 79 l 19 79 l 19 81 l 21 81 l 21 79 m 8 67 l 7 67 l 7 68 l 8 68 l 8 67 m 69 126 l 68 126 l 68 128 l 69 128 l 69 126 m 57 114 l 56 114 l 56 115 l 57 115 l 57 114 m 42 99 l 40 99 l 40 100 l 42 100 l 42 99 m 29 86 l 28 86 l 28 88 l 29 88 l 29 86 m 14 71 l 13 71 l 13 72 l 14 72 l 14 71 m 1 58 l 0 58 l 0 60 l 1 60 l 1 58 m 78 133 l 76 133 l 76 135 l 78 135 l 78 133 m 63 118 l 61 118 l 61 119 l 63 119 l 63 118 m 50 106 l 49 106 l 49 107 l 50 107 l 50 106 m 35 90 l 33 90 l 33 92 l 35 92 l 35 90 m 22 78 l 21 78 l 21 79 l 22 79 l 22 78 m 7 63 l 6 63 l 6 64 l 7 64 l 7 63 m 83 138 l 82 138 l 82 139 l 83 139 l 83 138 m 71 125 l 69 125 l 69 126 l 71 126 l 71 125 m 56 110 l 54 110 l 54 111 l 56 111 l 56 110 m 43 97 l 42 97 l 42 99 l 43 99 l 43 97 m 28 82 l 26 82 l 26 83 l 28 83 l 28 82 m 15 69 l 14 69 l 14 71 l 15 71 l 15 69 m 76 129 l 75 129 l 75 131 l 76 131 l 76 129 m 64 117 l 63 117 l 63 118 l 64 118 l 64 117 m 49 101 l 47 101 l 47 103 l 49 103 l 49 101 m 36 89 l 35 89 l 35 90 l 36 90 l 36 89 m 21 74 l 19 74 l 19 75 l 21 75 l 21 74 m 8 61 l 7 61 l 7 63 l 8 63 l 8 61 m 85 136 l 83 136 l 83 138 l 85 138 l 85 136 m 69 121 l 68 121 l 68 122 l 69 122 l 69 121 m 57 108 l 56 108 l 56 110 l 57 110 l 57 108 m 42 93 l 40 93 l 40 94 l 42 94 l 42 93 m 29 81 l 28 81 l 28 82 l 29 82 l 29 81 m 14 65 l 13 65 l 13 67 l 14 67 l 14 65 m 1 53 l 0 53 l 0 54 l 1 54 l 1 53 m 78 128 l 76 128 l 76 129 l 78 129 l 78 128 m 63 113 l 61 113 l 61 114 l 63 114 l 63 113 m 50 100 l 49 100 l 49 101 l 50 101 l 50 100 m 35 85 l 33 85 l 33 86 l 35 86 l 35 85 m 22 72 l 21 72 l 21 74 l 22 74 l 22 72 m 7 57 l 6 57 l 6 58 l 7 58 l 7 57 m 83 132 l 82 132 l 82 133 l 83 133 l 83 132 m 71 119 l 69 119 l 69 121 l 71 121 l 71 119 m 56 104 l 54 104 l 54 106 l 56 106 l 56 104 m 43 92 l 42 92 l 42 93 l 43 93 l 43 92 m 28 76 l 26 76 l 26 78 l 28 78 l 28 76 m 15 64 l 14 64 l 14 65 l 15 65 l 15 64 m 76 124 l 75 124 l 75 125 l 76 125 l 76 124 m 64 111 l 63 111 l 63 113 l 64 113 l 64 111 m 49 96 l 47 96 l 47 97 l 49 97 l 49 96 m 36 83 l 35 83 l 35 85 l 36 85 l 36 83 m 21 68 l 19 68 l 19 69 l 21 69 l 21 68 m 8 56 l 7 56 l 7 57 l 8 57 l 8 56 m 85 131 l 83 131 l 83 132 l 85 132 l 85 131 m 69 115 l 68 115 l 68 117 l 69 117 l 69 115 m 57 103 l 56 103 l 56 104 l 57 104 l 57 103 m 42 88 l 40 88 l 40 89 l 42 89 l 42 88 m 29 75 l 28 75 l 28 76 l 29 76 l 29 75 m 14 60 l 13 60 l 13 61 l 14 61 l 14 60 m 1 47 l 0 47 l 0 49 l 1 49 l 1 47 m 90 135 l 89 135 l 89 136 l 90 136 l 90 135 m 78 122 l 76 122 l 76 124 l 78 124 l 78 122 m 63 107 l 61 107 l 61 108 l 63 108 l 63 107 m 50 94 l 49 94 l 49 96 l 50 96 l 50 94 m 35 79 l 33 79 l 33 81 l 35 81 l 35 79 m 22 67 l 21 67 l 21 68 l 22 68 l 22 67 m 7 51 l 6 51 l 6 53 l 7 53 l 7 51 m 83 126 l 82 126 l 82 128 l 83 128 l 83 126 m 71 114 l 69 114 l 69 115 l 71 115 l 71 114 m 56 99 l 54 99 l 54 100 l 56 100 l 56 99 m 43 86 l 42 86 l 42 88 l 43 88 l 43 86 m 28 71 l 26 71 l 26 72 l 28 72 l 28 71 m 15 58 l 14 58 l 14 60 l 15 60 l 15 58 m 92 133 l 90 133 l 90 135 l 92 135 l 92 133 m 76 118 l 75 118 l 75 119 l 76 119 l 76 118 m 64 106 l 63 106 l 63 107 l 64 107 l 64 106 m 49 90 l 47 90 l 47 92 l 49 92 l 49 90 m 36 78 l 35 78 l 35 79 l 36 79 l 36 78 m 21 63 l 19 63 l 19 64 l 21 64 l 21 63 m 8 50 l 7 50 l 7 51 l 8 51 l 8 50 m 97 138 l 96 138 l 96 139 l 97 139 l 97 138 m 85 125 l 83 125 l 83 126 l 85 126 l 85 125 m 69 110 l 68 110 l 68 111 l 69 111 l 69 110 m 57 97 l 56 97 l 56 99 l 57 99 l 57 97 m 42 82 l 40 82 l 40 83 l 42 83 l 42 82 m 29 69 l 28 69 l 28 71 l 29 71 l 29 69 m 14 54 l 13 54 l 13 56 l 14 56 l 14 54 m 1 42 l 0 42 l 0 43 l 1 43 l 1 42 m 90 129 l 89 129 l 89 131 l 90 131 l 90 129 m 78 117 l 76 117 l 76 118 l 78 118 l 78 117 m 63 101 l 61 101 l 61 103 l 63 103 l 63 101 m 50 89 l 49 89 l 49 90 l 50 90 l 50 89 m 35 74 l 33 74 l 33 75 l 35 75 l 35 74 m 22 61 l 21 61 l 21 63 l 22 63 l 22 61 m 7 46 l 6 46 l 6 47 l 7 47 l 7 46 m 99 136 l 97 136 l 97 138 l 99 138 l 99 136 m 83 121 l 82 121 l 82 122 l 83 122 l 83 121 m 71 108 l 69 108 l 69 110 l 71 110 l 71 108 m 56 93 l 54 93 l 54 94 l 56 94 l 56 93 m 43 81 l 42 81 l 42 82 l 43 82 l 43 81 m 28 65 l 26 65 l 26 67 l 28 67 l 28 65 m 15 53 l 14 53 l 14 54 l 15 54 l 15 53 m 92 128 l 90 128 l 90 129 l 92 129 l 92 128 m 76 113 l 75 113 l 75 114 l 76 114 l 76 113 m 64 100 l 63 100 l 63 101 l 64 101 l 64 100 m 49 85 l 47 85 l 47 86 l 49 86 l 49 85 m 36 72 l 35 72 l 35 74 l 36 74 l 36 72 m 21 57 l 19 57 l 19 58 l 21 58 l 21 57 m 8 44 l 7 44 l 7 46 l 8 46 l 8 44 m 97 132 l 96 132 l 96 133 l 97 133 l 97 132 m 85 119 l 83 119 l 83 121 l 85 121 l 85 119 m 69 104 l 68 104 l 68 106 l 69 106 l 69 104 m 57 92 l 56 92 l 56 93 l 57 93 l 57 92 m 42 76 l 40 76 l 40 78 l 42 78 l 42 76 m 29 64 l 28 64 l 28 65 l 29 65 l 29 64 m 14 49 l 13 49 l 13 50 l 14 50 l 14 49 m 1 36 l 0 36 l 0 38 l 1 38 l 1 36 m 90 124 l 89 124 l 89 125 l 90 125 l 90 124 m 78 111 l 76 111 l 76 113 l 78 113 l 78 111 m 63 96 l 61 96 l 61 97 l 63 97 l 63 96 m 50 83 l 49 83 l 49 85 l 50 85 l 50 83 m 35 68 l 33 68 l 33 69 l 35 69 l 35 68 m 22 56 l 21 56 l 21 57 l 22 57 l 22 56 m 7 40 l 6 40 l 6 42 l 7 42 l 7 40 m 99 131 l 97 131 l 97 132 l 99 132 l 99 131 m 83 115 l 82 115 l 82 117 l 83 117 l 83 115 m 71 103 l 69 103 l 69 104 l 71 104 l 71 103 m 56 88 l 54 88 l 54 89 l 56 89 l 56 88 m 43 75 l 42 75 l 42 76 l 43 76 l 43 75 m 28 60 l 26 60 l 26 61 l 28 61 l 28 60 m 15 47 l 14 47 l 14 49 l 15 49 l 15 47 m 104 135 l 103 135 l 103 136 l 104 136 l 104 135 m 92 122 l 90 122 l 90 124 l 92 124 l 92 122 m 76 107 l 75 107 l 75 108 l 76 108 l 76 107 m 64 94 l 63 94 l 63 96 l 64 96 l 64 94 m 49 79 l 47 79 l 47 81 l 49 81 l 49 79 m 36 67 l 35 67 l 35 68 l 36 68 l 36 67 m 21 51 l 19 51 l 19 53 l 21 53 l 21 51 m 8 39 l 7 39 l 7 40 l 8 40 l 8 39 m 97 126 l 96 126 l 96 128 l 97 128 l 97 126 m 85 114 l 83 114 l 83 115 l 85 115 l 85 114 m 69 99 l 68 99 l 68 100 l 69 100 l 69 99 m 57 86 l 56 86 l 56 88 l 57 88 l 57 86 m 42 71 l 40 71 l 40 72 l 42 72 l 42 71 m 29 58 l 28 58 l 28 60 l 29 60 l 29 58 m 14 43 l 13 43 l 13 44 l 14 44 l 14 43 m 1 31 l 0 31 l 0 32 l 1 32 l 1 31 m 106 133 l 104 133 l 104 135 l 106 135 l 106 133 m 90 118 l 89 118 l 89 119 l 90 119 l 90 118 m 78 106 l 76 106 l 76 107 l 78 107 l 78 106 m 63 90 l 61 90 l 61 92 l 63 92 l 63 90 m 50 78 l 49 78 l 49 79 l 50 79 l 50 78 m 35 63 l 33 63 l 33 64 l 35 64 l 35 63 m 22 50 l 21 50 l 21 51 l 22 51 l 22 50 m 7 35 l 6 35 l 6 36 l 7 36 l 7 35 m 111 138 l 110 138 l 110 139 l 111 139 l 111 138 m 99 125 l 97 125 l 97 126 l 99 126 l 99 125 m 83 110 l 82 110 l 82 111 l 83 111 l 83 110 m 71 97 l 69 97 l 69 99 l 71 99 l 71 97 m 56 82 l 54 82 l 54 83 l 56 83 l 56 82 m 43 69 l 42 69 l 42 71 l 43 71 l 43 69 m 28 54 l 26 54 l 26 56 l 28 56 l 28 54 m 15 42 l 14 42 l 14 43 l 15 43 l 15 42 m 104 129 l 103 129 l 103 131 l 104 131 l 104 129 m 92 117 l 90 117 l 90 118 l 92 118 l 92 117 m 76 101 l 75 101 l 75 103 l 76 103 l 76 101 m 64 89 l 63 89 l 63 90 l 64 90 l 64 89 m 49 74 l 47 74 l 47 75 l 49 75 l 49 74 m 36 61 l 35 61 l 35 63 l 36 63 l 36 61 m 21 46 l 19 46 l 19 47 l 21 47 l 21 46 m 8 33 l 7 33 l 7 35 l 8 35 l 8 33 m 113 136 l 111 136 l 111 138 l 113 138 l 113 136 m 97 121 l 96 121 l 96 122 l 97 122 l 97 121 m 85 108 l 83 108 l 83 110 l 85 110 l 85 108 m 69 93 l 68 93 l 68 94 l 69 94 l 69 93 m 57 81 l 56 81 l 56 82 l 57 82 l 57 81 m 42 65 l 40 65 l 40 67 l 42 67 l 42 65 m 29 53 l 28 53 l 28 54 l 29 54 l 29 53 m 14 38 l 13 38 l 13 39 l 14 39 l 14 38 m 1 25 l 0 25 l 0 26 l 1 26 l 1 25 m 106 128 l 104 128 l 104 129 l 106 129 l 106 128 m 90 113 l 89 113 l 89 114 l 90 114 l 90 113 m 78 100 l 76 100 l 76 101 l 78 101 l 78 100 m 63 85 l 61 85 l 61 86 l 63 86 l 63 85 m 50 72 l 49 72 l 49 74 l 50 74 l 50 72 m 35 57 l 33 57 l 33 58 l 35 58 l 35 57 m 22 44 l 21 44 l 21 46 l 22 46 l 22 44 m 7 29 l 6 29 l 6 31 l 7 31 l 7 29 m 111 132 l 110 132 l 110 133 l 111 133 l 111 132 m 99 119 l 97 119 l 97 121 l 99 121 l 99 119 m 83 104 l 82 104 l 82 106 l 83 106 l 83 104 m 71 92 l 69 92 l 69 93 l 71 93 l 71 92 m 56 76 l 54 76 l 54 78 l 56 78 l 56 76 m 43 64 l 42 64 l 42 65 l 43 65 l 43 64 m 28 49 l 26 49 l 26 50 l 28 50 l 28 49 m 15 36 l 14 36 l 14 38 l 15 38 l 15 36 m 104 124 l 103 124 l 103 125 l 104 125 l 104 124 m 92 111 l 90 111 l 90 113 l 92 113 l 92 111 m 76 96 l 75 96 l 75 97 l 76 97 l 76 96 m 64 83 l 63 83 l 63 85 l 64 85 l 64 83 m 49 68 l 47 68 l 47 69 l 49 69 l 49 68 m 36 56 l 35 56 l 35 57 l 36 57 l 36 56 m 21 40 l 19 40 l 19 42 l 21 42 l 21 40 m 8 28 l 7 28 l 7 29 l 8 29 l 8 28 m 113 131 l 111 131 l 111 132 l 113 132 l 113 131 m 97 115 l 96 115 l 96 117 l 97 117 l 97 115 m 85 103 l 83 103 l 83 104 l 85 104 l 85 103 m 69 88 l 68 88 l 68 89 l 69 89 l 69 88 m 57 75 l 56 75 l 56 76 l 57 76 l 57 75 m 42 60 l 40 60 l 40 61 l 42 61 l 42 60 m 29 47 l 28 47 l 28 49 l 29 49 l 29 47 m 14 32 l 13 32 l 13 33 l 14 33 l 14 32 m 1 19 l 0 19 l 0 21 l 1 21 l 1 19 m 118 135 l 117 135 l 117 136 l 118 136 l 118 135 m 106 122 l 104 122 l 104 124 l 106 124 l 106 122 m 90 107 l 89 107 l 89 108 l 90 108 l 90 107 m 78 94 l 76 94 l 76 96 l 78 96 l 78 94 m 63 79 l 61 79 l 61 81 l 63 81 l 63 79 m 50 67 l 49 67 l 49 68 l 50 68 l 50 67 m 35 51 l 33 51 l 33 53 l 35 53 l 35 51 m 22 39 l 21 39 l 21 40 l 22 40 l 22 39 m 7 24 l 6 24 l 6 25 l 7 25 l 7 24 m 111 126 l 110 126 l 110 128 l 111 128 l 111 126 m 99 114 l 97 114 l 97 115 l 99 115 l 99 114 m 83 99 l 82 99 l 82 100 l 83 100 l 83 99 m 71 86 l 69 86 l 69 88 l 71 88 l 71 86 m 56 71 l 54 71 l 54 72 l 56 72 l 56 71 m 43 58 l 42 58 l 42 60 l 43 60 l 43 58 m 28 43 l 26 43 l 26 44 l 28 44 l 28 43 m 15 31 l 14 31 l 14 32 l 15 32 l 15 31 m 119 133 l 118 133 l 118 135 l 119 135 l 119 133 m 104 118 l 103 118 l 103 119 l 104 119 l 104 118 m 92 106 l 90 106 l 90 107 l 92 107 l 92 106 m 76 90 l 75 90 l 75 92 l 76 92 l 76 90 m 64 78 l 63 78 l 63 79 l 64 79 l 64 78 m 49 63 l 47 63 l 47 64 l 49 64 l 49 63 m 36 50 l 35 50 l 35 51 l 36 51 l 36 50 m 21 35 l 19 35 l 19 36 l 21 36 l 21 35 m 8 22 l 7 22 l 7 24 l 8 24 l 8 22 m 125 138 l 124 138 l 124 139 l 125 139 l 125 138 m 113 125 l 111 125 l 111 126 l 113 126 l 113 125 m 97 110 l 96 110 l 96 111 l 97 111 l 97 110 m 85 97 l 83 97 l 83 99 l 85 99 l 85 97 m 69 82 l 68 82 l 68 83 l 69 83 l 69 82 m 57 69 l 56 69 l 56 71 l 57 71 l 57 69 m 42 54 l 40 54 l 40 56 l 42 56 l 42 54 m 29 42 l 28 42 l 28 43 l 29 43 l 29 42 m 14 26 l 13 26 l 13 28 l 14 28 l 14 26 m 1 14 l 0 14 l 0 15 l 1 15 l 1 14 m 118 129 l 117 129 l 117 131 l 118 131 l 118 129 m 106 117 l 104 117 l 104 118 l 106 118 l 106 117 m 90 101 l 89 101 l 89 103 l 90 103 l 90 101 m 78 89 l 76 89 l 76 90 l 78 90 l 78 89 m 63 74 l 61 74 l 61 75 l 63 75 l 63 74 m 50 61 l 49 61 l 49 63 l 50 63 l 50 61 m 35 46 l 33 46 l 33 47 l 35 47 l 35 46 m 22 33 l 21 33 l 21 35 l 22 35 l 22 33 m 7 18 l 6 18 l 6 19 l 7 19 l 7 18 m 126 136 l 125 136 l 125 138 l 126 138 l 126 136 m 111 121 l 110 121 l 110 122 l 111 122 l 111 121 m 99 108 l 97 108 l 97 110 l 99 110 l 99 108 m 83 93 l 82 93 l 82 94 l 83 94 l 83 93 m 71 81 l 69 81 l 69 82 l 71 82 l 71 81 m 56 65 l 54 65 l 54 67 l 56 67 l 56 65 m 43 53 l 42 53 l 42 54 l 43 54 l 43 53 m 28 38 l 26 38 l 26 39 l 28 39 l 28 38 m 15 25 l 14 25 l 14 26 l 15 26 l 15 25 m 119 128 l 118 128 l 118 129 l 119 129 l 119 128 m 104 113 l 103 113 l 103 114 l 104 114 l 104 113 m 92 100 l 90 100 l 90 101 l 92 101 l 92 100 m 76 85 l 75 85 l 75 86 l 76 86 l 76 85 m 64 72 l 63 72 l 63 74 l 64 74 l 64 72 m 49 57 l 47 57 l 47 58 l 49 58 l 49 57 m 36 44 l 35 44 l 35 46 l 36 46 l 36 44 m 21 29 l 19 29 l 19 31 l 21 31 l 21 29 m 8 17 l 7 17 l 7 18 l 8 18 l 8 17 m 125 132 l 124 132 l 124 133 l 125 133 l 125 132 m 113 119 l 111 119 l 111 121 l 113 121 l 113 119 m 97 104 l 96 104 l 96 106 l 97 106 l 97 104 m 85 92 l 83 92 l 83 93 l 85 93 l 85 92 m 69 76 l 68 76 l 68 78 l 69 78 l 69 76 m 57 64 l 56 64 l 56 65 l 57 65 l 57 64 m 42 49 l 40 49 l 40 50 l 42 50 l 42 49 m 29 36 l 28 36 l 28 38 l 29 38 l 29 36 m 14 21 l 13 21 l 13 22 l 14 22 l 14 21 m 1 8 l 0 8 l 0 10 l 1 10 l 1 8 m 118 124 l 117 124 l 117 125 l 118 125 l 118 124 m 106 111 l 104 111 l 104 113 l 106 113 l 106 111 m 90 96 l 89 96 l 89 97 l 90 97 l 90 96 m 78 83 l 76 83 l 76 85 l 78 85 l 78 83 m 63 68 l 61 68 l 61 69 l 63 69 l 63 68 m 50 56 l 49 56 l 49 57 l 50 57 l 50 56 m 35 40 l 33 40 l 33 42 l 35 42 l 35 40 m 22 28 l 21 28 l 21 29 l 22 29 l 22 28 m 7 13 l 6 13 l 6 14 l 7 14 l 7 13 m 126 131 l 125 131 l 125 132 l 126 132 l 126 131 m 111 115 l 110 115 l 110 117 l 111 117 l 111 115 m 99 103 l 97 103 l 97 104 l 99 104 l 99 103 m 83 88 l 82 88 l 82 89 l 83 89 l 83 88 m 71 75 l 69 75 l 69 76 l 71 76 l 71 75 m 56 60 l 54 60 l 54 61 l 56 61 l 56 60 m 43 47 l 42 47 l 42 49 l 43 49 l 43 47 m 28 32 l 26 32 l 26 33 l 28 33 l 28 32 m 15 19 l 14 19 l 14 21 l 15 21 l 15 19 m 132 135 l 131 135 l 131 136 l 132 136 l 132 135 m 119 122 l 118 122 l 118 124 l 119 124 l 119 122 m 104 107 l 103 107 l 103 108 l 104 108 l 104 107 m 92 94 l 90 94 l 90 96 l 92 96 l 92 94 m 76 79 l 75 79 l 75 81 l 76 81 l 76 79 m 64 67 l 63 67 l 63 68 l 64 68 l 64 67 m 49 51 l 47 51 l 47 53 l 49 53 l 49 51 m 36 39 l 35 39 l 35 40 l 36 40 l 36 39 m 21 24 l 19 24 l 19 25 l 21 25 l 21 24 m 8 11 l 7 11 l 7 13 l 8 13 l 8 11 m 125 126 l 124 126 l 124 128 l 125 128 l 125 126 m 113 114 l 111 114 l 111 115 l 113 115 l 113 114 m 97 99 l 96 99 l 96 100 l 97 100 l 97 99 m 85 86 l 83 86 l 83 88 l 85 88 l 85 86 m 69 71 l 68 71 l 68 72 l 69 72 l 69 71 m 57 58 l 56 58 l 56 60 l 57 60 l 57 58 m 42 43 l 40 43 l 40 44 l 42 44 l 42 43 m 29 31 l 28 31 l 28 32 l 29 32 l 29 31 m 14 15 l 13 15 l 13 17 l 14 17 l 14 15 m 1 3 l 0 3 l 0 4 l 1 4 l 1 3 m 133 133 l 132 133 l 132 135 l 133 135 l 133 133 m 118 118 l 117 118 l 117 119 l 118 119 l 118 118 m 106 106 l 104 106 l 104 107 l 106 107 l 106 106 m 90 90 l 89 90 l 89 92 l 90 92 l 90 90 m 78 78 l 76 78 l 76 79 l 78 79 l 78 78 m 63 63 l 61 63 l 61 64 l 63 64 l 63 63 m 50 50 l 49 50 l 49 51 l 50 51 l 50 50 m 35 35 l 33 35 l 33 36 l 35 36 l 35 35 m 22 22 l 21 22 l 21 24 l 22 24 l 22 22 m 7 7 l 6 7 l 6 8 l 7 8 l 7 7 m 139 138 l 138 138 l 138 139 l 139 139 l 139 138 m 126 125 l 125 125 l 125 126 l 126 126 l 126 125 m 111 110 l 110 110 l 110 111 l 111 111 l 111 110 m 99 97 l 97 97 l 97 99 l 99 99 l 99 97 m 83 82 l 82 82 l 82 83 l 83 83 l 83 82 m 71 69 l 69 69 l 69 71 l 71 71 l 71 69 m 56 54 l 54 54 l 54 56 l 56 56 l 56 54 m 43 42 l 42 42 l 42 43 l 43 43 l 43 42 m 28 26 l 26 26 l 26 28 l 28 28 l 28 26 m 15 14 l 14 14 l 14 15 l 15 15 l 15 14 m 132 129 l 131 129 l 131 131 l 132 131 l 132 129 m 119 117 l 118 117 l 118 118 l 119 118 l 119 117 m 104 101 l 103 101 l 103 103 l 104 103 l 104 101 m 92 89 l 90 89 l 90 90 l 92 90 l 92 89 m 76 74 l 75 74 l 75 75 l 76 75 l 76 74 m 64 61 l 63 61 l 63 63 l 64 63 l 64 61 m 49 46 l 47 46 l 47 47 l 49 47 l 49 46 m 36 33 l 35 33 l 35 35 l 36 35 l 36 33 m 21 18 l 19 18 l 19 19 l 21 19 l 21 18 m 8 6 l 7 6 l 7 7 l 8 7 l 8 6 m 125 121 l 124 121 l 124 122 l 125 122 l 125 121 m 113 108 l 111 108 l 111 110 l 113 110 l 113 108 m 97 93 l 96 93 l 96 94 l 97 94 l 97 93 m 85 81 l 83 81 l 83 82 l 85 82 l 85 81 m 69 65 l 68 65 l 68 67 l 69 67 l 69 65 m 57 53 l 56 53 l 56 54 l 57 54 l 57 53 m 42 38 l 40 38 l 40 39 l 42 39 l 42 38 m 29 25 l 28 25 l 28 26 l 29 26 l 29 25 m 14 10 l 13 10 l 13 11 l 14 11 l 14 10 m 133 128 l 132 128 l 132 129 l 133 129 l 133 128 m 118 113 l 117 113 l 117 114 l 118 114 l 118 113 m 106 100 l 104 100 l 104 101 l 106 101 l 106 100 m 90 85 l 89 85 l 89 86 l 90 86 l 90 85 m 78 72 l 76 72 l 76 74 l 78 74 l 78 72 m 63 57 l 61 57 l 61 58 l 63 58 l 63 57 m 50 44 l 49 44 l 49 46 l 50 46 l 50 44 m 35 29 l 33 29 l 33 31 l 35 31 l 35 29 m 22 17 l 21 17 l 21 18 l 22 18 l 22 17 m 7 1 l 6 1 l 6 3 l 7 3 l 7 1 m 139 132 l 138 132 l 138 133 l 139 133 l 139 132 m 126 119 l 125 119 l 125 121 l 126 121 l 126 119 m 111 104 l 110 104 l 110 106 l 111 106 l 111 104 m 99 92 l 97 92 l 97 93 l 99 93 l 99 92 m 83 76 l 82 76 l 82 78 l 83 78 l 83 76 m 71 64 l 69 64 l 69 65 l 71 65 l 71 64 m 56 49 l 54 49 l 54 50 l 56 50 l 56 49 m 43 36 l 42 36 l 42 38 l 43 38 l 43 36 m 28 21 l 26 21 l 26 22 l 28 22 l 28 21 m 15 8 l 14 8 l 14 10 l 15 10 l 15 8 m 132 124 l 131 124 l 131 125 l 132 125 l 132 124 m 119 111 l 118 111 l 118 113 l 119 113 l 119 111 m 104 96 l 103 96 l 103 97 l 104 97 l 104 96 m 92 83 l 90 83 l 90 85 l 92 85 l 92 83 m 76 68 l 75 68 l 75 69 l 76 69 l 76 68 m 64 56 l 63 56 l 63 57 l 64 57 l 64 56 m 49 40 l 47 40 l 47 42 l 49 42 l 49 40 m 36 28 l 35 28 l 35 29 l 36 29 l 36 28 m 21 13 l 19 13 l 19 14 l 21 14 l 21 13 m 8 0 l 7 0 l 7 1 l 8 1 l 8 0 m 125 115 l 124 115 l 124 117 l 125 117 l 125 115 m 113 103 l 111 103 l 111 104 l 113 104 l 113 103 m 97 88 l 96 88 l 96 89 l 97 89 l 97 88 m 85 75 l 83 75 l 83 76 l 85 76 l 85 75 m 69 60 l 68 60 l 68 61 l 69 61 l 69 60 m 57 47 l 56 47 l 56 49 l 57 49 l 57 47 m 42 32 l 40 32 l 40 33 l 42 33 l 42 32 m 29 19 l 28 19 l 28 21 l 29 21 l 29 19 m 14 4 l 13 4 l 13 6 l 14 6 l 14 4 m 133 122 l 132 122 l 132 124 l 133 124 l 133 122 m 118 107 l 117 107 l 117 108 l 118 108 l 118 107 m 106 94 l 104 94 l 104 96 l 106 96 l 106 94 m 90 79 l 89 79 l 89 81 l 90 81 l 90 79 m 78 67 l 76 67 l 76 68 l 78 68 l 78 67 m 63 51 l 61 51 l 61 53 l 63 53 l 63 51 m 50 39 l 49 39 l 49 40 l 50 40 l 50 39 m 35 24 l 33 24 l 33 25 l 35 25 l 35 24 m 22 11 l 21 11 l 21 13 l 22 13 l 22 11 m 139 126 l 138 126 l 138 128 l 139 128 l 139 126 m 126 114 l 125 114 l 125 115 l 126 115 l 126 114 m 111 99 l 110 99 l 110 100 l 111 100 l 111 99 m 99 86 l 97 86 l 97 88 l 99 88 l 99 86 m 83 71 l 82 71 l 82 72 l 83 72 l 83 71 m 71 58 l 69 58 l 69 60 l 71 60 l 71 58 m 56 43 l 54 43 l 54 44 l 56 44 l 56 43 m 43 31 l 42 31 l 42 32 l 43 32 l 43 31 m 28 15 l 26 15 l 26 17 l 28 17 l 28 15 m 15 3 l 14 3 l 14 4 l 15 4 l 15 3 m 132 118 l 131 118 l 131 119 l 132 119 l 132 118 m 119 106 l 118 106 l 118 107 l 119 107 l 119 106 m 104 90 l 103 90 l 103 92 l 104 92 l 104 90 m 92 78 l 90 78 l 90 79 l 92 79 l 92 78 m 76 63 l 75 63 l 75 64 l 76 64 l 76 63 m 64 50 l 63 50 l 63 51 l 64 51 l 64 50 m 49 35 l 47 35 l 47 36 l 49 36 l 49 35 m 36 22 l 35 22 l 35 24 l 36 24 l 36 22 m 21 7 l 19 7 l 19 8 l 21 8 l 21 7 m 125 110 l 124 110 l 124 111 l 125 111 l 125 110 m 113 97 l 111 97 l 111 99 l 113 99 l 113 97 m 97 82 l 96 82 l 96 83 l 97 83 l 97 82 m 85 69 l 83 69 l 83 71 l 85 71 l 85 69 m 69 54 l 68 54 l 68 56 l 69 56 l 69 54 m 57 42 l 56 42 l 56 43 l 57 43 l 57 42 m 42 26 l 40 26 l 40 28 l 42 28 l 42 26 m 29 14 l 28 14 l 28 15 l 29 15 l 29 14 m 133 117 l 132 117 l 132 118 l 133 118 l 133 117 m 118 101 l 117 101 l 117 103 l 118 103 l 118 101 m 106 89 l 104 89 l 104 90 l 106 90 l 106 89 m 90 74 l 89 74 l 89 75 l 90 75 l 90 74 m 78 61 l 76 61 l 76 63 l 78 63 l 78 61 m 63 46 l 61 46 l 61 47 l 63 47 l 63 46 m 50 33 l 49 33 l 49 35 l 50 35 l 50 33 m 35 18 l 33 18 l 33 19 l 35 19 l 35 18 m 22 6 l 21 6 l 21 7 l 22 7 l 22 6 m 139 121 l 138 121 l 138 122 l 139 122 l 139 121 m 126 108 l 125 108 l 125 110 l 126 110 l 126 108 m 111 93 l 110 93 l 110 94 l 111 94 l 111 93 m 99 81 l 97 81 l 97 82 l 99 82 l 99 81 m 83 65 l 82 65 l 82 67 l 83 67 l 83 65 m 71 53 l 69 53 l 69 54 l 71 54 l 71 53 m 56 38 l 54 38 l 54 39 l 56 39 l 56 38 m 43 25 l 42 25 l 42 26 l 43 26 l 43 25 m 28 10 l 26 10 l 26 11 l 28 11 l 28 10 m 132 113 l 131 113 l 131 114 l 132 114 l 132 113 m 119 100 l 118 100 l 118 101 l 119 101 l 119 100 m 104 85 l 103 85 l 103 86 l 104 86 l 104 85 m 92 72 l 90 72 l 90 74 l 92 74 l 92 72 m 76 57 l 75 57 l 75 58 l 76 58 l 76 57 m 64 44 l 63 44 l 63 46 l 64 46 l 64 44 m 49 29 l 47 29 l 47 31 l 49 31 l 49 29 m 36 17 l 35 17 l 35 18 l 36 18 l 36 17 m 21 1 l 19 1 l 19 3 l 21 3 l 21 1 m 125 104 l 124 104 l 124 106 l 125 106 l 125 104 m 113 92 l 111 92 l 111 93 l 113 93 l 113 92 m 97 76 l 96 76 l 96 78 l 97 78 l 97 76 m 85 64 l 83 64 l 83 65 l 85 65 l 85 64 m 69 49 l 68 49 l 68 50 l 69 50 l 69 49 m 57 36 l 56 36 l 56 38 l 57 38 l 57 36 m 42 21 l 40 21 l 40 22 l 42 22 l 42 21 m 29 8 l 28 8 l 28 10 l 29 10 l 29 8 m 133 111 l 132 111 l 132 113 l 133 113 l 133 111 m 118 96 l 117 96 l 117 97 l 118 97 l 118 96 m 106 83 l 104 83 l 104 85 l 106 85 l 106 83 m 90 68 l 89 68 l 89 69 l 90 69 l 90 68 m 78 56 l 76 56 l 76 57 l 78 57 l 78 56 m 63 40 l 61 40 l 61 42 l 63 42 l 63 40 m 50 28 l 49 28 l 49 29 l 50 29 l 50 28 m 35 13 l 33 13 l 33 14 l 35 14 l 35 13 m 22 0 l 21 0 l 21 1 l 22 1 l 22 0 m 139 115 l 138 115 l 138 117 l 139 117 l 139 115 m 126 103 l 125 103 l 125 104 l 126 104 l 126 103 m 111 88 l 110 88 l 110 89 l 111 89 l 111 88 m 99 75 l 97 75 l 97 76 l 99 76 l 99 75 m 83 60 l 82 60 l 82 61 l 83 61 l 83 60 m 71 47 l 69 47 l 69 49 l 71 49 l 71 47 m 56 32 l 54 32 l 54 33 l 56 33 l 56 32 m 43 19 l 42 19 l 42 21 l 43 21 l 43 19 m 28 4 l 26 4 l 26 6 l 28 6 l 28 4 m 132 107 l 131 107 l 131 108 l 132 108 l 132 107 m 119 94 l 118 94 l 118 96 l 119 96 l 119 94 m 104 79 l 103 79 l 103 81 l 104 81 l 104 79 m 92 67 l 90 67 l 90 68 l 92 68 l 92 67 m 76 51 l 75 51 l 75 53 l 76 53 l 76 51 m 64 39 l 63 39 l 63 40 l 64 40 l 64 39 m 49 24 l 47 24 l 47 25 l 49 25 l 49 24 m 36 11 l 35 11 l 35 13 l 36 13 l 36 11 m 125 99 l 124 99 l 124 100 l 125 100 l 125 99 m 113 86 l 111 86 l 111 88 l 113 88 l 113 86 m 97 71 l 96 71 l 96 72 l 97 72 l 97 71 m 85 58 l 83 58 l 83 60 l 85 60 l 85 58 m 69 43 l 68 43 l 68 44 l 69 44 l 69 43 m 57 31 l 56 31 l 56 32 l 57 32 l 57 31 m 42 15 l 40 15 l 40 17 l 42 17 l 42 15 m 29 3 l 28 3 l 28 4 l 29 4 l 29 3 m 133 106 l 132 106 l 132 107 l 133 107 l 133 106 m 118 90 l 117 90 l 117 92 l 118 92 l 118 90 m 106 78 l 104 78 l 104 79 l 106 79 l 106 78 m 90 63 l 89 63 l 89 64 l 90 64 l 90 63 m 78 50 l 76 50 l 76 51 l 78 51 l 78 50 m 63 35 l 61 35 l 61 36 l 63 36 l 63 35 m 50 22 l 49 22 l 49 24 l 50 24 l 50 22 m 35 7 l 33 7 l 33 8 l 35 8 l 35 7 m 139 110 l 138 110 l 138 111 l 139 111 l 139 110 m 126 97 l 125 97 l 125 99 l 126 99 l 126 97 m 111 82 l 110 82 l 110 83 l 111 83 l 111 82 m 99 69 l 97 69 l 97 71 l 99 71 l 99 69 m 83 54 l 82 54 l 82 56 l 83 56 l 83 54 m 71 42 l 69 42 l 69 43 l 71 43 l 71 42 m 56 26 l 54 26 l 54 28 l 56 28 l 56 26 m 43 14 l 42 14 l 42 15 l 43 15 l 43 14 m 132 101 l 131 101 l 131 103 l 132 103 l 132 101 m 119 89 l 118 89 l 118 90 l 119 90 l 119 89 m 104 74 l 103 74 l 103 75 l 104 75 l 104 74 m 92 61 l 90 61 l 90 63 l 92 63 l 92 61 m 76 46 l 75 46 l 75 47 l 76 47 l 76 46 m 64 33 l 63 33 l 63 35 l 64 35 l 64 33 m 49 18 l 47 18 l 47 19 l 49 19 l 49 18 m 36 6 l 35 6 l 35 7 l 36 7 l 36 6 m 125 93 l 124 93 l 124 94 l 125 94 l 125 93 m 113 81 l 111 81 l 111 82 l 113 82 l 113 81 m 97 65 l 96 65 l 96 67 l 97 67 l 97 65 m 85 53 l 83 53 l 83 54 l 85 54 l 85 53 m 69 38 l 68 38 l 68 39 l 69 39 l 69 38 m 57 25 l 56 25 l 56 26 l 57 26 l 57 25 m 42 10 l 40 10 l 40 11 l 42 11 l 42 10 m 133 100 l 132 100 l 132 101 l 133 101 l 133 100 m 118 85 l 117 85 l 117 86 l 118 86 l 118 85 m 106 72 l 104 72 l 104 74 l 106 74 l 106 72 m 90 57 l 89 57 l 89 58 l 90 58 l 90 57 m 78 44 l 76 44 l 76 46 l 78 46 l 78 44 m 63 29 l 61 29 l 61 31 l 63 31 l 63 29 m 50 17 l 49 17 l 49 18 l 50 18 l 50 17 m 35 1 l 33 1 l 33 3 l 35 3 l 35 1 m 139 104 l 138 104 l 138 106 l 139 106 l 139 104 m 126 92 l 125 92 l 125 93 l 126 93 l 126 92 m 111 76 l 110 76 l 110 78 l 111 78 l 111 76 m 99 64 l 97 64 l 97 65 l 99 65 l 99 64 m 83 49 l 82 49 l 82 50 l 83 50 l 83 49 m 71 36 l 69 36 l 69 38 l 71 38 l 71 36 m 56 21 l 54 21 l 54 22 l 56 22 l 56 21 m 43 8 l 42 8 l 42 10 l 43 10 l 43 8 m 132 96 l 131 96 l 131 97 l 132 97 l 132 96 m 119 83 l 118 83 l 118 85 l 119 85 l 119 83 m 104 68 l 103 68 l 103 69 l 104 69 l 104 68 m 92 56 l 90 56 l 90 57 l 92 57 l 92 56 m 76 40 l 75 40 l 75 42 l 76 42 l 76 40 m 64 28 l 63 28 l 63 29 l 64 29 l 64 28 m 49 13 l 47 13 l 47 14 l 49 14 l 49 13 m 36 0 l 35 0 l 35 1 l 36 1 l 36 0 m 125 88 l 124 88 l 124 89 l 125 89 l 125 88 m 113 75 l 111 75 l 111 76 l 113 76 l 113 75 m 97 60 l 96 60 l 96 61 l 97 61 l 97 60 m 85 47 l 83 47 l 83 49 l 85 49 l 85 47 m 69 32 l 68 32 l 68 33 l 69 33 l 69 32 m 57 19 l 56 19 l 56 21 l 57 21 l 57 19 m 42 4 l 40 4 l 40 6 l 42 6 l 42 4 m 133 94 l 132 94 l 132 96 l 133 96 l 133 94 m 118 79 l 117 79 l 117 81 l 118 81 l 118 79 m 106 67 l 104 67 l 104 68 l 106 68 l 106 67 m 90 51 l 89 51 l 89 53 l 90 53 l 90 51 m 78 39 l 76 39 l 76 40 l 78 40 l 78 39 m 63 24 l 61 24 l 61 25 l 63 25 l 63 24 m 50 11 l 49 11 l 49 13 l 50 13 l 50 11 m 139 99 l 138 99 l 138 100 l 139 100 l 139 99 m 126 86 l 125 86 l 125 88 l 126 88 l 126 86 m 111 71 l 110 71 l 110 72 l 111 72 l 111 71 m 99 58 l 97 58 l 97 60 l 99 60 l 99 58 m 83 43 l 82 43 l 82 44 l 83 44 l 83 43 m 71 31 l 69 31 l 69 32 l 71 32 l 71 31 m 56 15 l 54 15 l 54 17 l 56 17 l 56 15 m 43 3 l 42 3 l 42 4 l 43 4 l 43 3 m 132 90 l 131 90 l 131 92 l 132 92 l 132 90 m 119 78 l 118 78 l 118 79 l 119 79 l 119 78 m 104 63 l 103 63 l 103 64 l 104 64 l 104 63 m 92 50 l 90 50 l 90 51 l 92 51 l 92 50 m 76 35 l 75 35 l 75 36 l 76 36 l 76 35 m 64 22 l 63 22 l 63 24 l 64 24 l 64 22 m 49 7 l 47 7 l 47 8 l 49 8 l 49 7 m 125 82 l 124 82 l 124 83 l 125 83 l 125 82 m 113 69 l 111 69 l 111 71 l 113 71 l 113 69 m 97 54 l 96 54 l 96 56 l 97 56 l 97 54 m 85 42 l 83 42 l 83 43 l 85 43 l 85 42 m 69 26 l 68 26 l 68 28 l 69 28 l 69 26 m 57 14 l 56 14 l 56 15 l 57 15 l 57 14 m 133 89 l 132 89 l 132 90 l 133 90 l 133 89 m 118 74 l 117 74 l 117 75 l 118 75 l 118 74 m 106 61 l 104 61 l 104 63 l 106 63 l 106 61 m 90 46 l 89 46 l 89 47 l 90 47 l 90 46 m 78 33 l 76 33 l 76 35 l 78 35 l 78 33 m 63 18 l 61 18 l 61 19 l 63 19 l 63 18 m 50 6 l 49 6 l 49 7 l 50 7 l 50 6 m 139 93 l 138 93 l 138 94 l 139 94 l 139 93 m 126 81 l 125 81 l 125 82 l 126 82 l 126 81 m 111 65 l 110 65 l 110 67 l 111 67 l 111 65 m 99 53 l 97 53 l 97 54 l 99 54 l 99 53 m 83 38 l 82 38 l 82 39 l 83 39 l 83 38 m 71 25 l 69 25 l 69 26 l 71 26 l 71 25 m 56 10 l 54 10 l 54 11 l 56 11 l 56 10 m 132 85 l 131 85 l 131 86 l 132 86 l 132 85 m 119 72 l 118 72 l 118 74 l 119 74 l 119 72 m 104 57 l 103 57 l 103 58 l 104 58 l 104 57 m 92 44 l 90 44 l 90 46 l 92 46 l 92 44 m 76 29 l 75 29 l 75 31 l 76 31 l 76 29 m 64 17 l 63 17 l 63 18 l 64 18 l 64 17 m 49 1 l 47 1 l 47 3 l 49 3 l 49 1 m 125 76 l 124 76 l 124 78 l 125 78 l 125 76 m 113 64 l 111 64 l 111 65 l 113 65 l 113 64 m 97 49 l 96 49 l 96 50 l 97 50 l 97 49 m 85 36 l 83 36 l 83 38 l 85 38 l 85 36 m 69 21 l 68 21 l 68 22 l 69 22 l 69 21 m 57 8 l 56 8 l 56 10 l 57 10 l 57 8 m 133 83 l 132 83 l 132 85 l 133 85 l 133 83 m 118 68 l 117 68 l 117 69 l 118 69 l 118 68 m 106 56 l 104 56 l 104 57 l 106 57 l 106 56 m 90 40 l 89 40 l 89 42 l 90 42 l 90 40 m 78 28 l 76 28 l 76 29 l 78 29 l 78 28 m 63 13 l 61 13 l 61 14 l 63 14 l 63 13 m 50 0 l 49 0 l 49 1 l 50 1 l 50 0 m 139 88 l 138 88 l 138 89 l 139 89 l 139 88 m 126 75 l 125 75 l 125 76 l 126 76 l 126 75 m 111 60 l 110 60 l 110 61 l 111 61 l 111 60 m 99 47 l 97 47 l 97 49 l 99 49 l 99 47 m 83 32 l 82 32 l 82 33 l 83 33 l 83 32 m 71 19 l 69 19 l 69 21 l 71 21 l 71 19 m 56 4 l 54 4 l 54 6 l 56 6 l 56 4 m 132 79 l 131 79 l 131 81 l 132 81 l 132 79 m 119 67 l 118 67 l 118 68 l 119 68 l 119 67 m 104 51 l 103 51 l 103 53 l 104 53 l 104 51 m 92 39 l 90 39 l 90 40 l 92 40 l 92 39 m 76 24 l 75 24 l 75 25 l 76 25 l 76 24 m 64 11 l 63 11 l 63 13 l 64 13 l 64 11 m 125 71 l 124 71 l 124 72 l 125 72 l 125 71 m 113 58 l 111 58 l 111 60 l 113 60 l 113 58 m 97 43 l 96 43 l 96 44 l 97 44 l 97 43 m 85 31 l 83 31 l 83 32 l 85 32 l 85 31 m 69 15 l 68 15 l 68 17 l 69 17 l 69 15 m 57 3 l 56 3 l 56 4 l 57 4 l 57 3 m 133 78 l 132 78 l 132 79 l 133 79 l 133 78 m 118 63 l 117 63 l 117 64 l 118 64 l 118 63 m 106 50 l 104 50 l 104 51 l 106 51 l 106 50 m 90 35 l 89 35 l 89 36 l 90 36 l 90 35 m 78 22 l 76 22 l 76 24 l 78 24 l 78 22 m 63 7 l 61 7 l 61 8 l 63 8 l 63 7 m 139 82 l 138 82 l 138 83 l 139 83 l 139 82 m 126 69 l 125 69 l 125 71 l 126 71 l 126 69 m 111 54 l 110 54 l 110 56 l 111 56 l 111 54 m 99 42 l 97 42 l 97 43 l 99 43 l 99 42 m 83 26 l 82 26 l 82 28 l 83 28 l 83 26 m 71 14 l 69 14 l 69 15 l 71 15 l 71 14 m 132 74 l 131 74 l 131 75 l 132 75 l 132 74 m 119 61 l 118 61 l 118 63 l 119 63 l 119 61 m 104 46 l 103 46 l 103 47 l 104 47 l 104 46 m 92 33 l 90 33 l 90 35 l 92 35 l 92 33 m 76 18 l 75 18 l 75 19 l 76 19 l 76 18 m 64 6 l 63 6 l 63 7 l 64 7 l 64 6 m 125 65 l 124 65 l 124 67 l 125 67 l 125 65 m 113 53 l 111 53 l 111 54 l 113 54 l 113 53 m 97 38 l 96 38 l 96 39 l 97 39 l 97 38 m 85 25 l 83 25 l 83 26 l 85 26 l 85 25 m 69 10 l 68 10 l 68 11 l 69 11 l 69 10 m 133 72 l 132 72 l 132 74 l 133 74 l 133 72 m 118 57 l 117 57 l 117 58 l 118 58 l 118 57 m 106 44 l 104 44 l 104 46 l 106 46 l 106 44 m 90 29 l 89 29 l 89 31 l 90 31 l 90 29 m 78 17 l 76 17 l 76 18 l 78 18 l 78 17 m 63 1 l 61 1 l 61 3 l 63 3 l 63 1 m 139 76 l 138 76 l 138 78 l 139 78 l 139 76 m 126 64 l 125 64 l 125 65 l 126 65 l 126 64 m 111 49 l 110 49 l 110 50 l 111 50 l 111 49 m 99 36 l 97 36 l 97 38 l 99 38 l 99 36 m 83 21 l 82 21 l 82 22 l 83 22 l 83 21 m 71 8 l 69 8 l 69 10 l 71 10 l 71 8 m 132 68 l 131 68 l 131 69 l 132 69 l 132 68 m 119 56 l 118 56 l 118 57 l 119 57 l 119 56 m 104 40 l 103 40 l 103 42 l 104 42 l 104 40 m 92 28 l 90 28 l 90 29 l 92 29 l 92 28 m 76 13 l 75 13 l 75 14 l 76 14 l 76 13 m 64 0 l 63 0 l 63 1 l 64 1 l 64 0 m 125 60 l 124 60 l 124 61 l 125 61 l 125 60 m 113 47 l 111 47 l 111 49 l 113 49 l 113 47 m 97 32 l 96 32 l 96 33 l 97 33 l 97 32 m 85 19 l 83 19 l 83 21 l 85 21 l 85 19 m 69 4 l 68 4 l 68 6 l 69 6 l 69 4 m 133 67 l 132 67 l 132 68 l 133 68 l 133 67 m 118 51 l 117 51 l 117 53 l 118 53 l 118 51 m 106 39 l 104 39 l 104 40 l 106 40 l 106 39 m 90 24 l 89 24 l 89 25 l 90 25 l 90 24 m 78 11 l 76 11 l 76 13 l 78 13 l 78 11 m 139 71 l 138 71 l 138 72 l 139 72 l 139 71 m 126 58 l 125 58 l 125 60 l 126 60 l 126 58 m 111 43 l 110 43 l 110 44 l 111 44 l 111 43 m 99 31 l 97 31 l 97 32 l 99 32 l 99 31 m 83 15 l 82 15 l 82 17 l 83 17 l 83 15 m 71 3 l 69 3 l 69 4 l 71 4 l 71 3 m 132 63 l 131 63 l 131 64 l 132 64 l 132 63 m 119 50 l 118 50 l 118 51 l 119 51 l 119 50 m 104 35 l 103 35 l 103 36 l 104 36 l 104 35 m 92 22 l 90 22 l 90 24 l 92 24 l 92 22 m 76 7 l 75 7 l 75 8 l 76 8 l 76 7 m 125 54 l 124 54 l 124 56 l 125 56 l 125 54 m 113 42 l 111 42 l 111 43 l 113 43 l 113 42 m 97 26 l 96 26 l 96 28 l 97 28 l 97 26 m 85 14 l 83 14 l 83 15 l 85 15 l 85 14 m 133 61 l 132 61 l 132 63 l 133 63 l 133 61 m 118 46 l 117 46 l 117 47 l 118 47 l 118 46 m 106 33 l 104 33 l 104 35 l 106 35 l 106 33 m 90 18 l 89 18 l 89 19 l 90 19 l 90 18 m 78 6 l 76 6 l 76 7 l 78 7 l 78 6 m 139 65 l 138 65 l 138 67 l 139 67 l 139 65 m 126 53 l 125 53 l 125 54 l 126 54 l 126 53 m 111 38 l 110 38 l 110 39 l 111 39 l 111 38 m 99 25 l 97 25 l 97 26 l 99 26 l 99 25 m 83 10 l 82 10 l 82 11 l 83 11 l 83 10 m 132 57 l 131 57 l 131 58 l 132 58 l 132 57 m 119 44 l 118 44 l 118 46 l 119 46 l 119 44 m 104 29 l 103 29 l 103 31 l 104 31 l 104 29 m 92 17 l 90 17 l 90 18 l 92 18 l 92 17 m 76 1 l 75 1 l 75 3 l 76 3 l 76 1 m 125 49 l 124 49 l 124 50 l 125 50 l 125 49 m 113 36 l 111 36 l 111 38 l 113 38 l 113 36 m 97 21 l 96 21 l 96 22 l 97 22 l 97 21 m 85 8 l 83 8 l 83 10 l 85 10 l 85 8 m 133 56 l 132 56 l 132 57 l 133 57 l 133 56 m 118 40 l 117 40 l 117 42 l 118 42 l 118 40 m 106 28 l 104 28 l 104 29 l 106 29 l 106 28 m 90 13 l 89 13 l 89 14 l 90 14 l 90 13 m 78 0 l 76 0 l 76 1 l 78 1 l 78 0 m 139 60 l 138 60 l 138 61 l 139 61 l 139 60 m 126 47 l 125 47 l 125 49 l 126 49 l 126 47 m 111 32 l 110 32 l 110 33 l 111 33 l 111 32 m 99 19 l 97 19 l 97 21 l 99 21 l 99 19 m 83 4 l 82 4 l 82 6 l 83 6 l 83 4 m 132 51 l 131 51 l 131 53 l 132 53 l 132 51 m 119 39 l 118 39 l 118 40 l 119 40 l 119 39 m 104 24 l 103 24 l 103 25 l 104 25 l 104 24 m 92 11 l 90 11 l 90 13 l 92 13 l 92 11 m 125 43 l 124 43 l 124 44 l 125 44 l 125 43 m 113 31 l 111 31 l 111 32 l 113 32 l 113 31 m 97 15 l 96 15 l 96 17 l 97 17 l 97 15 m 85 3 l 83 3 l 83 4 l 85 4 l 85 3 m 133 50 l 132 50 l 132 51 l 133 51 l 133 50 m 118 35 l 117 35 l 117 36 l 118 36 l 118 35 m 106 22 l 104 22 l 104 24 l 106 24 l 106 22 m 90 7 l 89 7 l 89 8 l 90 8 l 90 7 m 139 54 l 138 54 l 138 56 l 139 56 l 139 54 m 126 42 l 125 42 l 125 43 l 126 43 l 126 42 m 111 26 l 110 26 l 110 28 l 111 28 l 111 26 m 99 14 l 97 14 l 97 15 l 99 15 l 99 14 m 132 46 l 131 46 l 131 47 l 132 47 l 132 46 m 119 33 l 118 33 l 118 35 l 119 35 l 119 33 m 104 18 l 103 18 l 103 19 l 104 19 l 104 18 m 92 6 l 90 6 l 90 7 l 92 7 l 92 6 m 125 38 l 124 38 l 124 39 l 125 39 l 125 38 m 113 25 l 111 25 l 111 26 l 113 26 l 113 25 m 97 10 l 96 10 l 96 11 l 97 11 l 97 10 m 133 44 l 132 44 l 132 46 l 133 46 l 133 44 m 118 29 l 117 29 l 117 31 l 118 31 l 118 29 m 106 17 l 104 17 l 104 18 l 106 18 l 106 17 m 90 1 l 89 1 l 89 3 l 90 3 l 90 1 m 139 49 l 138 49 l 138 50 l 139 50 l 139 49 m 126 36 l 125 36 l 125 38 l 126 38 l 126 36 m 111 21 l 110 21 l 110 22 l 111 22 l 111 21 m 99 8 l 97 8 l 97 10 l 99 10 l 99 8 m 132 40 l 131 40 l 131 42 l 132 42 l 132 40 m 119 28 l 118 28 l 118 29 l 119 29 l 119 28 m 104 13 l 103 13 l 103 14 l 104 14 l 104 13 m 92 0 l 90 0 l 90 1 l 92 1 l 92 0 m 125 32 l 124 32 l 124 33 l 125 33 l 125 32 m 113 19 l 111 19 l 111 21 l 113 21 l 113 19 m 97 4 l 96 4 l 96 6 l 97 6 l 97 4 m 133 39 l 132 39 l 132 40 l 133 40 l 133 39 m 118 24 l 117 24 l 117 25 l 118 25 l 118 24 m 106 11 l 104 11 l 104 13 l 106 13 l 106 11 m 139 43 l 138 43 l 138 44 l 139 44 l 139 43 m 126 31 l 125 31 l 125 32 l 126 32 l 126 31 m 111 15 l 110 15 l 110 17 l 111 17 l 111 15 m 99 3 l 97 3 l 97 4 l 99 4 l 99 3 m 132 35 l 131 35 l 131 36 l 132 36 l 132 35 m 119 22 l 118 22 l 118 24 l 119 24 l 119 22 m 104 7 l 103 7 l 103 8 l 104 8 l 104 7 m 125 26 l 124 26 l 124 28 l 125 28 l 125 26 m 113 14 l 111 14 l 111 15 l 113 15 l 113 14 m 133 33 l 132 33 l 132 35 l 133 35 l 133 33 m 118 18 l 117 18 l 117 19 l 118 19 l 118 18 m 106 6 l 104 6 l 104 7 l 106 7 l 106 6 m 139 38 l 138 38 l 138 39 l 139 39 l 139 38 m 126 25 l 125 25 l 125 26 l 126 26 l 126 25 m 111 10 l 110 10 l 110 11 l 111 11 l 111 10 m 132 29 l 131 29 l 131 31 l 132 31 l 132 29 m 119 17 l 118 17 l 118 18 l 119 18 l 119 17 m 104 1 l 103 1 l 103 3 l 104 3 l 104 1 m 125 21 l 124 21 l 124 22 l 125 22 l 125 21 m 113 8 l 111 8 l 111 10 l 113 10 l 113 8 m 133 28 l 132 28 l 132 29 l 133 29 l 133 28 m 118 13 l 117 13 l 117 14 l 118 14 l 118 13 m 106 0 l 104 0 l 104 1 l 106 1 l 106 0 m 139 32 l 138 32 l 138 33 l 139 33 l 139 32 m 126 19 l 125 19 l 125 21 l 126 21 l 126 19 m 111 4 l 110 4 l 110 6 l 111 6 l 111 4 m 132 24 l 131 24 l 131 25 l 132 25 l 132 24 m 119 11 l 118 11 l 118 13 l 119 13 l 119 11 m 125 15 l 124 15 l 124 17 l 125 17 l 125 15 m 113 3 l 111 3 l 111 4 l 113 4 l 113 3 m 133 22 l 132 22 l 132 24 l 133 24 l 133 22 m 118 7 l 117 7 l 117 8 l 118 8 l 118 7 m 139 26 l 138 26 l 138 28 l 139 28 l 139 26 m 126 14 l 125 14 l 125 15 l 126 15 l 126 14 m 132 18 l 131 18 l 131 19 l 132 19 l 132 18 m 119 6 l 118 6 l 118 7 l 119 7 l 119 6 m 125 10 l 124 10 l 124 11 l 125 11 l 125 10 m 133 17 l 132 17 l 132 18 l 133 18 l 133 17 m 118 1 l 117 1 l 117 3 l 118 3 l 118 1 m 139 21 l 138 21 l 138 22 l 139 22 l 139 21 m 126 8 l 125 8 l 125 10 l 126 10 l 126 8 m 132 13 l 131 13 l 131 14 l 132 14 l 132 13 m 119 0 l 118 0 l 118 1 l 119 1 l 119 0 m 125 4 l 124 4 l 124 6 l 125 6 l 125 4 m 133 11 l 132 11 l 132 13 l 133 13 l 133 11 m 139 15 l 138 15 l 138 17 l 139 17 l 139 15 m 126 3 l 125 3 l 125 4 l 126 4 l 126 3 m 132 7 l 131 7 l 131 8 l 132 8 l 132 7 m 133 6 l 132 6 l 132 7 l 133 7 l 133 6 m 139 10 l 138 10 l 138 11 l 139 11 l 139 10 m 132 1 l 131 1 l 131 3 l 132 3 l 132 1 m 133 0 l 132 0 l 132 1 l 133 1 l 133 0 m 139 -135 l 138 -135 l 138 -133 l 139 -133 l 139 -135 m 1 -3 l 0 -3 l 0 -1 l 1 -1 l 1 -3 m 1 -8 l 0 -8 l 0 -7 l 1 -7 l 1 -8 m 7 -4 l 6 -4 l 6 -3 l 7 -3 l 7 -4 m 8 -6 l 7 -6 l 7 -4 l 8 -4 l 8 -6 m 14 -1 l 13 -1 l 13 0 l 14 0 l 14 -1 m 1 -14 l 0 -14 l 0 -12 l 1 -12 l 1 -14 m 7 -10 l 6 -10 l 6 -8 l 7 -8 l 7 -10 m 15 -3 l 14 -3 l 14 -1 l 15 -1 l 15 -3 m 8 -11 l 7 -11 l 7 -10 l 8 -10 l 8 -11 m 14 -7 l 13 -7 l 13 -6 l 14 -6 l 14 -7 m 1 -19 l 0 -19 l 0 -18 l 1 -18 l 1 -19 m 7 -15 l 6 -15 l 6 -14 l 7 -14 l 7 -15 m 15 -8 l 14 -8 l 14 -7 l 15 -7 l 15 -8 m 21 -4 l 19 -4 l 19 -3 l 21 -3 l 21 -4 m 8 -17 l 7 -17 l 7 -15 l 8 -15 l 8 -17 m 14 -12 l 13 -12 l 13 -11 l 14 -11 l 14 -12 m 1 -25 l 0 -25 l 0 -24 l 1 -24 l 1 -25 m 22 -6 l 21 -6 l 21 -4 l 22 -4 l 22 -6 m 7 -21 l 6 -21 l 6 -19 l 7 -19 l 7 -21 m 28 -1 l 26 -1 l 26 0 l 28 0 l 28 -1 m 15 -14 l 14 -14 l 14 -12 l 15 -12 l 15 -14 m 21 -10 l 19 -10 l 19 -8 l 21 -8 l 21 -10 m 8 -22 l 7 -22 l 7 -21 l 8 -21 l 8 -22 m 29 -3 l 28 -3 l 28 -1 l 29 -1 l 29 -3 m 14 -18 l 13 -18 l 13 -17 l 14 -17 l 14 -18 m 1 -31 l 0 -31 l 0 -29 l 1 -29 l 1 -31 m 22 -11 l 21 -11 l 21 -10 l 22 -10 l 22 -11 m 7 -26 l 6 -26 l 6 -25 l 7 -25 l 7 -26 m 28 -7 l 26 -7 l 26 -6 l 28 -6 l 28 -7 m 15 -19 l 14 -19 l 14 -18 l 15 -18 l 15 -19 m 21 -15 l 19 -15 l 19 -14 l 21 -14 l 21 -15 m 8 -28 l 7 -28 l 7 -26 l 8 -26 l 8 -28 m 29 -8 l 28 -8 l 28 -7 l 29 -7 l 29 -8 m 14 -24 l 13 -24 l 13 -22 l 14 -22 l 14 -24 m 1 -36 l 0 -36 l 0 -35 l 1 -35 l 1 -36 m 35 -4 l 33 -4 l 33 -3 l 35 -3 l 35 -4 m 22 -17 l 21 -17 l 21 -15 l 22 -15 l 22 -17 m 7 -32 l 6 -32 l 6 -31 l 7 -31 l 7 -32 m 28 -12 l 26 -12 l 26 -11 l 28 -11 l 28 -12 m 15 -25 l 14 -25 l 14 -24 l 15 -24 l 15 -25 m 36 -6 l 35 -6 l 35 -4 l 36 -4 l 36 -6 m 21 -21 l 19 -21 l 19 -19 l 21 -19 l 21 -21 m 8 -33 l 7 -33 l 7 -32 l 8 -32 l 8 -33 m 42 -1 l 40 -1 l 40 0 l 42 0 l 42 -1 m 29 -14 l 28 -14 l 28 -12 l 29 -12 l 29 -14 m 14 -29 l 13 -29 l 13 -28 l 14 -28 l 14 -29 m 1 -42 l 0 -42 l 0 -40 l 1 -40 l 1 -42 m 35 -10 l 33 -10 l 33 -8 l 35 -8 l 35 -10 m 22 -22 l 21 -22 l 21 -21 l 22 -21 l 22 -22 m 7 -37 l 6 -37 l 6 -36 l 7 -36 l 7 -37 m 43 -3 l 42 -3 l 42 -1 l 43 -1 l 43 -3 m 28 -18 l 26 -18 l 26 -17 l 28 -17 l 28 -18 m 15 -31 l 14 -31 l 14 -29 l 15 -29 l 15 -31 m 36 -11 l 35 -11 l 35 -10 l 36 -10 l 36 -11 m 21 -26 l 19 -26 l 19 -25 l 21 -25 l 21 -26 m 8 -39 l 7 -39 l 7 -37 l 8 -37 l 8 -39 m 42 -7 l 40 -7 l 40 -6 l 42 -6 l 42 -7 m 29 -19 l 28 -19 l 28 -18 l 29 -18 l 29 -19 m 14 -35 l 13 -35 l 13 -33 l 14 -33 l 14 -35 m 1 -47 l 0 -47 l 0 -46 l 1 -46 l 1 -47 m 35 -15 l 33 -15 l 33 -14 l 35 -14 l 35 -15 m 22 -28 l 21 -28 l 21 -26 l 22 -26 l 22 -28 m 7 -43 l 6 -43 l 6 -42 l 7 -42 l 7 -43 m 43 -8 l 42 -8 l 42 -7 l 43 -7 l 43 -8 m 28 -24 l 26 -24 l 26 -22 l 28 -22 l 28 -24 m 15 -36 l 14 -36 l 14 -35 l 15 -35 l 15 -36 m 49 -4 l 47 -4 l 47 -3 l 49 -3 l 49 -4 m 36 -17 l 35 -17 l 35 -15 l 36 -15 l 36 -17 m 21 -32 l 19 -32 l 19 -31 l 21 -31 l 21 -32 m 8 -44 l 7 -44 l 7 -43 l 8 -43 l 8 -44 m 42 -12 l 40 -12 l 40 -11 l 42 -11 l 42 -12 m 29 -25 l 28 -25 l 28 -24 l 29 -24 l 29 -25 m 14 -40 l 13 -40 l 13 -39 l 14 -39 l 14 -40 m 1 -53 l 0 -53 l 0 -51 l 1 -51 l 1 -53 m 50 -6 l 49 -6 l 49 -4 l 50 -4 l 50 -6 m 35 -21 l 33 -21 l 33 -19 l 35 -19 l 35 -21 m 22 -33 l 21 -33 l 21 -32 l 22 -32 l 22 -33 m 7 -49 l 6 -49 l 6 -47 l 7 -47 l 7 -49 m 56 -1 l 54 -1 l 54 0 l 56 0 l 56 -1 m 43 -14 l 42 -14 l 42 -12 l 43 -12 l 43 -14 m 28 -29 l 26 -29 l 26 -28 l 28 -28 l 28 -29 m 15 -42 l 14 -42 l 14 -40 l 15 -40 l 15 -42 m 49 -10 l 47 -10 l 47 -8 l 49 -8 l 49 -10 m 36 -22 l 35 -22 l 35 -21 l 36 -21 l 36 -22 m 21 -37 l 19 -37 l 19 -36 l 21 -36 l 21 -37 m 8 -50 l 7 -50 l 7 -49 l 8 -49 l 8 -50 m 57 -3 l 56 -3 l 56 -1 l 57 -1 l 57 -3 m 42 -18 l 40 -18 l 40 -17 l 42 -17 l 42 -18 m 29 -31 l 28 -31 l 28 -29 l 29 -29 l 29 -31 m 14 -46 l 13 -46 l 13 -44 l 14 -44 l 14 -46 m 1 -58 l 0 -58 l 0 -57 l 1 -57 l 1 -58 m 50 -11 l 49 -11 l 49 -10 l 50 -10 l 50 -11 m 35 -26 l 33 -26 l 33 -25 l 35 -25 l 35 -26 m 22 -39 l 21 -39 l 21 -37 l 22 -37 l 22 -39 m 7 -54 l 6 -54 l 6 -53 l 7 -53 l 7 -54 m 56 -7 l 54 -7 l 54 -6 l 56 -6 l 56 -7 m 43 -19 l 42 -19 l 42 -18 l 43 -18 l 43 -19 m 28 -35 l 26 -35 l 26 -33 l 28 -33 l 28 -35 m 15 -47 l 14 -47 l 14 -46 l 15 -46 l 15 -47 m 49 -15 l 47 -15 l 47 -14 l 49 -14 l 49 -15 m 36 -28 l 35 -28 l 35 -26 l 36 -26 l 36 -28 m 21 -43 l 19 -43 l 19 -42 l 21 -42 l 21 -43 m 8 -56 l 7 -56 l 7 -54 l 8 -54 l 8 -56 m 57 -8 l 56 -8 l 56 -7 l 57 -7 l 57 -8 m 42 -24 l 40 -24 l 40 -22 l 42 -22 l 42 -24 m 29 -36 l 28 -36 l 28 -35 l 29 -35 l 29 -36 m 14 -51 l 13 -51 l 13 -50 l 14 -50 l 14 -51 m 1 -64 l 0 -64 l 0 -62 l 1 -62 l 1 -64 m 63 -4 l 61 -4 l 61 -3 l 63 -3 l 63 -4 m 50 -17 l 49 -17 l 49 -15 l 50 -15 l 50 -17 m 35 -32 l 33 -32 l 33 -31 l 35 -31 l 35 -32 m 22 -44 l 21 -44 l 21 -43 l 22 -43 l 22 -44 m 7 -60 l 6 -60 l 6 -58 l 7 -58 l 7 -60 m 56 -12 l 54 -12 l 54 -11 l 56 -11 l 56 -12 m 43 -25 l 42 -25 l 42 -24 l 43 -24 l 43 -25 m 28 -40 l 26 -40 l 26 -39 l 28 -39 l 28 -40 m 15 -53 l 14 -53 l 14 -51 l 15 -51 l 15 -53 m 64 -6 l 63 -6 l 63 -4 l 64 -4 l 64 -6 m 49 -21 l 47 -21 l 47 -19 l 49 -19 l 49 -21 m 36 -33 l 35 -33 l 35 -32 l 36 -32 l 36 -33 m 21 -49 l 19 -49 l 19 -47 l 21 -47 l 21 -49 m 8 -61 l 7 -61 l 7 -60 l 8 -60 l 8 -61 m 69 -1 l 68 -1 l 68 0 l 69 0 l 69 -1 m 57 -14 l 56 -14 l 56 -12 l 57 -12 l 57 -14 m 42 -29 l 40 -29 l 40 -28 l 42 -28 l 42 -29 m 29 -42 l 28 -42 l 28 -40 l 29 -40 l 29 -42 m 14 -57 l 13 -57 l 13 -56 l 14 -56 l 14 -57 m 1 -69 l 0 -69 l 0 -68 l 1 -68 l 1 -69 m 63 -10 l 61 -10 l 61 -8 l 63 -8 l 63 -10 m 50 -22 l 49 -22 l 49 -21 l 50 -21 l 50 -22 m 35 -37 l 33 -37 l 33 -36 l 35 -36 l 35 -37 m 22 -50 l 21 -50 l 21 -49 l 22 -49 l 22 -50 m 7 -65 l 6 -65 l 6 -64 l 7 -64 l 7 -65 m 71 -3 l 69 -3 l 69 -1 l 71 -1 l 71 -3 m 56 -18 l 54 -18 l 54 -17 l 56 -17 l 56 -18 m 43 -31 l 42 -31 l 42 -29 l 43 -29 l 43 -31 m 28 -46 l 26 -46 l 26 -44 l 28 -44 l 28 -46 m 15 -58 l 14 -58 l 14 -57 l 15 -57 l 15 -58 m 64 -11 l 63 -11 l 63 -10 l 64 -10 l 64 -11 m 49 -26 l 47 -26 l 47 -25 l 49 -25 l 49 -26 m 36 -39 l 35 -39 l 35 -37 l 36 -37 l 36 -39 m 21 -54 l 19 -54 l 19 -53 l 21 -53 l 21 -54 m 8 -67 l 7 -67 l 7 -65 l 8 -65 l 8 -67 m 69 -7 l 68 -7 l 68 -6 l 69 -6 l 69 -7 m 57 -19 l 56 -19 l 56 -18 l 57 -18 l 57 -19 m 42 -35 l 40 -35 l 40 -33 l 42 -33 l 42 -35 m 29 -47 l 28 -47 l 28 -46 l 29 -46 l 29 -47 m 14 -62 l 13 -62 l 13 -61 l 14 -61 l 14 -62 m 1 -75 l 0 -75 l 0 -74 l 1 -74 l 1 -75 m 63 -15 l 61 -15 l 61 -14 l 63 -14 l 63 -15 m 50 -28 l 49 -28 l 49 -26 l 50 -26 l 50 -28 m 35 -43 l 33 -43 l 33 -42 l 35 -42 l 35 -43 m 22 -56 l 21 -56 l 21 -54 l 22 -54 l 22 -56 m 7 -71 l 6 -71 l 6 -69 l 7 -69 l 7 -71 m 71 -8 l 69 -8 l 69 -7 l 71 -7 l 71 -8 m 56 -24 l 54 -24 l 54 -22 l 56 -22 l 56 -24 m 43 -36 l 42 -36 l 42 -35 l 43 -35 l 43 -36 m 28 -51 l 26 -51 l 26 -50 l 28 -50 l 28 -51 m 15 -64 l 14 -64 l 14 -62 l 15 -62 l 15 -64 m 76 -4 l 75 -4 l 75 -3 l 76 -3 l 76 -4 m 64 -17 l 63 -17 l 63 -15 l 64 -15 l 64 -17 m 49 -32 l 47 -32 l 47 -31 l 49 -31 l 49 -32 m 36 -44 l 35 -44 l 35 -43 l 36 -43 l 36 -44 m 21 -60 l 19 -60 l 19 -58 l 21 -58 l 21 -60 m 8 -72 l 7 -72 l 7 -71 l 8 -71 l 8 -72 m 69 -12 l 68 -12 l 68 -11 l 69 -11 l 69 -12 m 57 -25 l 56 -25 l 56 -24 l 57 -24 l 57 -25 m 42 -40 l 40 -40 l 40 -39 l 42 -39 l 42 -40 m 29 -53 l 28 -53 l 28 -51 l 29 -51 l 29 -53 m 14 -68 l 13 -68 l 13 -67 l 14 -67 l 14 -68 m 1 -81 l 0 -81 l 0 -79 l 1 -79 l 1 -81 m 78 -6 l 76 -6 l 76 -4 l 78 -4 l 78 -6 m 63 -21 l 61 -21 l 61 -19 l 63 -19 l 63 -21 m 50 -33 l 49 -33 l 49 -32 l 50 -32 l 50 -33 m 35 -49 l 33 -49 l 33 -47 l 35 -47 l 35 -49 m 22 -61 l 21 -61 l 21 -60 l 22 -60 l 22 -61 m 7 -76 l 6 -76 l 6 -75 l 7 -75 l 7 -76 m 83 -1 l 82 -1 l 82 0 l 83 0 l 83 -1 m 71 -14 l 69 -14 l 69 -12 l 71 -12 l 71 -14 m 56 -29 l 54 -29 l 54 -28 l 56 -28 l 56 -29 m 43 -42 l 42 -42 l 42 -40 l 43 -40 l 43 -42 m 28 -57 l 26 -57 l 26 -56 l 28 -56 l 28 -57 m 15 -69 l 14 -69 l 14 -68 l 15 -68 l 15 -69 m 76 -10 l 75 -10 l 75 -8 l 76 -8 l 76 -10 m 64 -22 l 63 -22 l 63 -21 l 64 -21 l 64 -22 m 49 -37 l 47 -37 l 47 -36 l 49 -36 l 49 -37 m 36 -50 l 35 -50 l 35 -49 l 36 -49 l 36 -50 m 21 -65 l 19 -65 l 19 -64 l 21 -64 l 21 -65 m 8 -78 l 7 -78 l 7 -76 l 8 -76 l 8 -78 m 85 -3 l 83 -3 l 83 -1 l 85 -1 l 85 -3 m 69 -18 l 68 -18 l 68 -17 l 69 -17 l 69 -18 m 57 -31 l 56 -31 l 56 -29 l 57 -29 l 57 -31 m 42 -46 l 40 -46 l 40 -44 l 42 -44 l 42 -46 m 29 -58 l 28 -58 l 28 -57 l 29 -57 l 29 -58 m 14 -74 l 13 -74 l 13 -72 l 14 -72 l 14 -74 m 1 -86 l 0 -86 l 0 -85 l 1 -85 l 1 -86 m 78 -11 l 76 -11 l 76 -10 l 78 -10 l 78 -11 m 63 -26 l 61 -26 l 61 -25 l 63 -25 l 63 -26 m 50 -39 l 49 -39 l 49 -37 l 50 -37 l 50 -39 m 35 -54 l 33 -54 l 33 -53 l 35 -53 l 35 -54 m 22 -67 l 21 -67 l 21 -65 l 22 -65 l 22 -67 m 7 -82 l 6 -82 l 6 -81 l 7 -81 l 7 -82 m 83 -7 l 82 -7 l 82 -6 l 83 -6 l 83 -7 m 71 -19 l 69 -19 l 69 -18 l 71 -18 l 71 -19 m 56 -35 l 54 -35 l 54 -33 l 56 -33 l 56 -35 m 43 -47 l 42 -47 l 42 -46 l 43 -46 l 43 -47 m 28 -62 l 26 -62 l 26 -61 l 28 -61 l 28 -62 m 15 -75 l 14 -75 l 14 -74 l 15 -74 l 15 -75 m 76 -15 l 75 -15 l 75 -14 l 76 -14 l 76 -15 m 64 -28 l 63 -28 l 63 -26 l 64 -26 l 64 -28 m 49 -43 l 47 -43 l 47 -42 l 49 -42 l 49 -43 m 36 -56 l 35 -56 l 35 -54 l 36 -54 l 36 -56 m 21 -71 l 19 -71 l 19 -69 l 21 -69 l 21 -71 m 8 -83 l 7 -83 l 7 -82 l 8 -82 l 8 -83 m 85 -8 l 83 -8 l 83 -7 l 85 -7 l 85 -8 m 69 -24 l 68 -24 l 68 -22 l 69 -22 l 69 -24 m 57 -36 l 56 -36 l 56 -35 l 57 -35 l 57 -36 m 42 -51 l 40 -51 l 40 -50 l 42 -50 l 42 -51 m 29 -64 l 28 -64 l 28 -62 l 29 -62 l 29 -64 m 14 -79 l 13 -79 l 13 -78 l 14 -78 l 14 -79 m 1 -92 l 0 -92 l 0 -90 l 1 -90 l 1 -92 m 90 -4 l 89 -4 l 89 -3 l 90 -3 l 90 -4 m 78 -17 l 76 -17 l 76 -15 l 78 -15 l 78 -17 m 63 -32 l 61 -32 l 61 -31 l 63 -31 l 63 -32 m 50 -44 l 49 -44 l 49 -43 l 50 -43 l 50 -44 m 35 -60 l 33 -60 l 33 -58 l 35 -58 l 35 -60 m 22 -72 l 21 -72 l 21 -71 l 22 -71 l 22 -72 m 7 -87 l 6 -87 l 6 -86 l 7 -86 l 7 -87 m 83 -12 l 82 -12 l 82 -11 l 83 -11 l 83 -12 m 71 -25 l 69 -25 l 69 -24 l 71 -24 l 71 -25 m 56 -40 l 54 -40 l 54 -39 l 56 -39 l 56 -40 m 43 -53 l 42 -53 l 42 -51 l 43 -51 l 43 -53 m 28 -68 l 26 -68 l 26 -67 l 28 -67 l 28 -68 m 15 -81 l 14 -81 l 14 -79 l 15 -79 l 15 -81 m 92 -6 l 90 -6 l 90 -4 l 92 -4 l 92 -6 m 76 -21 l 75 -21 l 75 -19 l 76 -19 l 76 -21 m 64 -33 l 63 -33 l 63 -32 l 64 -32 l 64 -33 m 49 -49 l 47 -49 l 47 -47 l 49 -47 l 49 -49 m 36 -61 l 35 -61 l 35 -60 l 36 -60 l 36 -61 m 21 -76 l 19 -76 l 19 -75 l 21 -75 l 21 -76 m 8 -89 l 7 -89 l 7 -87 l 8 -87 l 8 -89 m 97 -1 l 96 -1 l 96 0 l 97 0 l 97 -1 m 85 -14 l 83 -14 l 83 -12 l 85 -12 l 85 -14 m 69 -29 l 68 -29 l 68 -28 l 69 -28 l 69 -29 m 57 -42 l 56 -42 l 56 -40 l 57 -40 l 57 -42 m 42 -57 l 40 -57 l 40 -56 l 42 -56 l 42 -57 m 29 -69 l 28 -69 l 28 -68 l 29 -68 l 29 -69 m 14 -85 l 13 -85 l 13 -83 l 14 -83 l 14 -85 m 1 -97 l 0 -97 l 0 -96 l 1 -96 l 1 -97 m 90 -10 l 89 -10 l 89 -8 l 90 -8 l 90 -10 m 78 -22 l 76 -22 l 76 -21 l 78 -21 l 78 -22 m 63 -37 l 61 -37 l 61 -36 l 63 -36 l 63 -37 m 50 -50 l 49 -50 l 49 -49 l 50 -49 l 50 -50 m 35 -65 l 33 -65 l 33 -64 l 35 -64 l 35 -65 m 22 -78 l 21 -78 l 21 -76 l 22 -76 l 22 -78 m 7 -93 l 6 -93 l 6 -92 l 7 -92 l 7 -93 m 99 -3 l 97 -3 l 97 -1 l 99 -1 l 99 -3 m 83 -18 l 82 -18 l 82 -17 l 83 -17 l 83 -18 m 71 -31 l 69 -31 l 69 -29 l 71 -29 l 71 -31 m 56 -46 l 54 -46 l 54 -44 l 56 -44 l 56 -46 m 43 -58 l 42 -58 l 42 -57 l 43 -57 l 43 -58 m 28 -74 l 26 -74 l 26 -72 l 28 -72 l 28 -74 m 15 -86 l 14 -86 l 14 -85 l 15 -85 l 15 -86 m 92 -11 l 90 -11 l 90 -10 l 92 -10 l 92 -11 m 76 -26 l 75 -26 l 75 -25 l 76 -25 l 76 -26 m 64 -39 l 63 -39 l 63 -37 l 64 -37 l 64 -39 m 49 -54 l 47 -54 l 47 -53 l 49 -53 l 49 -54 m 36 -67 l 35 -67 l 35 -65 l 36 -65 l 36 -67 m 21 -82 l 19 -82 l 19 -81 l 21 -81 l 21 -82 m 8 -94 l 7 -94 l 7 -93 l 8 -93 l 8 -94 m 97 -7 l 96 -7 l 96 -6 l 97 -6 l 97 -7 m 85 -19 l 83 -19 l 83 -18 l 85 -18 l 85 -19 m 69 -35 l 68 -35 l 68 -33 l 69 -33 l 69 -35 m 57 -47 l 56 -47 l 56 -46 l 57 -46 l 57 -47 m 42 -62 l 40 -62 l 40 -61 l 42 -61 l 42 -62 m 29 -75 l 28 -75 l 28 -74 l 29 -74 l 29 -75 m 14 -90 l 13 -90 l 13 -89 l 14 -89 l 14 -90 m 1 -103 l 0 -103 l 0 -101 l 1 -101 l 1 -103 m 90 -15 l 89 -15 l 89 -14 l 90 -14 l 90 -15 m 78 -28 l 76 -28 l 76 -26 l 78 -26 l 78 -28 m 63 -43 l 61 -43 l 61 -42 l 63 -42 l 63 -43 m 50 -56 l 49 -56 l 49 -54 l 50 -54 l 50 -56 m 35 -71 l 33 -71 l 33 -69 l 35 -69 l 35 -71 m 22 -83 l 21 -83 l 21 -82 l 22 -82 l 22 -83 m 7 -99 l 6 -99 l 6 -97 l 7 -97 l 7 -99 m 99 -8 l 97 -8 l 97 -7 l 99 -7 l 99 -8 m 83 -24 l 82 -24 l 82 -22 l 83 -22 l 83 -24 m 71 -36 l 69 -36 l 69 -35 l 71 -35 l 71 -36 m 56 -51 l 54 -51 l 54 -50 l 56 -50 l 56 -51 m 43 -64 l 42 -64 l 42 -62 l 43 -62 l 43 -64 m 28 -79 l 26 -79 l 26 -78 l 28 -78 l 28 -79 m 15 -92 l 14 -92 l 14 -90 l 15 -90 l 15 -92 m 104 -4 l 103 -4 l 103 -3 l 104 -3 l 104 -4 m 92 -17 l 90 -17 l 90 -15 l 92 -15 l 92 -17 m 76 -32 l 75 -32 l 75 -31 l 76 -31 l 76 -32 m 64 -44 l 63 -44 l 63 -43 l 64 -43 l 64 -44 m 49 -60 l 47 -60 l 47 -58 l 49 -58 l 49 -60 m 36 -72 l 35 -72 l 35 -71 l 36 -71 l 36 -72 m 21 -87 l 19 -87 l 19 -86 l 21 -86 l 21 -87 m 8 -100 l 7 -100 l 7 -99 l 8 -99 l 8 -100 m 97 -12 l 96 -12 l 96 -11 l 97 -11 l 97 -12 m 85 -25 l 83 -25 l 83 -24 l 85 -24 l 85 -25 m 69 -40 l 68 -40 l 68 -39 l 69 -39 l 69 -40 m 57 -53 l 56 -53 l 56 -51 l 57 -51 l 57 -53 m 42 -68 l 40 -68 l 40 -67 l 42 -67 l 42 -68 m 29 -81 l 28 -81 l 28 -79 l 29 -79 l 29 -81 m 14 -96 l 13 -96 l 13 -94 l 14 -94 l 14 -96 m 1 -108 l 0 -108 l 0 -107 l 1 -107 l 1 -108 m 106 -6 l 104 -6 l 104 -4 l 106 -4 l 106 -6 m 90 -21 l 89 -21 l 89 -19 l 90 -19 l 90 -21 m 78 -33 l 76 -33 l 76 -32 l 78 -32 l 78 -33 m 63 -49 l 61 -49 l 61 -47 l 63 -47 l 63 -49 m 50 -61 l 49 -61 l 49 -60 l 50 -60 l 50 -61 m 35 -76 l 33 -76 l 33 -75 l 35 -75 l 35 -76 m 22 -89 l 21 -89 l 21 -87 l 22 -87 l 22 -89 m 7 -104 l 6 -104 l 6 -103 l 7 -103 l 7 -104 m 111 -1 l 110 -1 l 110 0 l 111 0 l 111 -1 m 99 -14 l 97 -14 l 97 -12 l 99 -12 l 99 -14 m 83 -29 l 82 -29 l 82 -28 l 83 -28 l 83 -29 m 71 -42 l 69 -42 l 69 -40 l 71 -40 l 71 -42 m 56 -57 l 54 -57 l 54 -56 l 56 -56 l 56 -57 m 43 -69 l 42 -69 l 42 -68 l 43 -68 l 43 -69 m 28 -85 l 26 -85 l 26 -83 l 28 -83 l 28 -85 m 15 -97 l 14 -97 l 14 -96 l 15 -96 l 15 -97 m 104 -10 l 103 -10 l 103 -8 l 104 -8 l 104 -10 m 92 -22 l 90 -22 l 90 -21 l 92 -21 l 92 -22 m 76 -37 l 75 -37 l 75 -36 l 76 -36 l 76 -37 m 64 -50 l 63 -50 l 63 -49 l 64 -49 l 64 -50 m 49 -65 l 47 -65 l 47 -64 l 49 -64 l 49 -65 m 36 -78 l 35 -78 l 35 -76 l 36 -76 l 36 -78 m 21 -93 l 19 -93 l 19 -92 l 21 -92 l 21 -93 m 8 -106 l 7 -106 l 7 -104 l 8 -104 l 8 -106 m 113 -3 l 111 -3 l 111 -1 l 113 -1 l 113 -3 m 97 -18 l 96 -18 l 96 -17 l 97 -17 l 97 -18 m 85 -31 l 83 -31 l 83 -29 l 85 -29 l 85 -31 m 69 -46 l 68 -46 l 68 -44 l 69 -44 l 69 -46 m 57 -58 l 56 -58 l 56 -57 l 57 -57 l 57 -58 m 42 -74 l 40 -74 l 40 -72 l 42 -72 l 42 -74 m 29 -86 l 28 -86 l 28 -85 l 29 -85 l 29 -86 m 14 -101 l 13 -101 l 13 -100 l 14 -100 l 14 -101 m 1 -114 l 0 -114 l 0 -112 l 1 -112 l 1 -114 m 106 -11 l 104 -11 l 104 -10 l 106 -10 l 106 -11 m 90 -26 l 89 -26 l 89 -25 l 90 -25 l 90 -26 m 78 -39 l 76 -39 l 76 -37 l 78 -37 l 78 -39 m 63 -54 l 61 -54 l 61 -53 l 63 -53 l 63 -54 m 50 -67 l 49 -67 l 49 -65 l 50 -65 l 50 -67 m 35 -82 l 33 -82 l 33 -81 l 35 -81 l 35 -82 m 22 -94 l 21 -94 l 21 -93 l 22 -93 l 22 -94 m 7 -110 l 6 -110 l 6 -108 l 7 -108 l 7 -110 m 111 -7 l 110 -7 l 110 -6 l 111 -6 l 111 -7 m 99 -19 l 97 -19 l 97 -18 l 99 -18 l 99 -19 m 83 -35 l 82 -35 l 82 -33 l 83 -33 l 83 -35 m 71 -47 l 69 -47 l 69 -46 l 71 -46 l 71 -47 m 56 -62 l 54 -62 l 54 -61 l 56 -61 l 56 -62 m 43 -75 l 42 -75 l 42 -74 l 43 -74 l 43 -75 m 28 -90 l 26 -90 l 26 -89 l 28 -89 l 28 -90 m 15 -103 l 14 -103 l 14 -101 l 15 -101 l 15 -103 m 104 -15 l 103 -15 l 103 -14 l 104 -14 l 104 -15 m 92 -28 l 90 -28 l 90 -26 l 92 -26 l 92 -28 m 76 -43 l 75 -43 l 75 -42 l 76 -42 l 76 -43 m 64 -56 l 63 -56 l 63 -54 l 64 -54 l 64 -56 m 49 -71 l 47 -71 l 47 -69 l 49 -69 l 49 -71 m 36 -83 l 35 -83 l 35 -82 l 36 -82 l 36 -83 m 21 -99 l 19 -99 l 19 -97 l 21 -97 l 21 -99 m 8 -111 l 7 -111 l 7 -110 l 8 -110 l 8 -111 m 113 -8 l 111 -8 l 111 -7 l 113 -7 l 113 -8 m 97 -24 l 96 -24 l 96 -22 l 97 -22 l 97 -24 m 85 -36 l 83 -36 l 83 -35 l 85 -35 l 85 -36 m 69 -51 l 68 -51 l 68 -50 l 69 -50 l 69 -51 m 57 -64 l 56 -64 l 56 -62 l 57 -62 l 57 -64 m 42 -79 l 40 -79 l 40 -78 l 42 -78 l 42 -79 m 29 -92 l 28 -92 l 28 -90 l 29 -90 l 29 -92 m 14 -107 l 13 -107 l 13 -106 l 14 -106 l 14 -107 m 1 -119 l 0 -119 l 0 -118 l 1 -118 l 1 -119 m 118 -4 l 117 -4 l 117 -3 l 118 -3 l 118 -4 m 106 -17 l 104 -17 l 104 -15 l 106 -15 l 106 -17 m 90 -32 l 89 -32 l 89 -31 l 90 -31 l 90 -32 m 78 -44 l 76 -44 l 76 -43 l 78 -43 l 78 -44 m 63 -60 l 61 -60 l 61 -58 l 63 -58 l 63 -60 m 50 -72 l 49 -72 l 49 -71 l 50 -71 l 50 -72 m 35 -87 l 33 -87 l 33 -86 l 35 -86 l 35 -87 m 22 -100 l 21 -100 l 21 -99 l 22 -99 l 22 -100 m 7 -115 l 6 -115 l 6 -114 l 7 -114 l 7 -115 m 111 -12 l 110 -12 l 110 -11 l 111 -11 l 111 -12 m 99 -25 l 97 -25 l 97 -24 l 99 -24 l 99 -25 m 83 -40 l 82 -40 l 82 -39 l 83 -39 l 83 -40 m 71 -53 l 69 -53 l 69 -51 l 71 -51 l 71 -53 m 56 -68 l 54 -68 l 54 -67 l 56 -67 l 56 -68 m 43 -81 l 42 -81 l 42 -79 l 43 -79 l 43 -81 m 28 -96 l 26 -96 l 26 -94 l 28 -94 l 28 -96 m 15 -108 l 14 -108 l 14 -107 l 15 -107 l 15 -108 m 119 -6 l 118 -6 l 118 -4 l 119 -4 l 119 -6 m 104 -21 l 103 -21 l 103 -19 l 104 -19 l 104 -21 m 92 -33 l 90 -33 l 90 -32 l 92 -32 l 92 -33 m 76 -49 l 75 -49 l 75 -47 l 76 -47 l 76 -49 m 64 -61 l 63 -61 l 63 -60 l 64 -60 l 64 -61 m 49 -76 l 47 -76 l 47 -75 l 49 -75 l 49 -76 m 36 -89 l 35 -89 l 35 -87 l 36 -87 l 36 -89 m 21 -104 l 19 -104 l 19 -103 l 21 -103 l 21 -104 m 8 -117 l 7 -117 l 7 -115 l 8 -115 l 8 -117 m 125 -1 l 124 -1 l 124 0 l 125 0 l 125 -1 m 113 -14 l 111 -14 l 111 -12 l 113 -12 l 113 -14 m 97 -29 l 96 -29 l 96 -28 l 97 -28 l 97 -29 m 85 -42 l 83 -42 l 83 -40 l 85 -40 l 85 -42 m 69 -57 l 68 -57 l 68 -56 l 69 -56 l 69 -57 m 57 -69 l 56 -69 l 56 -68 l 57 -68 l 57 -69 m 42 -85 l 40 -85 l 40 -83 l 42 -83 l 42 -85 m 29 -97 l 28 -97 l 28 -96 l 29 -96 l 29 -97 m 14 -112 l 13 -112 l 13 -111 l 14 -111 l 14 -112 m 1 -125 l 0 -125 l 0 -124 l 1 -124 l 1 -125 m 118 -10 l 117 -10 l 117 -8 l 118 -8 l 118 -10 m 106 -22 l 104 -22 l 104 -21 l 106 -21 l 106 -22 m 90 -37 l 89 -37 l 89 -36 l 90 -36 l 90 -37 m 78 -50 l 76 -50 l 76 -49 l 78 -49 l 78 -50 m 63 -65 l 61 -65 l 61 -64 l 63 -64 l 63 -65 m 50 -78 l 49 -78 l 49 -76 l 50 -76 l 50 -78 m 35 -93 l 33 -93 l 33 -92 l 35 -92 l 35 -93 m 22 -106 l 21 -106 l 21 -104 l 22 -104 l 22 -106 m 7 -121 l 6 -121 l 6 -119 l 7 -119 l 7 -121 m 126 -3 l 125 -3 l 125 -1 l 126 -1 l 126 -3 m 111 -18 l 110 -18 l 110 -17 l 111 -17 l 111 -18 m 99 -31 l 97 -31 l 97 -29 l 99 -29 l 99 -31 m 83 -46 l 82 -46 l 82 -44 l 83 -44 l 83 -46 m 71 -58 l 69 -58 l 69 -57 l 71 -57 l 71 -58 m 56 -74 l 54 -74 l 54 -72 l 56 -72 l 56 -74 m 43 -86 l 42 -86 l 42 -85 l 43 -85 l 43 -86 m 28 -101 l 26 -101 l 26 -100 l 28 -100 l 28 -101 m 15 -114 l 14 -114 l 14 -112 l 15 -112 l 15 -114 m 119 -11 l 118 -11 l 118 -10 l 119 -10 l 119 -11 m 104 -26 l 103 -26 l 103 -25 l 104 -25 l 104 -26 m 92 -39 l 90 -39 l 90 -37 l 92 -37 l 92 -39 m 76 -54 l 75 -54 l 75 -53 l 76 -53 l 76 -54 m 64 -67 l 63 -67 l 63 -65 l 64 -65 l 64 -67 m 49 -82 l 47 -82 l 47 -81 l 49 -81 l 49 -82 m 36 -94 l 35 -94 l 35 -93 l 36 -93 l 36 -94 m 21 -110 l 19 -110 l 19 -108 l 21 -108 l 21 -110 m 8 -122 l 7 -122 l 7 -121 l 8 -121 l 8 -122 m 125 -7 l 124 -7 l 124 -6 l 125 -6 l 125 -7 m 113 -19 l 111 -19 l 111 -18 l 113 -18 l 113 -19 m 97 -35 l 96 -35 l 96 -33 l 97 -33 l 97 -35 m 85 -47 l 83 -47 l 83 -46 l 85 -46 l 85 -47 m 69 -62 l 68 -62 l 68 -61 l 69 -61 l 69 -62 m 57 -75 l 56 -75 l 56 -74 l 57 -74 l 57 -75 m 42 -90 l 40 -90 l 40 -89 l 42 -89 l 42 -90 m 29 -103 l 28 -103 l 28 -101 l 29 -101 l 29 -103 m 14 -118 l 13 -118 l 13 -117 l 14 -117 l 14 -118 m 1 -131 l 0 -131 l 0 -129 l 1 -129 l 1 -131 m 118 -15 l 117 -15 l 117 -14 l 118 -14 l 118 -15 m 106 -28 l 104 -28 l 104 -26 l 106 -26 l 106 -28 m 90 -43 l 89 -43 l 89 -42 l 90 -42 l 90 -43 m 78 -56 l 76 -56 l 76 -54 l 78 -54 l 78 -56 m 63 -71 l 61 -71 l 61 -69 l 63 -69 l 63 -71 m 50 -83 l 49 -83 l 49 -82 l 50 -82 l 50 -83 m 35 -99 l 33 -99 l 33 -97 l 35 -97 l 35 -99 m 22 -111 l 21 -111 l 21 -110 l 22 -110 l 22 -111 m 7 -126 l 6 -126 l 6 -125 l 7 -125 l 7 -126 m 126 -8 l 125 -8 l 125 -7 l 126 -7 l 126 -8 m 111 -24 l 110 -24 l 110 -22 l 111 -22 l 111 -24 m 99 -36 l 97 -36 l 97 -35 l 99 -35 l 99 -36 m 83 -51 l 82 -51 l 82 -50 l 83 -50 l 83 -51 m 71 -64 l 69 -64 l 69 -62 l 71 -62 l 71 -64 m 56 -79 l 54 -79 l 54 -78 l 56 -78 l 56 -79 m 43 -92 l 42 -92 l 42 -90 l 43 -90 l 43 -92 m 28 -107 l 26 -107 l 26 -106 l 28 -106 l 28 -107 m 15 -119 l 14 -119 l 14 -118 l 15 -118 l 15 -119 m 132 -4 l 131 -4 l 131 -3 l 132 -3 l 132 -4 m 119 -17 l 118 -17 l 118 -15 l 119 -15 l 119 -17 m 104 -32 l 103 -32 l 103 -31 l 104 -31 l 104 -32 m 92 -44 l 90 -44 l 90 -43 l 92 -43 l 92 -44 m 76 -60 l 75 -60 l 75 -58 l 76 -58 l 76 -60 m 64 -72 l 63 -72 l 63 -71 l 64 -71 l 64 -72 m 49 -87 l 47 -87 l 47 -86 l 49 -86 l 49 -87 m 36 -100 l 35 -100 l 35 -99 l 36 -99 l 36 -100 m 21 -115 l 19 -115 l 19 -114 l 21 -114 l 21 -115 m 8 -128 l 7 -128 l 7 -126 l 8 -126 l 8 -128 m 125 -12 l 124 -12 l 124 -11 l 125 -11 l 125 -12 m 113 -25 l 111 -25 l 111 -24 l 113 -24 l 113 -25 m 97 -40 l 96 -40 l 96 -39 l 97 -39 l 97 -40 m 85 -53 l 83 -53 l 83 -51 l 85 -51 l 85 -53 m 69 -68 l 68 -68 l 68 -67 l 69 -67 l 69 -68 m 57 -81 l 56 -81 l 56 -79 l 57 -79 l 57 -81 m 42 -96 l 40 -96 l 40 -94 l 42 -94 l 42 -96 m 29 -108 l 28 -108 l 28 -107 l 29 -107 l 29 -108 m 14 -124 l 13 -124 l 13 -122 l 14 -122 l 14 -124 m 1 -136 l 0 -136 l 0 -135 l 1 -135 l 1 -136 m 133 -6 l 132 -6 l 132 -4 l 133 -4 l 133 -6 m 118 -21 l 117 -21 l 117 -19 l 118 -19 l 118 -21 m 106 -33 l 104 -33 l 104 -32 l 106 -32 l 106 -33 m 90 -49 l 89 -49 l 89 -47 l 90 -47 l 90 -49 m 78 -61 l 76 -61 l 76 -60 l 78 -60 l 78 -61 m 63 -76 l 61 -76 l 61 -75 l 63 -75 l 63 -76 m 50 -89 l 49 -89 l 49 -87 l 50 -87 l 50 -89 m 35 -104 l 33 -104 l 33 -103 l 35 -103 l 35 -104 m 22 -117 l 21 -117 l 21 -115 l 22 -115 l 22 -117 m 7 -132 l 6 -132 l 6 -131 l 7 -131 l 7 -132 m 139 -1 l 138 -1 l 138 0 l 139 0 l 139 -1 m 126 -14 l 125 -14 l 125 -12 l 126 -12 l 126 -14 m 111 -29 l 110 -29 l 110 -28 l 111 -28 l 111 -29 m 99 -42 l 97 -42 l 97 -40 l 99 -40 l 99 -42 m 83 -57 l 82 -57 l 82 -56 l 83 -56 l 83 -57 m 71 -69 l 69 -69 l 69 -68 l 71 -68 l 71 -69 m 56 -85 l 54 -85 l 54 -83 l 56 -83 l 56 -85 m 43 -97 l 42 -97 l 42 -96 l 43 -96 l 43 -97 m 28 -112 l 26 -112 l 26 -111 l 28 -111 l 28 -112 m 15 -125 l 14 -125 l 14 -124 l 15 -124 l 15 -125 m 132 -10 l 131 -10 l 131 -8 l 132 -8 l 132 -10 m 119 -22 l 118 -22 l 118 -21 l 119 -21 l 119 -22 m 104 -37 l 103 -37 l 103 -36 l 104 -36 l 104 -37 m 92 -50 l 90 -50 l 90 -49 l 92 -49 l 92 -50 m 76 -65 l 75 -65 l 75 -64 l 76 -64 l 76 -65 m 64 -78 l 63 -78 l 63 -76 l 64 -76 l 64 -78 m 49 -93 l 47 -93 l 47 -92 l 49 -92 l 49 -93 m 36 -106 l 35 -106 l 35 -104 l 36 -104 l 36 -106 m 21 -121 l 19 -121 l 19 -119 l 21 -119 l 21 -121 m 8 -133 l 7 -133 l 7 -132 l 8 -132 l 8 -133 m 125 -18 l 124 -18 l 124 -17 l 125 -17 l 125 -18 m 113 -31 l 111 -31 l 111 -29 l 113 -29 l 113 -31 m 97 -46 l 96 -46 l 96 -44 l 97 -44 l 97 -46 m 85 -58 l 83 -58 l 83 -57 l 85 -57 l 85 -58 m 69 -74 l 68 -74 l 68 -72 l 69 -72 l 69 -74 m 57 -86 l 56 -86 l 56 -85 l 57 -85 l 57 -86 m 42 -101 l 40 -101 l 40 -100 l 42 -100 l 42 -101 m 29 -114 l 28 -114 l 28 -112 l 29 -112 l 29 -114 m 14 -129 l 13 -129 l 13 -128 l 14 -128 l 14 -129 m 133 -11 l 132 -11 l 132 -10 l 133 -10 l 133 -11 m 118 -26 l 117 -26 l 117 -25 l 118 -25 l 118 -26 m 106 -39 l 104 -39 l 104 -37 l 106 -37 l 106 -39 m 90 -54 l 89 -54 l 89 -53 l 90 -53 l 90 -54 m 78 -67 l 76 -67 l 76 -65 l 78 -65 l 78 -67 m 63 -82 l 61 -82 l 61 -81 l 63 -81 l 63 -82 m 50 -94 l 49 -94 l 49 -93 l 50 -93 l 50 -94 m 35 -110 l 33 -110 l 33 -108 l 35 -108 l 35 -110 m 22 -122 l 21 -122 l 21 -121 l 22 -121 l 22 -122 m 7 -137 l 6 -137 l 6 -136 l 7 -136 l 7 -137 m 139 -7 l 138 -7 l 138 -6 l 139 -6 l 139 -7 m 126 -19 l 125 -19 l 125 -18 l 126 -18 l 126 -19 m 111 -35 l 110 -35 l 110 -33 l 111 -33 l 111 -35 m 99 -47 l 97 -47 l 97 -46 l 99 -46 l 99 -47 m 83 -62 l 82 -62 l 82 -61 l 83 -61 l 83 -62 m 71 -75 l 69 -75 l 69 -74 l 71 -74 l 71 -75 m 56 -90 l 54 -90 l 54 -89 l 56 -89 l 56 -90 m 43 -103 l 42 -103 l 42 -101 l 43 -101 l 43 -103 m 28 -118 l 26 -118 l 26 -117 l 28 -117 l 28 -118 m 15 -131 l 14 -131 l 14 -129 l 15 -129 l 15 -131 m 132 -15 l 131 -15 l 131 -14 l 132 -14 l 132 -15 m 119 -28 l 118 -28 l 118 -26 l 119 -26 l 119 -28 m 104 -43 l 103 -43 l 103 -42 l 104 -42 l 104 -43 m 92 -56 l 90 -56 l 90 -54 l 92 -54 l 92 -56 m 76 -71 l 75 -71 l 75 -69 l 76 -69 l 76 -71 m 64 -83 l 63 -83 l 63 -82 l 64 -82 l 64 -83 m 49 -99 l 47 -99 l 47 -97 l 49 -97 l 49 -99 m 36 -111 l 35 -111 l 35 -110 l 36 -110 l 36 -111 m 21 -126 l 19 -126 l 19 -125 l 21 -125 l 21 -126 m 8 -139 l 7 -139 l 7 -137 l 8 -137 l 8 -139 m 125 -24 l 124 -24 l 124 -22 l 125 -22 l 125 -24 m 113 -36 l 111 -36 l 111 -35 l 113 -35 l 113 -36 m 97 -51 l 96 -51 l 96 -50 l 97 -50 l 97 -51 m 85 -64 l 83 -64 l 83 -62 l 85 -62 l 85 -64 m 69 -79 l 68 -79 l 68 -78 l 69 -78 l 69 -79 m 57 -92 l 56 -92 l 56 -90 l 57 -90 l 57 -92 m 42 -107 l 40 -107 l 40 -106 l 42 -106 l 42 -107 m 29 -119 l 28 -119 l 28 -118 l 29 -118 l 29 -119 m 14 -135 l 13 -135 l 13 -133 l 14 -133 l 14 -135 m 133 -17 l 132 -17 l 132 -15 l 133 -15 l 133 -17 m 118 -32 l 117 -32 l 117 -31 l 118 -31 l 118 -32 m 106 -44 l 104 -44 l 104 -43 l 106 -43 l 106 -44 m 90 -60 l 89 -60 l 89 -58 l 90 -58 l 90 -60 m 78 -72 l 76 -72 l 76 -71 l 78 -71 l 78 -72 m 63 -87 l 61 -87 l 61 -86 l 63 -86 l 63 -87 m 50 -100 l 49 -100 l 49 -99 l 50 -99 l 50 -100 m 35 -115 l 33 -115 l 33 -114 l 35 -114 l 35 -115 m 22 -128 l 21 -128 l 21 -126 l 22 -126 l 22 -128 m 139 -12 l 138 -12 l 138 -11 l 139 -11 l 139 -12 m 126 -25 l 125 -25 l 125 -24 l 126 -24 l 126 -25 m 111 -40 l 110 -40 l 110 -39 l 111 -39 l 111 -40 m 99 -53 l 97 -53 l 97 -51 l 99 -51 l 99 -53 m 83 -68 l 82 -68 l 82 -67 l 83 -67 l 83 -68 m 71 -81 l 69 -81 l 69 -79 l 71 -79 l 71 -81 m 56 -96 l 54 -96 l 54 -94 l 56 -94 l 56 -96 m 43 -108 l 42 -108 l 42 -107 l 43 -107 l 43 -108 m 28 -124 l 26 -124 l 26 -122 l 28 -122 l 28 -124 m 15 -136 l 14 -136 l 14 -135 l 15 -135 l 15 -136 m 132 -21 l 131 -21 l 131 -19 l 132 -19 l 132 -21 m 119 -33 l 118 -33 l 118 -32 l 119 -32 l 119 -33 m 104 -49 l 103 -49 l 103 -47 l 104 -47 l 104 -49 m 92 -61 l 90 -61 l 90 -60 l 92 -60 l 92 -61 m 76 -76 l 75 -76 l 75 -75 l 76 -75 l 76 -76 m 64 -89 l 63 -89 l 63 -87 l 64 -87 l 64 -89 m 49 -104 l 47 -104 l 47 -103 l 49 -103 l 49 -104 m 36 -117 l 35 -117 l 35 -115 l 36 -115 l 36 -117 m 21 -132 l 19 -132 l 19 -131 l 21 -131 l 21 -132 m 125 -29 l 124 -29 l 124 -28 l 125 -28 l 125 -29 m 113 -42 l 111 -42 l 111 -40 l 113 -40 l 113 -42 m 97 -57 l 96 -57 l 96 -56 l 97 -56 l 97 -57 m 85 -69 l 83 -69 l 83 -68 l 85 -68 l 85 -69 m 69 -85 l 68 -85 l 68 -83 l 69 -83 l 69 -85 m 57 -97 l 56 -97 l 56 -96 l 57 -96 l 57 -97 m 42 -112 l 40 -112 l 40 -111 l 42 -111 l 42 -112 m 29 -125 l 28 -125 l 28 -124 l 29 -124 l 29 -125 m 133 -22 l 132 -22 l 132 -21 l 133 -21 l 133 -22 m 118 -37 l 117 -37 l 117 -36 l 118 -36 l 118 -37 m 106 -50 l 104 -50 l 104 -49 l 106 -49 l 106 -50 m 90 -65 l 89 -65 l 89 -64 l 90 -64 l 90 -65 m 78 -78 l 76 -78 l 76 -76 l 78 -76 l 78 -78 m 63 -93 l 61 -93 l 61 -92 l 63 -92 l 63 -93 m 50 -106 l 49 -106 l 49 -104 l 50 -104 l 50 -106 m 35 -121 l 33 -121 l 33 -119 l 35 -119 l 35 -121 m 22 -133 l 21 -133 l 21 -132 l 22 -132 l 22 -133 m 139 -18 l 138 -18 l 138 -17 l 139 -17 l 139 -18 m 126 -31 l 125 -31 l 125 -29 l 126 -29 l 126 -31 m 111 -46 l 110 -46 l 110 -44 l 111 -44 l 111 -46 m 99 -58 l 97 -58 l 97 -57 l 99 -57 l 99 -58 m 83 -74 l 82 -74 l 82 -72 l 83 -72 l 83 -74 m 71 -86 l 69 -86 l 69 -85 l 71 -85 l 71 -86 m 56 -101 l 54 -101 l 54 -100 l 56 -100 l 56 -101 m 43 -114 l 42 -114 l 42 -112 l 43 -112 l 43 -114 m 28 -129 l 26 -129 l 26 -128 l 28 -128 l 28 -129 m 132 -26 l 131 -26 l 131 -25 l 132 -25 l 132 -26 m 119 -39 l 118 -39 l 118 -37 l 119 -37 l 119 -39 m 104 -54 l 103 -54 l 103 -53 l 104 -53 l 104 -54 m 92 -67 l 90 -67 l 90 -65 l 92 -65 l 92 -67 m 76 -82 l 75 -82 l 75 -81 l 76 -81 l 76 -82 m 64 -94 l 63 -94 l 63 -93 l 64 -93 l 64 -94 m 49 -110 l 47 -110 l 47 -108 l 49 -108 l 49 -110 m 36 -122 l 35 -122 l 35 -121 l 36 -121 l 36 -122 m 21 -137 l 19 -137 l 19 -136 l 21 -136 l 21 -137 m 125 -35 l 124 -35 l 124 -33 l 125 -33 l 125 -35 m 113 -47 l 111 -47 l 111 -46 l 113 -46 l 113 -47 m 97 -62 l 96 -62 l 96 -61 l 97 -61 l 97 -62 m 85 -75 l 83 -75 l 83 -74 l 85 -74 l 85 -75 m 69 -90 l 68 -90 l 68 -89 l 69 -89 l 69 -90 m 57 -103 l 56 -103 l 56 -101 l 57 -101 l 57 -103 m 42 -118 l 40 -118 l 40 -117 l 42 -117 l 42 -118 m 29 -131 l 28 -131 l 28 -129 l 29 -129 l 29 -131 m 133 -28 l 132 -28 l 132 -26 l 133 -26 l 133 -28 m 118 -43 l 117 -43 l 117 -42 l 118 -42 l 118 -43 m 106 -56 l 104 -56 l 104 -54 l 106 -54 l 106 -56 m 90 -71 l 89 -71 l 89 -69 l 90 -69 l 90 -71 m 78 -83 l 76 -83 l 76 -82 l 78 -82 l 78 -83 m 63 -99 l 61 -99 l 61 -97 l 63 -97 l 63 -99 m 50 -111 l 49 -111 l 49 -110 l 50 -110 l 50 -111 m 35 -126 l 33 -126 l 33 -125 l 35 -125 l 35 -126 m 22 -139 l 21 -139 l 21 -137 l 22 -137 l 22 -139 m 139 -24 l 138 -24 l 138 -22 l 139 -22 l 139 -24 m 126 -36 l 125 -36 l 125 -35 l 126 -35 l 126 -36 m 111 -51 l 110 -51 l 110 -50 l 111 -50 l 111 -51 m 99 -64 l 97 -64 l 97 -62 l 99 -62 l 99 -64 m 83 -79 l 82 -79 l 82 -78 l 83 -78 l 83 -79 m 71 -92 l 69 -92 l 69 -90 l 71 -90 l 71 -92 m 56 -107 l 54 -107 l 54 -106 l 56 -106 l 56 -107 m 43 -119 l 42 -119 l 42 -118 l 43 -118 l 43 -119 m 28 -135 l 26 -135 l 26 -133 l 28 -133 l 28 -135 m 132 -32 l 131 -32 l 131 -31 l 132 -31 l 132 -32 m 119 -44 l 118 -44 l 118 -43 l 119 -43 l 119 -44 m 104 -60 l 103 -60 l 103 -58 l 104 -58 l 104 -60 m 92 -72 l 90 -72 l 90 -71 l 92 -71 l 92 -72 m 76 -87 l 75 -87 l 75 -86 l 76 -86 l 76 -87 m 64 -100 l 63 -100 l 63 -99 l 64 -99 l 64 -100 m 49 -115 l 47 -115 l 47 -114 l 49 -114 l 49 -115 m 36 -128 l 35 -128 l 35 -126 l 36 -126 l 36 -128 m 125 -40 l 124 -40 l 124 -39 l 125 -39 l 125 -40 m 113 -53 l 111 -53 l 111 -51 l 113 -51 l 113 -53 m 97 -68 l 96 -68 l 96 -67 l 97 -67 l 97 -68 m 85 -81 l 83 -81 l 83 -79 l 85 -79 l 85 -81 m 69 -96 l 68 -96 l 68 -94 l 69 -94 l 69 -96 m 57 -108 l 56 -108 l 56 -107 l 57 -107 l 57 -108 m 42 -124 l 40 -124 l 40 -122 l 42 -122 l 42 -124 m 29 -136 l 28 -136 l 28 -135 l 29 -135 l 29 -136 m 133 -33 l 132 -33 l 132 -32 l 133 -32 l 133 -33 m 118 -49 l 117 -49 l 117 -47 l 118 -47 l 118 -49 m 106 -61 l 104 -61 l 104 -60 l 106 -60 l 106 -61 m 90 -76 l 89 -76 l 89 -75 l 90 -75 l 90 -76 m 78 -89 l 76 -89 l 76 -87 l 78 -87 l 78 -89 m 63 -104 l 61 -104 l 61 -103 l 63 -103 l 63 -104 m 50 -117 l 49 -117 l 49 -115 l 50 -115 l 50 -117 m 35 -132 l 33 -132 l 33 -131 l 35 -131 l 35 -132 m 139 -29 l 138 -29 l 138 -28 l 139 -28 l 139 -29 m 126 -42 l 125 -42 l 125 -40 l 126 -40 l 126 -42 m 111 -57 l 110 -57 l 110 -56 l 111 -56 l 111 -57 m 99 -69 l 97 -69 l 97 -68 l 99 -68 l 99 -69 m 83 -85 l 82 -85 l 82 -83 l 83 -83 l 83 -85 m 71 -97 l 69 -97 l 69 -96 l 71 -96 l 71 -97 m 56 -112 l 54 -112 l 54 -111 l 56 -111 l 56 -112 m 43 -125 l 42 -125 l 42 -124 l 43 -124 l 43 -125 m 132 -37 l 131 -37 l 131 -36 l 132 -36 l 132 -37 m 119 -50 l 118 -50 l 118 -49 l 119 -49 l 119 -50 m 104 -65 l 103 -65 l 103 -64 l 104 -64 l 104 -65 m 92 -78 l 90 -78 l 90 -76 l 92 -76 l 92 -78 m 76 -93 l 75 -93 l 75 -92 l 76 -92 l 76 -93 m 64 -106 l 63 -106 l 63 -104 l 64 -104 l 64 -106 m 49 -121 l 47 -121 l 47 -119 l 49 -119 l 49 -121 m 36 -133 l 35 -133 l 35 -132 l 36 -132 l 36 -133 m 125 -46 l 124 -46 l 124 -44 l 125 -44 l 125 -46 m 113 -58 l 111 -58 l 111 -57 l 113 -57 l 113 -58 m 97 -74 l 96 -74 l 96 -72 l 97 -72 l 97 -74 m 85 -86 l 83 -86 l 83 -85 l 85 -85 l 85 -86 m 69 -101 l 68 -101 l 68 -100 l 69 -100 l 69 -101 m 57 -114 l 56 -114 l 56 -112 l 57 -112 l 57 -114 m 42 -129 l 40 -129 l 40 -128 l 42 -128 l 42 -129 m 133 -39 l 132 -39 l 132 -37 l 133 -37 l 133 -39 m 118 -54 l 117 -54 l 117 -53 l 118 -53 l 118 -54 m 106 -67 l 104 -67 l 104 -65 l 106 -65 l 106 -67 m 90 -82 l 89 -82 l 89 -81 l 90 -81 l 90 -82 m 78 -94 l 76 -94 l 76 -93 l 78 -93 l 78 -94 m 63 -110 l 61 -110 l 61 -108 l 63 -108 l 63 -110 m 50 -122 l 49 -122 l 49 -121 l 50 -121 l 50 -122 m 35 -137 l 33 -137 l 33 -136 l 35 -136 l 35 -137 m 139 -35 l 138 -35 l 138 -33 l 139 -33 l 139 -35 m 126 -47 l 125 -47 l 125 -46 l 126 -46 l 126 -47 m 111 -62 l 110 -62 l 110 -61 l 111 -61 l 111 -62 m 99 -75 l 97 -75 l 97 -74 l 99 -74 l 99 -75 m 83 -90 l 82 -90 l 82 -89 l 83 -89 l 83 -90 m 71 -103 l 69 -103 l 69 -101 l 71 -101 l 71 -103 m 56 -118 l 54 -118 l 54 -117 l 56 -117 l 56 -118 m 43 -131 l 42 -131 l 42 -129 l 43 -129 l 43 -131 m 132 -43 l 131 -43 l 131 -42 l 132 -42 l 132 -43 m 119 -56 l 118 -56 l 118 -54 l 119 -54 l 119 -56 m 104 -71 l 103 -71 l 103 -69 l 104 -69 l 104 -71 m 92 -83 l 90 -83 l 90 -82 l 92 -82 l 92 -83 m 76 -99 l 75 -99 l 75 -97 l 76 -97 l 76 -99 m 64 -111 l 63 -111 l 63 -110 l 64 -110 l 64 -111 m 49 -126 l 47 -126 l 47 -125 l 49 -125 l 49 -126 m 36 -139 l 35 -139 l 35 -137 l 36 -137 l 36 -139 m 125 -51 l 124 -51 l 124 -50 l 125 -50 l 125 -51 m 113 -64 l 111 -64 l 111 -62 l 113 -62 l 113 -64 m 97 -79 l 96 -79 l 96 -78 l 97 -78 l 97 -79 m 85 -92 l 83 -92 l 83 -90 l 85 -90 l 85 -92 m 69 -107 l 68 -107 l 68 -106 l 69 -106 l 69 -107 m 57 -119 l 56 -119 l 56 -118 l 57 -118 l 57 -119 m 42 -135 l 40 -135 l 40 -133 l 42 -133 l 42 -135 m 133 -44 l 132 -44 l 132 -43 l 133 -43 l 133 -44 m 118 -60 l 117 -60 l 117 -58 l 118 -58 l 118 -60 m 106 -72 l 104 -72 l 104 -71 l 106 -71 l 106 -72 m 90 -87 l 89 -87 l 89 -86 l 90 -86 l 90 -87 m 78 -100 l 76 -100 l 76 -99 l 78 -99 l 78 -100 m 63 -115 l 61 -115 l 61 -114 l 63 -114 l 63 -115 m 50 -128 l 49 -128 l 49 -126 l 50 -126 l 50 -128 m 139 -40 l 138 -40 l 138 -39 l 139 -39 l 139 -40 m 126 -53 l 125 -53 l 125 -51 l 126 -51 l 126 -53 m 111 -68 l 110 -68 l 110 -67 l 111 -67 l 111 -68 m 99 -81 l 97 -81 l 97 -79 l 99 -79 l 99 -81 m 83 -96 l 82 -96 l 82 -94 l 83 -94 l 83 -96 m 71 -108 l 69 -108 l 69 -107 l 71 -107 l 71 -108 m 56 -124 l 54 -124 l 54 -122 l 56 -122 l 56 -124 m 43 -136 l 42 -136 l 42 -135 l 43 -135 l 43 -136 m 132 -49 l 131 -49 l 131 -47 l 132 -47 l 132 -49 m 119 -61 l 118 -61 l 118 -60 l 119 -60 l 119 -61 m 104 -76 l 103 -76 l 103 -75 l 104 -75 l 104 -76 m 92 -89 l 90 -89 l 90 -87 l 92 -87 l 92 -89 m 76 -104 l 75 -104 l 75 -103 l 76 -103 l 76 -104 m 64 -117 l 63 -117 l 63 -115 l 64 -115 l 64 -117 m 49 -132 l 47 -132 l 47 -131 l 49 -131 l 49 -132 m 125 -57 l 124 -57 l 124 -56 l 125 -56 l 125 -57 m 113 -69 l 111 -69 l 111 -68 l 113 -68 l 113 -69 m 97 -85 l 96 -85 l 96 -83 l 97 -83 l 97 -85 m 85 -97 l 83 -97 l 83 -96 l 85 -96 l 85 -97 m 69 -112 l 68 -112 l 68 -111 l 69 -111 l 69 -112 m 57 -125 l 56 -125 l 56 -124 l 57 -124 l 57 -125 m 133 -50 l 132 -50 l 132 -49 l 133 -49 l 133 -50 m 118 -65 l 117 -65 l 117 -64 l 118 -64 l 118 -65 m 106 -78 l 104 -78 l 104 -76 l 106 -76 l 106 -78 m 90 -93 l 89 -93 l 89 -92 l 90 -92 l 90 -93 m 78 -106 l 76 -106 l 76 -104 l 78 -104 l 78 -106 m 63 -121 l 61 -121 l 61 -119 l 63 -119 l 63 -121 m 50 -133 l 49 -133 l 49 -132 l 50 -132 l 50 -133 m 139 -46 l 138 -46 l 138 -44 l 139 -44 l 139 -46 m 126 -58 l 125 -58 l 125 -57 l 126 -57 l 126 -58 m 111 -74 l 110 -74 l 110 -72 l 111 -72 l 111 -74 m 99 -86 l 97 -86 l 97 -85 l 99 -85 l 99 -86 m 83 -101 l 82 -101 l 82 -100 l 83 -100 l 83 -101 m 71 -114 l 69 -114 l 69 -112 l 71 -112 l 71 -114 m 56 -129 l 54 -129 l 54 -128 l 56 -128 l 56 -129 m 132 -54 l 131 -54 l 131 -53 l 132 -53 l 132 -54 m 119 -67 l 118 -67 l 118 -65 l 119 -65 l 119 -67 m 104 -82 l 103 -82 l 103 -81 l 104 -81 l 104 -82 m 92 -94 l 90 -94 l 90 -93 l 92 -93 l 92 -94 m 76 -110 l 75 -110 l 75 -108 l 76 -108 l 76 -110 m 64 -122 l 63 -122 l 63 -121 l 64 -121 l 64 -122 m 49 -137 l 47 -137 l 47 -136 l 49 -136 l 49 -137 m 125 -62 l 124 -62 l 124 -61 l 125 -61 l 125 -62 m 113 -75 l 111 -75 l 111 -74 l 113 -74 l 113 -75 m 97 -90 l 96 -90 l 96 -89 l 97 -89 l 97 -90 m 85 -103 l 83 -103 l 83 -101 l 85 -101 l 85 -103 m 69 -118 l 68 -118 l 68 -117 l 69 -117 l 69 -118 m 57 -131 l 56 -131 l 56 -129 l 57 -129 l 57 -131 m 133 -56 l 132 -56 l 132 -54 l 133 -54 l 133 -56 m 118 -71 l 117 -71 l 117 -69 l 118 -69 l 118 -71 m 106 -83 l 104 -83 l 104 -82 l 106 -82 l 106 -83 m 90 -99 l 89 -99 l 89 -97 l 90 -97 l 90 -99 m 78 -111 l 76 -111 l 76 -110 l 78 -110 l 78 -111 m 63 -126 l 61 -126 l 61 -125 l 63 -125 l 63 -126 m 50 -139 l 49 -139 l 49 -137 l 50 -137 l 50 -139 m 139 -51 l 138 -51 l 138 -50 l 139 -50 l 139 -51 m 126 -64 l 125 -64 l 125 -62 l 126 -62 l 126 -64 m 111 -79 l 110 -79 l 110 -78 l 111 -78 l 111 -79 m 99 -92 l 97 -92 l 97 -90 l 99 -90 l 99 -92 m 83 -107 l 82 -107 l 82 -106 l 83 -106 l 83 -107 m 71 -119 l 69 -119 l 69 -118 l 71 -118 l 71 -119 m 56 -135 l 54 -135 l 54 -133 l 56 -133 l 56 -135 m 132 -60 l 131 -60 l 131 -58 l 132 -58 l 132 -60 m 119 -72 l 118 -72 l 118 -71 l 119 -71 l 119 -72 m 104 -87 l 103 -87 l 103 -86 l 104 -86 l 104 -87 m 92 -100 l 90 -100 l 90 -99 l 92 -99 l 92 -100 m 76 -115 l 75 -115 l 75 -114 l 76 -114 l 76 -115 m 64 -128 l 63 -128 l 63 -126 l 64 -126 l 64 -128 m 125 -68 l 124 -68 l 124 -67 l 125 -67 l 125 -68 m 113 -81 l 111 -81 l 111 -79 l 113 -79 l 113 -81 m 97 -96 l 96 -96 l 96 -94 l 97 -94 l 97 -96 m 85 -108 l 83 -108 l 83 -107 l 85 -107 l 85 -108 m 69 -124 l 68 -124 l 68 -122 l 69 -122 l 69 -124 m 57 -136 l 56 -136 l 56 -135 l 57 -135 l 57 -136 m 133 -61 l 132 -61 l 132 -60 l 133 -60 l 133 -61 m 118 -76 l 117 -76 l 117 -75 l 118 -75 l 118 -76 m 106 -89 l 104 -89 l 104 -87 l 106 -87 l 106 -89 m 90 -104 l 89 -104 l 89 -103 l 90 -103 l 90 -104 m 78 -117 l 76 -117 l 76 -115 l 78 -115 l 78 -117 m 63 -132 l 61 -132 l 61 -131 l 63 -131 l 63 -132 m 139 -57 l 138 -57 l 138 -56 l 139 -56 l 139 -57 m 126 -69 l 125 -69 l 125 -68 l 126 -68 l 126 -69 m 111 -85 l 110 -85 l 110 -83 l 111 -83 l 111 -85 m 99 -97 l 97 -97 l 97 -96 l 99 -96 l 99 -97 m 83 -112 l 82 -112 l 82 -111 l 83 -111 l 83 -112 m 71 -125 l 69 -125 l 69 -124 l 71 -124 l 71 -125 m 132 -65 l 131 -65 l 131 -64 l 132 -64 l 132 -65 m 119 -78 l 118 -78 l 118 -76 l 119 -76 l 119 -78 m 104 -93 l 103 -93 l 103 -92 l 104 -92 l 104 -93 m 92 -106 l 90 -106 l 90 -104 l 92 -104 l 92 -106 m 76 -121 l 75 -121 l 75 -119 l 76 -119 l 76 -121 m 64 -133 l 63 -133 l 63 -132 l 64 -132 l 64 -133 m 125 -74 l 124 -74 l 124 -72 l 125 -72 l 125 -74 m 113 -86 l 111 -86 l 111 -85 l 113 -85 l 113 -86 m 97 -101 l 96 -101 l 96 -100 l 97 -100 l 97 -101 m 85 -114 l 83 -114 l 83 -112 l 85 -112 l 85 -114 m 69 -129 l 68 -129 l 68 -128 l 69 -128 l 69 -129 m 133 -67 l 132 -67 l 132 -65 l 133 -65 l 133 -67 m 118 -82 l 117 -82 l 117 -81 l 118 -81 l 118 -82 m 106 -94 l 104 -94 l 104 -93 l 106 -93 l 106 -94 m 90 -110 l 89 -110 l 89 -108 l 90 -108 l 90 -110 m 78 -122 l 76 -122 l 76 -121 l 78 -121 l 78 -122 m 63 -137 l 61 -137 l 61 -136 l 63 -136 l 63 -137 m 139 -62 l 138 -62 l 138 -61 l 139 -61 l 139 -62 m 126 -75 l 125 -75 l 125 -74 l 126 -74 l 126 -75 m 111 -90 l 110 -90 l 110 -89 l 111 -89 l 111 -90 m 99 -103 l 97 -103 l 97 -101 l 99 -101 l 99 -103 m 83 -118 l 82 -118 l 82 -117 l 83 -117 l 83 -118 m 71 -131 l 69 -131 l 69 -129 l 71 -129 l 71 -131 m 132 -71 l 131 -71 l 131 -69 l 132 -69 l 132 -71 m 119 -83 l 118 -83 l 118 -82 l 119 -82 l 119 -83 m 104 -99 l 103 -99 l 103 -97 l 104 -97 l 104 -99 m 92 -111 l 90 -111 l 90 -110 l 92 -110 l 92 -111 m 76 -126 l 75 -126 l 75 -125 l 76 -125 l 76 -126 m 64 -139 l 63 -139 l 63 -137 l 64 -137 l 64 -139 m 125 -79 l 124 -79 l 124 -78 l 125 -78 l 125 -79 m 113 -92 l 111 -92 l 111 -90 l 113 -90 l 113 -92 m 97 -107 l 96 -107 l 96 -106 l 97 -106 l 97 -107 m 85 -119 l 83 -119 l 83 -118 l 85 -118 l 85 -119 m 69 -135 l 68 -135 l 68 -133 l 69 -133 l 69 -135 m 133 -72 l 132 -72 l 132 -71 l 133 -71 l 133 -72 m 118 -87 l 117 -87 l 117 -86 l 118 -86 l 118 -87 m 106 -100 l 104 -100 l 104 -99 l 106 -99 l 106 -100 m 90 -115 l 89 -115 l 89 -114 l 90 -114 l 90 -115 m 78 -128 l 76 -128 l 76 -126 l 78 -126 l 78 -128 m 139 -68 l 138 -68 l 138 -67 l 139 -67 l 139 -68 m 126 -81 l 125 -81 l 125 -79 l 126 -79 l 126 -81 m 111 -96 l 110 -96 l 110 -94 l 111 -94 l 111 -96 m 99 -108 l 97 -108 l 97 -107 l 99 -107 l 99 -108 m 83 -124 l 82 -124 l 82 -122 l 83 -122 l 83 -124 m 71 -136 l 69 -136 l 69 -135 l 71 -135 l 71 -136 m 132 -76 l 131 -76 l 131 -75 l 132 -75 l 132 -76 m 119 -89 l 118 -89 l 118 -87 l 119 -87 l 119 -89 m 104 -104 l 103 -104 l 103 -103 l 104 -103 l 104 -104 m 92 -117 l 90 -117 l 90 -115 l 92 -115 l 92 -117 m 76 -132 l 75 -132 l 75 -131 l 76 -131 l 76 -132 m 125 -85 l 124 -85 l 124 -83 l 125 -83 l 125 -85 m 113 -97 l 111 -97 l 111 -96 l 113 -96 l 113 -97 m 97 -112 l 96 -112 l 96 -111 l 97 -111 l 97 -112 m 85 -125 l 83 -125 l 83 -124 l 85 -124 l 85 -125 m 133 -78 l 132 -78 l 132 -76 l 133 -76 l 133 -78 m 118 -93 l 117 -93 l 117 -92 l 118 -92 l 118 -93 m 106 -106 l 104 -106 l 104 -104 l 106 -104 l 106 -106 m 90 -121 l 89 -121 l 89 -119 l 90 -119 l 90 -121 m 78 -133 l 76 -133 l 76 -132 l 78 -132 l 78 -133 m 139 -74 l 138 -74 l 138 -72 l 139 -72 l 139 -74 m 126 -86 l 125 -86 l 125 -85 l 126 -85 l 126 -86 m 111 -101 l 110 -101 l 110 -100 l 111 -100 l 111 -101 m 99 -114 l 97 -114 l 97 -112 l 99 -112 l 99 -114 m 83 -129 l 82 -129 l 82 -128 l 83 -128 l 83 -129 m 132 -82 l 131 -82 l 131 -81 l 132 -81 l 132 -82 m 119 -94 l 118 -94 l 118 -93 l 119 -93 l 119 -94 m 104 -110 l 103 -110 l 103 -108 l 104 -108 l 104 -110 m 92 -122 l 90 -122 l 90 -121 l 92 -121 l 92 -122 m 76 -137 l 75 -137 l 75 -136 l 76 -136 l 76 -137 m 125 -90 l 124 -90 l 124 -89 l 125 -89 l 125 -90 m 113 -103 l 111 -103 l 111 -101 l 113 -101 l 113 -103 m 97 -118 l 96 -118 l 96 -117 l 97 -117 l 97 -118 m 85 -131 l 83 -131 l 83 -129 l 85 -129 l 85 -131 m 133 -83 l 132 -83 l 132 -82 l 133 -82 l 133 -83 m 118 -99 l 117 -99 l 117 -97 l 118 -97 l 118 -99 m 106 -111 l 104 -111 l 104 -110 l 106 -110 l 106 -111 m 90 -126 l 89 -126 l 89 -125 l 90 -125 l 90 -126 m 78 -139 l 76 -139 l 76 -137 l 78 -137 l 78 -139 m 139 -79 l 138 -79 l 138 -78 l 139 -78 l 139 -79 m 126 -92 l 125 -92 l 125 -90 l 126 -90 l 126 -92 m 111 -107 l 110 -107 l 110 -106 l 111 -106 l 111 -107 m 99 -119 l 97 -119 l 97 -118 l 99 -118 l 99 -119 m 83 -135 l 82 -135 l 82 -133 l 83 -133 l 83 -135 m 132 -87 l 131 -87 l 131 -86 l 132 -86 l 132 -87 m 119 -100 l 118 -100 l 118 -99 l 119 -99 l 119 -100 m 104 -115 l 103 -115 l 103 -114 l 104 -114 l 104 -115 m 92 -128 l 90 -128 l 90 -126 l 92 -126 l 92 -128 m 125 -96 l 124 -96 l 124 -94 l 125 -94 l 125 -96 m 113 -108 l 111 -108 l 111 -107 l 113 -107 l 113 -108 m 97 -124 l 96 -124 l 96 -122 l 97 -122 l 97 -124 m 85 -136 l 83 -136 l 83 -135 l 85 -135 l 85 -136 m 133 -89 l 132 -89 l 132 -87 l 133 -87 l 133 -89 m 118 -104 l 117 -104 l 117 -103 l 118 -103 l 118 -104 m 106 -117 l 104 -117 l 104 -115 l 106 -115 l 106 -117 m 90 -132 l 89 -132 l 89 -131 l 90 -131 l 90 -132 m 139 -85 l 138 -85 l 138 -83 l 139 -83 l 139 -85 m 126 -97 l 125 -97 l 125 -96 l 126 -96 l 126 -97 m 111 -112 l 110 -112 l 110 -111 l 111 -111 l 111 -112 m 99 -125 l 97 -125 l 97 -124 l 99 -124 l 99 -125 m 132 -93 l 131 -93 l 131 -92 l 132 -92 l 132 -93 m 119 -106 l 118 -106 l 118 -104 l 119 -104 l 119 -106 m 104 -121 l 103 -121 l 103 -119 l 104 -119 l 104 -121 m 92 -133 l 90 -133 l 90 -132 l 92 -132 l 92 -133 m 125 -101 l 124 -101 l 124 -100 l 125 -100 l 125 -101 m 113 -114 l 111 -114 l 111 -112 l 113 -112 l 113 -114 m 97 -129 l 96 -129 l 96 -128 l 97 -128 l 97 -129 m 133 -94 l 132 -94 l 132 -93 l 133 -93 l 133 -94 m 118 -110 l 117 -110 l 117 -108 l 118 -108 l 118 -110 m 106 -122 l 104 -122 l 104 -121 l 106 -121 l 106 -122 m 90 -137 l 89 -137 l 89 -136 l 90 -136 l 90 -137 m 139 -90 l 138 -90 l 138 -89 l 139 -89 l 139 -90 m 126 -103 l 125 -103 l 125 -101 l 126 -101 l 126 -103 m 111 -118 l 110 -118 l 110 -117 l 111 -117 l 111 -118 m 99 -131 l 97 -131 l 97 -129 l 99 -129 l 99 -131 m 132 -99 l 131 -99 l 131 -97 l 132 -97 l 132 -99 m 119 -111 l 118 -111 l 118 -110 l 119 -110 l 119 -111 m 104 -126 l 103 -126 l 103 -125 l 104 -125 l 104 -126 m 92 -139 l 90 -139 l 90 -137 l 92 -137 l 92 -139 m 125 -107 l 124 -107 l 124 -106 l 125 -106 l 125 -107 m 113 -119 l 111 -119 l 111 -118 l 113 -118 l 113 -119 m 97 -135 l 96 -135 l 96 -133 l 97 -133 l 97 -135 m 133 -100 l 132 -100 l 132 -99 l 133 -99 l 133 -100 m 118 -115 l 117 -115 l 117 -114 l 118 -114 l 118 -115 m 106 -128 l 104 -128 l 104 -126 l 106 -126 l 106 -128 m 139 -96 l 138 -96 l 138 -94 l 139 -94 l 139 -96 m 126 -108 l 125 -108 l 125 -107 l 126 -107 l 126 -108 m 111 -124 l 110 -124 l 110 -122 l 111 -122 l 111 -124 m 99 -136 l 97 -136 l 97 -135 l 99 -135 l 99 -136 m 132 -104 l 131 -104 l 131 -103 l 132 -103 l 132 -104 m 119 -117 l 118 -117 l 118 -115 l 119 -115 l 119 -117 m 104 -132 l 103 -132 l 103 -131 l 104 -131 l 104 -132 m 125 -112 l 124 -112 l 124 -111 l 125 -111 l 125 -112 m 113 -125 l 111 -125 l 111 -124 l 113 -124 l 113 -125 m 133 -106 l 132 -106 l 132 -104 l 133 -104 l 133 -106 m 118 -121 l 117 -121 l 117 -119 l 118 -119 l 118 -121 m 106 -133 l 104 -133 l 104 -132 l 106 -132 l 106 -133 m 139 -101 l 138 -101 l 138 -100 l 139 -100 l 139 -101 m 126 -114 l 125 -114 l 125 -112 l 126 -112 l 126 -114 m 111 -129 l 110 -129 l 110 -128 l 111 -128 l 111 -129 m 132 -110 l 131 -110 l 131 -108 l 132 -108 l 132 -110 m 119 -122 l 118 -122 l 118 -121 l 119 -121 l 119 -122 m 104 -137 l 103 -137 l 103 -136 l 104 -136 l 104 -137 m 125 -118 l 124 -118 l 124 -117 l 125 -117 l 125 -118 m 113 -131 l 111 -131 l 111 -129 l 113 -129 l 113 -131 m 133 -111 l 132 -111 l 132 -110 l 133 -110 l 133 -111 m 118 -126 l 117 -126 l 117 -125 l 118 -125 l 118 -126 m 106 -139 l 104 -139 l 104 -137 l 106 -137 l 106 -139 m 139 -107 l 138 -107 l 138 -106 l 139 -106 l 139 -107 m 126 -119 l 125 -119 l 125 -118 l 126 -118 l 126 -119 m 111 -135 l 110 -135 l 110 -133 l 111 -133 l 111 -135 m 132 -115 l 131 -115 l 131 -114 l 132 -114 l 132 -115 m 119 -128 l 118 -128 l 118 -126 l 119 -126 l 119 -128 m 125 -124 l 124 -124 l 124 -122 l 125 -122 l 125 -124 m 113 -136 l 111 -136 l 111 -135 l 113 -135 l 113 -136 m 133 -117 l 132 -117 l 132 -115 l 133 -115 l 133 -117 m 118 -132 l 117 -132 l 117 -131 l 118 -131 l 118 -132 m 139 -112 l 138 -112 l 138 -111 l 139 -111 l 139 -112 m 126 -125 l 125 -125 l 125 -124 l 126 -124 l 126 -125 m 132 -121 l 131 -121 l 131 -119 l 132 -119 l 132 -121 m 119 -133 l 118 -133 l 118 -132 l 119 -132 l 119 -133 m 125 -129 l 124 -129 l 124 -128 l 125 -128 l 125 -129 m 133 -122 l 132 -122 l 132 -121 l 133 -121 l 133 -122 m 118 -137 l 117 -137 l 117 -136 l 118 -136 l 118 -137 m 139 -118 l 138 -118 l 138 -117 l 139 -117 l 139 -118 m 126 -131 l 125 -131 l 125 -129 l 126 -129 l 126 -131 m 132 -126 l 131 -126 l 131 -125 l 132 -125 l 132 -126 m 119 -139 l 118 -139 l 118 -137 l 119 -137 l 119 -139 m 125 -135 l 124 -135 l 124 -133 l 125 -133 l 125 -135 m 133 -128 l 132 -128 l 132 -126 l 133 -126 l 133 -128 m 139 -124 l 138 -124 l 138 -122 l 139 -122 l 139 -124 m 126 -136 l 125 -136 l 125 -135 l 126 -135 l 126 -136 m 132 -132 l 131 -132 l 131 -131 l 132 -131 l 132 -132 m 133 -133 l 132 -133 l 132 -132 l 133 -132 l 133 -133 m 139 -129 l 138 -129 l 138 -128 l 139 -128 l 139 -129 m 132 -137 l 131 -137 l 131 -136 l 132 -136 l 132 -137 m 133 -139 l 132 -139 l 132 -137 l 133 -137 l 133 -139 z "},"A":{"ha":278,"x_min":-139,"x_max":278,"o":"m 139 417 l 0 417 l 0 0 l 139 0 l 139 417 m 278 0 l 278 -139 l 278 0 m 278 417 l 278 278 l 278 417 m 278 278 l 278 139 l 278 278 m 0 -140 l -139 -140 l -139 278 l 0 278 l 0 -140 m 278 -140 l 139 -140 l 139 278 l 278 278 l 278 -140 z "},"":{"ha":417,"x_min":0,"x_max":0,"o":""},"":{"ha":278,"x_min":0,"x_max":0,"o":""},"B":{"ha":694,"x_min":0,"x_max":556,"o":"m 556 139 l 417 139 l 417 278 l 556 278 l 556 139 m 556 -139 l 417 -139 l 417 0 l 556 0 l 556 -139 m 139 -139 l 0 -139 l 0 0 l 139 0 l 139 -139 m 417 278 l 278 278 l 278 417 l 417 417 l 417 278 m 556 0 l 417 0 l 417 139 l 556 139 l 556 0 m 139 0 l 0 0 l 0 139 l 139 139 l 139 0 m 0 139 l 0 278 l 139 278 l 139 139 l 0 139 m 139 278 l 0 278 l 0 417 l 139 417 l 139 278 z "},"C":{"ha":694,"x_min":0,"x_max":556,"o":"m 278 0 l 278 139 l 417 139 l 417 0 l 278 0 m 0 -139 l 0 0 l 139 0 l 139 -139 l 0 -139 m 0 278 l 0 417 l 139 417 l 139 278 l 0 278 m 417 278 l 417 417 l 556 417 l 556 278 l 417 278 m 417 -139 l 417 0 l 556 0 l 556 -139 l 417 -139 m 0 0 l 0 139 l 139 139 l 139 0 l 0 0 m 278 139 l 278 278 l 417 278 l 417 139 l 278 139 m 0 139 l 0 278 l 139 278 l 139 139 l 0 139 z "},"":{"ha":694,"x_min":0,"x_max":556,"o":"m 278 0 l 278 139 l 417 139 l 417 0 l 278 0 m 0 -139 l 0 0 l 139 0 l 139 -139 l 0 -139 m 0 278 l 0 417 l 139 417 l 139 278 l 0 278 m 417 278 l 417 417 l 556 417 l 556 278 l 417 278 m 417 -139 l 417 0 l 556 0 l 556 -139 l 417 -139 m 0 0 l 0 139 l 139 139 l 139 0 l 0 0 m 278 139 l 278 278 l 417 278 l 417 139 l 278 139 m 0 139 l 0 278 l 139 278 l 139 139 l 0 139 z "},"D":{"ha":556,"x_min":139,"x_max":417,"o":"m 139 278 l 278 278 l 278 417 l 417 417 l 417 -139 l 139 -139 l 139 278 z "},"E":{"ha":694,"x_min":139,"x_max":556,"o":"m 139 0 l 556 0 l 556 -139 l 139 -139 l 139 0 m 139 139 l 417 139 l 417 0 l 139 0 l 139 139 m 417 0 l 417 139 l 278 139 l 278 0 l 417 0 m 139 417 l 556 417 l 556 278 l 139 278 l 139 417 m 139 278 l 417 278 l 417 139 l 139 139 l 139 278 z "},"":{"ha":139,"x_min":0,"x_max":139,"o":"m 139 0 l 139 -139 l 0 -139 l 0 0 l 139 0 m 0 417 l 139 417 l 139 278 l 0 278 l 0 417 m 139 139 l 139 0 l 0 0 l 0 139 l 139 139 m 0 278 l 139 278 l 139 139 l 0 139 l 0 278 z "},"":{"ha":417,"x_min":0,"x_max":417,"o":"m 417 417 l 417 278 l 278 278 l 278 417 l 417 417 m 139 139 l 278 139 l 278 0 l 139 0 l 139 139 m 0 139 l 139 139 l 139 0 l 0 0 l 0 139 m 278 278 l 278 139 l 139 139 l 139 278 l 278 278 m 278 0 l 417 0 l 417 -139 l 278 -139 l 278 0 z "},"":{"ha":833,"x_min":0,"x_max":694,"o":"m 139 0 l 139 -139 l 0 -139 l 0 0 l 139 0 m 0 417 l 139 417 l 139 278 l 0 278 l 0 417 m 694 417 l 694 278 l 556 278 l 556 417 l 694 417 m 417 139 l 556 139 l 556 0 l 417 0 l 417 139 m 278 139 l 417 139 l 417 0 l 278 0 l 278 139 m 139 139 l 139 0 l 0 0 l 0 139 l 139 139 m 0 278 l 139 278 l 139 139 l 0 139 l 0 278 m 556 278 l 556 139 l 417 139 l 417 278 l 556 278 m 556 0 l 694 0 l 694 -139 l 556 -139 l 556 0 z "},"F":{"ha":833,"x_min":0,"x_max":694,"o":"m 417 278 l 556 278 l 556 139 l 417 139 l 417 278 m 0 278 l 139 278 l 139 139 l 0 139 l 0 278 m 556 417 l 694 417 l 694 278 l 556 278 l 556 417 m 556 278 l 694 278 l 694 139 l 556 139 l 556 278 m 0 417 l 139 417 l 139 278 l 0 278 l 0 417 m 278 139 l 417 139 l 417 0 l 278 0 l 278 139 m 417 139 l 556 139 l 556 0 l 417 0 l 417 139 m 278 0 l 417 0 l 417 -139 l 278 -139 l 278 0 m 0 139 l 139 139 l 139 0 l 0 0 l 0 139 m 0 0 l 139 0 l 139 -139 l 0 -139 l 0 0 z "},"G":{"ha":694,"x_min":0,"x_max":694,"o":"m 694 0 l 694 -139 l 556 -139 l 556 0 l 694 0 m 556 278 l 556 139 l 417 139 l 417 278 l 556 278 m 694 139 l 694 0 l 556 0 l 556 139 l 694 139 m 278 417 l 278 278 l 139 278 l 139 417 l 278 417 m 139 139 l 139 0 l 0 0 l 0 139 l 139 139 m 694 417 l 694 278 l 556 278 l 556 417 l 694 417 m 417 278 l 417 139 l 278 139 l 278 278 l 417 278 m 139 278 l 139 139 l 0 139 l 0 278 l 139 278 m 417 139 l 417 0 l 278 0 l 278 139 l 417 139 m 139 0 l 139 -139 l 0 -139 l 0 0 l 139 0 z "},"H":{"ha":833,"x_min":0,"x_max":694,"o":"m 556 -139 l 556 0 l 694 0 l 694 -139 l 556 -139 m 0 139 l 0 278 l 139 278 l 139 139 l 0 139 m 556 0 l 556 139 l 694 139 l 694 0 l 556 0 m 556 139 l 556 278 l 694 278 l 694 139 l 556 139 m 278 278 l 278 417 l 417 417 l 417 278 l 278 278 m 556 278 l 556 417 l 694 417 l 694 278 l 556 278 m 0 278 l 0 417 l 139 417 l 139 278 l 0 278 m 0 0 l 0 139 l 139 139 l 139 0 l 0 0 m 0 -139 l 0 0 l 139 0 l 139 -139 l 0 -139 m 278 -139 l 278 0 l 417 0 l 417 -139 l 278 -139 z "},"I":{"ha":694,"x_min":0,"x_max":694,"o":"m 556 139 l 417 139 l 417 278 l 556 278 l 556 139 m 694 -139 l 556 -139 l 556 0 l 694 0 l 694 -139 m 139 0 l 0 0 l 0 139 l 139 139 l 139 0 m 0 -139 l 0 0 l 139 0 l 139 -139 l 0 -139 m 139 139 l 139 278 l 278 278 l 278 139 l 139 139 m 556 0 l 556 139 l 694 139 l 694 0 l 556 0 m 139 278 l 0 278 l 0 417 l 139 417 l 139 278 m 556 278 l 556 417 l 694 417 l 694 278 l 556 278 m 139 0 l 139 139 l 278 139 l 278 0 l 139 0 m 556 0 l 417 0 l 417 139 l 556 139 l 556 0 z "},"J":{"ha":833,"x_min":0,"x_max":694,"o":"m 139 139 l 278 139 l 278 0 l 139 0 l 139 139 m 278 278 l 278 139 l 139 139 l 139 278 l 278 278 m 556 139 l 556 0 l 417 0 l 417 139 l 556 139 m 139 0 l 139 -139 l 0 -139 l 0 0 l 139 0 m 556 0 l 556 -139 l 417 -139 l 417 0 l 556 0 m 0 417 l 139 417 l 139 278 l 0 278 l 0 417 m 694 417 l 694 278 l 556 278 l 556 417 l 694 417 m 556 278 l 556 139 l 417 139 l 417 278 l 556 278 z "},"K":{"ha":833,"x_min":0,"x_max":694,"o":"m 556 278 l 556 139 l 417 139 l 417 278 l 556 278 m 694 278 l 694 139 l 556 139 l 556 278 l 694 278 m 139 417 l 139 278 l 0 278 l 0 417 l 139 417 m 139 278 l 139 139 l 0 139 l 0 278 l 139 278 m 694 417 l 694 278 l 556 278 l 556 417 l 694 417 m 694 0 l 694 -139 l 556 -139 l 556 0 l 694 0 m 417 417 l 417 278 l 278 278 l 278 417 l 417 417 m 417 0 l 417 -139 l 278 -139 l 278 0 l 417 0 m 139 0 l 139 -139 l 0 -139 l 0 0 l 139 0 m 694 139 l 694 0 l 556 0 l 556 139 l 694 139 m 139 139 l 139 0 l 0 0 l 0 139 l 139 139 z "},"L":{"ha":417,"x_min":139,"x_max":417,"o":"m 417 0 l 417 -139 l 278 -139 l 278 0 l 417 0 m 278 417 l 278 -139 l 139 -139 l 139 417 l 278 417 z "},"M":{"ha":833,"x_min":0,"x_max":694,"o":"m 278 139 l 278 0 l 139 0 l 139 139 l 278 139 m 694 0 l 694 -139 l 556 -139 l 556 0 l 694 0 m 139 139 l 139 0 l 0 0 l 0 139 l 139 139 m 694 278 l 694 139 l 556 139 l 556 278 l 694 278 m 417 0 l 417 -139 l 278 -139 l 278 0 l 417 0 m 278 0 l 278 -139 l 139 -139 l 139 0 l 278 0 m 694 139 l 694 0 l 556 0 l 556 139 l 694 139 m 556 278 l 556 139 l 417 139 l 417 278 l 556 278 m 417 417 l 417 278 l 278 278 l 278 417 l 417 417 m 139 278 l 139 139 l 0 139 l 0 278 l 139 278 z "},"N":{"ha":972,"x_min":0,"x_max":833,"o":"m 139 417 l 139 278 l 0 278 l 0 417 l 139 417 m 139 278 l 139 139 l 0 139 l 0 278 l 139 278 m 139 0 l 139 -139 l 0 -139 l 0 0 l 139 0 m 833 417 l 833 278 l 694 278 l 694 417 l 833 417 m 833 0 l 833 -139 l 694 -139 l 694 0 l 833 0 m 556 278 l 556 139 l 417 139 l 417 278 l 556 278 m 417 0 l 417 -139 l 278 -139 l 278 0 l 417 0 m 833 278 l 833 139 l 694 139 l 694 278 l 833 278 m 417 139 l 417 0 l 278 0 l 278 139 l 417 139 m 833 139 l 833 0 l 694 0 l 694 139 l 833 139 m 139 139 l 139 0 l 0 0 l 0 139 l 139 139 m 556 417 l 556 278 l 417 278 l 417 417 l 556 417 z "},"O":{"ha":694,"x_min":0,"x_max":694,"o":"m 417 139 l 417 0 l 278 0 l 278 139 l 417 139 m 139 139 l 139 0 l 0 0 l 0 139 l 139 139 m 139 0 l 139 -139 l 0 -139 l 0 0 l 139 0 m 139 278 l 139 139 l 0 139 l 0 278 l 139 278 m 139 417 l 139 278 l 0 278 l 0 417 l 139 417 m 417 278 l 417 139 l 278 139 l 278 278 l 417 278 m 694 139 l 694 0 l 556 0 l 556 139 l 694 139 m 694 417 l 694 278 l 556 278 l 556 417 l 694 417 m 694 278 l 694 139 l 556 139 l 556 278 l 694 278 m 694 0 l 694 -139 l 556 -139 l 556 0 l 694 0 z "},"P":{"ha":694,"x_min":0,"x_max":556,"o":"m 139 139 l 139 0 l 0 0 l 0 139 l 139 139 m 556 417 l 556 278 l 417 278 l 417 417 l 556 417 m 556 278 l 556 139 l 417 139 l 417 278 l 556 278 m 139 417 l 139 278 l 0 278 l 0 417 l 139 417 m 139 278 l 139 139 l 0 139 l 0 278 l 139 278 m 139 0 l 139 -139 l 0 -139 l 0 0 l 139 0 m 556 139 l 556 0 l 417 0 l 417 139 l 556 139 m 417 0 l 417 -139 l 278 -139 l 278 0 l 417 0 z "},"Q":{"ha":694,"x_min":0,"x_max":556,"o":"m 417 139 l 556 139 l 556 0 l 417 0 l 417 139 m 0 417 l 139 417 l 139 278 l 0 278 l 0 417 m 0 278 l 139 278 l 139 139 l 0 139 l 0 278 m 417 417 l 556 417 l 556 278 l 417 278 l 417 417 m 417 278 l 556 278 l 556 139 l 417 139 l 417 278 m 417 0 l 556 0 l 556 -139 l 417 -139 l 417 0 m 0 139 l 139 139 l 139 0 l 0 0 l 0 139 m 139 0 l 278 0 l 278 -139 l 139 -139 l 139 0 z "},"R":{"ha":833,"x_min":0,"x_max":694,"o":"m 556 417 l 556 278 l 417 278 l 417 417 l 556 417 m 694 0 l 694 -139 l 556 -139 l 556 0 l 694 0 m 139 417 l 139 278 l 0 278 l 0 417 l 139 417 m 139 0 l 139 -139 l 0 -139 l 0 0 l 139 0 m 417 0 l 417 -139 l 278 -139 l 278 0 l 417 0 m 556 278 l 556 139 l 417 139 l 417 278 l 556 278 m 139 278 l 139 139 l 0 139 l 0 278 l 139 278 m 694 139 l 694 0 l 556 0 l 556 139 l 694 139 m 139 139 l 139 0 l 0 0 l 0 139 l 139 139 z "},"S":{"ha":556,"x_min":-139,"x_max":556,"o":"m 0 417 l 139 417 l 139 278 l 0 278 l 0 417 m -139 0 l 0 0 l 0 -139 l -139 -139 l -139 0 m 417 417 l 556 417 l 556 278 l 417 278 l 417 417 m 278 0 l 417 0 l 417 -139 l 278 -139 l 278 0 m -139 278 l 0 278 l 0 139 l -139 139 l -139 278 m 278 139 l 417 139 l 417 0 l 278 0 l 278 139 m -139 139 l 0 139 l 0 0 l -139 0 l -139 139 m 0 278 l 139 278 l 139 139 l 0 139 l 0 278 m 417 278 l 556 278 l 556 139 l 417 139 l 417 278 z "},"T":{"ha":694,"x_min":0,"x_max":694,"o":"m 556 0 l 417 0 l 417 139 l 556 139 l 556 0 m 139 278 l 0 278 l 0 417 l 139 417 l 139 278 m 417 -139 l 417 0 l 556 0 l 556 -139 l 417 -139 m 556 278 l 556 417 l 694 417 l 694 278 l 556 278 m 139 139 l 139 278 l 278 278 l 278 139 l 139 139 m 556 139 l 417 139 l 417 278 l 556 278 l 556 139 m 139 0 l 139 139 l 278 139 l 278 0 l 139 0 m 139 -139 l 139 0 l 278 0 l 278 -139 l 139 -139 z "},"U":{"ha":694,"x_min":0,"x_max":694,"o":"m 556 -139 l 556 417 l 694 417 l 694 -139 l 556 -139 m 0 417 l 139 417 l 139 -139 l 0 -139 l 0 417 m 278 417 l 417 417 l 417 0 l 278 0 l 278 417 z "},"":{"ha":833,"x_min":0,"x_max":694,"o":"m 694 -139 l 556 -139 l 556 0 l 694 0 l 694 -139 m 694 278 l 556 278 l 556 417 l 694 417 l 694 278 m 0 -139 l 0 0 l 139 0 l 139 -139 l 0 -139 m 278 139 l 278 278 l 417 278 l 417 139 l 278 139 m 556 139 l 556 278 l 694 278 l 694 139 l 556 139 m 278 0 l 278 139 l 417 139 l 417 0 l 278 0 m 139 0 l 0 0 l 0 139 l 139 139 l 139 0 m 556 0 l 556 139 l 694 139 l 694 0 l 556 0 m 139 139 l 0 139 l 0 278 l 139 278 l 139 139 m 139 278 l 0 278 l 0 417 l 139 417 l 139 278 m 417 278 l 278 278 l 278 417 l 417 417 l 417 278 z "},"":{"ha":833,"x_min":0,"x_max":694,"o":"m 694 -139 l 556 -139 l 556 0 l 694 0 l 694 -139 m 694 278 l 556 278 l 556 417 l 694 417 l 694 278 m 0 -139 l 0 0 l 139 0 l 139 -139 l 0 -139 m 278 139 l 278 278 l 417 278 l 417 139 l 278 139 m 556 139 l 556 278 l 694 278 l 694 139 l 556 139 m 278 0 l 278 139 l 417 139 l 417 0 l 278 0 m 139 0 l 0 0 l 0 139 l 139 139 l 139 0 m 556 0 l 556 139 l 694 139 l 694 0 l 556 0 m 139 139 l 0 139 l 0 278 l 139 278 l 139 139 m 139 278 l 0 278 l 0 417 l 139 417 l 139 278 m 417 278 l 278 278 l 278 417 l 417 417 l 417 278 m 278 278 l 278 417 l 417 417 l 417 278 l 278 278 z "},"":{"ha":833,"x_min":0,"x_max":694,"o":"m 694 -139 l 556 -139 l 556 0 l 694 0 l 694 -139 m 694 278 l 556 278 l 556 417 l 694 417 l 694 278 m 0 -139 l 0 0 l 139 0 l 139 -139 l 0 -139 m 278 139 l 278 278 l 417 278 l 417 139 l 278 139 m 556 139 l 556 278 l 694 278 l 694 139 l 556 139 m 278 0 l 278 139 l 417 139 l 417 0 l 278 0 m 139 0 l 0 0 l 0 139 l 139 139 l 139 0 m 556 0 l 556 139 l 694 139 l 694 0 l 556 0 m 139 139 l 0 139 l 0 278 l 139 278 l 139 139 m 139 278 l 0 278 l 0 417 l 139 417 l 139 278 m 417 278 l 278 278 l 278 417 l 417 417 l 417 278 z "},"V":{"ha":1111,"x_min":0,"x_max":972,"o":"m 694 -139 l 556 -139 l 556 0 l 694 0 l 694 -139 m 833 0 l 694 0 l 694 139 l 833 139 l 833 0 m 278 0 l 139 0 l 139 139 l 278 139 l 278 0 m 972 278 l 833 278 l 833 417 l 972 417 l 972 278 m 417 -139 l 278 -139 l 278 0 l 417 0 l 417 -139 m 833 139 l 694 139 l 694 278 l 833 278 l 833 139 m 278 139 l 139 139 l 139 278 l 278 278 l 278 139 m 556 139 l 417 139 l 417 278 l 556 278 l 556 139 m 556 278 l 417 278 l 417 417 l 556 417 l 556 278 m 139 278 l 0 278 l 0 417 l 139 417 l 139 278 z "},"W":{"ha":1111,"x_min":0,"x_max":972,"o":"m 833 -139 l 694 -139 l 694 0 l 833 0 l 833 -139 m 833 0 l 694 0 l 694 139 l 833 139 l 833 0 m 139 278 l 0 278 l 0 417 l 139 417 l 139 278 m 278 0 l 139 0 l 139 139 l 278 139 l 278 0 m 694 278 l 556 278 l 556 417 l 694 417 l 694 278 m 694 139 l 556 139 l 556 278 l 694 278 l 694 139 m 417 139 l 278 139 l 278 278 l 417 278 l 417 139 m 556 -139 l 417 -139 l 417 0 l 556 0 l 556 -139 m 278 -139 l 139 -139 l 139 0 l 278 0 l 278 -139 m 972 0 l 833 0 l 833 139 l 972 139 l 972 0 m 139 0 l 0 0 l 0 139 l 139 139 l 139 0 m 139 139 l 0 139 l 0 278 l 139 278 l 139 139 m 417 278 l 278 278 l 278 417 l 417 417 l 417 278 m 972 139 l 833 139 l 833 278 l 972 278 l 972 139 m 972 278 l 833 278 l 833 417 l 972 417 l 972 278 z "},"X":{"ha":833,"x_min":0,"x_max":694,"o":"m 556 139 l 556 0 l 417 0 l 417 139 l 556 139 m 694 0 l 694 -139 l 556 -139 l 556 0 l 694 0 m 139 0 l 139 -139 l 0 -139 l 0 0 l 139 0 m 417 0 l 417 -139 l 278 -139 l 278 0 l 417 0 m 556 278 l 556 139 l 417 139 l 417 278 l 556 278 m 417 417 l 417 278 l 278 278 l 278 417 l 417 417 m 139 417 l 139 278 l 0 278 l 0 417 l 139 417 m 694 417 l 694 278 l 556 278 l 556 417 l 694 417 m 139 139 l 139 0 l 0 0 l 0 139 l 139 139 m 694 139 l 694 0 l 556 0 l 556 139 l 694 139 m 278 139 l 278 0 l 139 0 l 139 139 l 278 139 m 278 278 l 278 139 l 139 139 l 139 278 l 278 278 z "}}}
